<?xml version="1.0" standalone="no"?>
<!DOCTYPE svg PUBLIC "-//W3C//DTD SVG 1.1//EN" "http://www.w3.org/Graphics/SVG/1.1/DTD/svg11.dtd" >
<svg xmlns="http://www.w3.org/2000/svg" xmlns:xlink="http://www.w3.org/1999/xlink" version="1.1">
<metadata></metadata>
<defs>
<font id="raisonnedemibold" horiz-adv-x="1216" >
<font-face units-per-em="2048" ascent="1638" descent="-410" />
<missing-glyph horiz-adv-x="577" />
<glyph horiz-adv-x="0" />
<glyph horiz-adv-x="682" />
<glyph unicode=" "  horiz-adv-x="577" />
<glyph unicode="&#x09;" horiz-adv-x="577" />
<glyph unicode="&#xa0;" horiz-adv-x="577" />
<glyph unicode="!" horiz-adv-x="606" d="M143 141q0 63 44.5 108.5t107.5 45.5t107 -45.5t44 -108.5q0 -64 -44 -108.5t-107 -44.5t-107.5 44.5t-44.5 108.5zM180 385v1049l230 24v-1073h-230z" />
<glyph unicode="&#x22;" horiz-adv-x="856" d="M156 997v437l217 24v-461h-217zM483 997v437l217 24v-461h-217z" />
<glyph unicode="#" horiz-adv-x="1683" d="M125 410v204h410v205h-410v205h410v410l204 24v-434h205v410l205 24v-434h410v-205h-410v-205h410v-204h-410v-410h-205v410h-205v-410h-204v410h-410zM739 614h205v205h-205v-205z" />
<glyph unicode="$" horiz-adv-x="1101" d="M82 449h229q0 -103 63 -173.5t169 -70.5q107 0 169 67.5t62 176.5q0 52 -16 91t-39 62.5t-65 44t-78 31.5t-93.5 29.5t-97.5 33.5q-102 40 -163.5 124.5t-61.5 199.5q0 137 75.5 237.5t198.5 131.5v204h205v-204q157 -35 238 -172l-154 -154q-26 57 -74.5 89t-105.5 32 q-70 0 -114 -43t-44 -109q0 -32 12 -57.5t29.5 -41.5t52 -32.5t63.5 -26.5t81 -27.5t88 -31.5q142 -54 217.5 -151t75.5 -254q0 -169 -99.5 -294t-255.5 -161v-205h-205v203q-160 32 -261 158.5t-101 292.5z" />
<glyph unicode="%" horiz-adv-x="1949" d="M98 1075q0 160 104.5 265.5t266.5 105.5t266.5 -105.5t104.5 -265.5t-104.5 -265t-266.5 -105t-266.5 105t-104.5 265zM303 1075q0 -76 46.5 -123t119.5 -47t119.5 47t46.5 123t-46.5 123t-119.5 47t-119.5 -47t-46.5 -123zM508 -125l747 1763l187 -79l-748 -1764z M1110 358q0 160 104.5 265.5t266.5 105.5t266 -105t104 -266q0 -160 -104 -265t-266 -105t-266.5 105t-104.5 265zM1315 358q0 -76 46.5 -123t119.5 -47t119.5 47t46.5 123t-46.5 123t-119.5 47t-119.5 -47t-46.5 -123z" />
<glyph unicode="&#x26;" horiz-adv-x="1470" d="M84 449q0 115 59 214t154 156q-129 107 -129 262q0 156 108 260.5t273 104.5q111 0 203.5 -60.5t138.5 -152.5l-152 -135q-74 131 -190 131q-73 0 -116.5 -45.5t-43.5 -114.5q0 -67 46.5 -113.5t113.5 -46.5h78v-217h-78q-103 0 -169.5 -67.5t-66.5 -175.5 q0 -102 67 -173t169 -71q106 0 172.5 67.5t66.5 176.5q0 86 -51 149v205h680v-205h-426q27 -79 27 -149q0 -201 -137 -331t-332 -130q-194 0 -329.5 135t-135.5 326z" />
<glyph unicode="'" horiz-adv-x="528" d="M156 997v437l217 24v-461h-217z" />
<glyph unicode="(" horiz-adv-x="921" d="M125 717q0 335 177.5 610.5t465.5 413.5l109 -195q-238 -116 -380.5 -333.5t-142.5 -495.5q0 -279 143 -497.5t380 -332.5l-109 -194q-288 138 -465.5 413.5t-177.5 610.5z" />
<glyph unicode=")" horiz-adv-x="921" d="M45 -113q237 113 379.5 332t142.5 498q0 278 -142 495.5t-380 333.5l109 195q288 -138 465.5 -413.5t177.5 -610.5t-177.5 -610.5t-465.5 -413.5z" />
<glyph unicode="*" horiz-adv-x="798" d="M98 1034l160 92l-160 93l68 122l164 -94v187l139 12v-199l164 94l67 -122l-159 -93l159 -92l-67 -123l-164 93v-185h-139v185l-164 -93z" />
<glyph unicode="+" horiz-adv-x="1173" d="M117 614v205h356v365h221v-365h357v-205h-357v-364h-221v364h-356z" />
<glyph unicode="," horiz-adv-x="565" d="M-8 -219l258 436h246l-316 -545z" />
<glyph unicode="-" horiz-adv-x="942" d="M117 573v205h702v-205h-702z" />
<glyph unicode="." horiz-adv-x="598" d="M147 141q0 63 44.5 108.5t107.5 45.5t107.5 -45.5t44.5 -108.5t-44.5 -108t-107.5 -45t-107.5 45t-44.5 108z" />
<glyph unicode="/" horiz-adv-x="970" d="M20 -125l748 1763l186 -79l-747 -1764z" />
<glyph unicode="0" horiz-adv-x="1654" d="M119 717q0 148 54.5 282.5t148 232.5t225.5 156t280 58q198 0 361 -98t255.5 -265.5t92.5 -365.5t-92.5 -365.5t-255.5 -265.5t-361 -98q-148 0 -280 58t-225.5 156t-148 232.5t-54.5 282.5zM352 717q0 -150 66 -264l682 682q-125 94 -273 94q-134 0 -243.5 -69.5 t-170.5 -187t-61 -255.5zM553 297q126 -92 274 -92q134 0 244 69.5t171 187t61 255.5q0 144 -66 264z" />
<glyph unicode="1" horiz-adv-x="548" d="M160 0v1434l229 24v-1458h-229z" />
<glyph unicode="2" horiz-adv-x="1200" d="M133 0v266q0 327 318 451q28 11 83 29.5t87 30t75 34.5t66.5 47.5t41 64.5t17.5 89q0 99 -59 158t-166 59q-97 0 -165 -55t-103 -150l-160 150q55 123 167 197.5t255 74.5q217 0 339 -118.5t122 -313.5q0 -330 -359 -449q-141 -46 -197 -80q-133 -79 -133 -229v-39h689 v-217h-918z" />
<glyph unicode="3" horiz-adv-x="1148" d="M104 449h222q0 -105 65 -174.5t174 -69.5t173.5 66t64.5 178q0 114 -61.5 178.5t-166.5 64.5h-102v217h80q76 0 123 43.5t47 122.5q0 71 -44.5 112.5t-113.5 41.5q-122 0 -188 -135l-154 137q48 92 140.5 153.5t201.5 61.5q174 0 276.5 -97t102.5 -262q0 -155 -121 -266 q209 -129 209 -372q0 -210 -132.5 -335.5t-334.5 -125.5q-200 0 -330.5 134t-130.5 327z" />
<glyph unicode="4" horiz-adv-x="1241" d="M121 506v928l229 24v-735h346v530h230v-530h192v-217h-192v-506h-230v506h-575z" />
<glyph unicode="5" horiz-adv-x="1130" d="M121 449h229q0 -106 67.5 -175t168.5 -69q104 0 165.5 66.5t61.5 177.5q0 110 -59 176.5t-164 66.5q-94 0 -158 -61h-221v803h745v-217h-524v-359q83 51 191 51q182 0 300.5 -124t118.5 -336q0 -200 -130.5 -330.5t-325.5 -130.5q-203 0 -334 134t-131 327z" />
<glyph unicode="6" horiz-adv-x="1128" d="M117 449q0 111 67 241l394 744h233l-287 -541q32 12 82 12q118 0 215 -52t157 -157t60 -247q0 -202 -130 -331.5t-330 -129.5t-330.5 129.5t-130.5 331.5zM346 449q0 -107 65.5 -175.5t166.5 -68.5t166 68.5t65 175.5t-64.5 173t-166.5 66t-167 -66t-65 -173z" />
<glyph unicode="7" horiz-adv-x="1044" d="M72 1217v217h932v-193l-222 -422h127v-205h-235l-322 -614h-243l323 614h-141v205h250l211 398h-680z" />
<glyph unicode="8" horiz-adv-x="1200" d="M135 449q0 114 52 208t147 158q-113 104 -113 254q0 161 106.5 269t272.5 108t272.5 -108t106.5 -269q0 -150 -113 -254q95 -64 147 -158t52 -208q0 -195 -132 -328t-333 -133t-333 133t-132 328zM365 449q0 -110 65 -177t170 -67t170.5 67t65.5 177t-65.5 176.5 t-170.5 66.5t-170 -66.5t-65 -176.5zM442 1069q0 -71 44 -115.5t114 -44.5t114 44.5t44 115.5t-44 115.5t-114 44.5t-114 -44.5t-44 -115.5z" />
<glyph unicode="9" horiz-adv-x="1183" d="M90 985q0 203 127 332t326 129q163 0 252 -96v84l229 24v-1458h-229v618q-88 -94 -252 -94q-199 0 -326 129t-127 332zM319 985q0 -108 66 -178t170 -70t172 70.5t68 177.5t-68 177.5t-172 70.5t-170 -70t-66 -178z" />
<glyph unicode=":" horiz-adv-x="598" d="M147 141q0 63 44.5 108.5t107.5 45.5t107.5 -45.5t44.5 -108.5t-44.5 -108t-107.5 -45t-107.5 45t-44.5 108zM147 717q0 63 44.5 108t107.5 45t107.5 -45t44.5 -108t-44.5 -108.5t-107.5 -45.5t-107.5 45.5t-44.5 108.5z" />
<glyph unicode=";" horiz-adv-x="598" d="M-8 -219l258 436h246l-316 -545zM229 717q0 63 44.5 108t107.5 45t107 -45t44 -108t-44 -108.5t-107 -45.5t-107.5 45.5t-44.5 108.5z" />
<glyph unicode="&#x3c;" horiz-adv-x="806" d="M84 717l463 463l145 -144l-323 -319l323 -320l-145 -143z" />
<glyph unicode="=" horiz-adv-x="1171" d="M117 410v204h932v-204h-932zM117 737v205h932v-205h-932z" />
<glyph unicode="&#x3e;" horiz-adv-x="806" d="M115 397l323 320l-323 319l145 144l463 -463l-463 -463z" />
<glyph unicode="?" horiz-adv-x="1046" d="M78 1182q60 124 169 194t259 70q207 0 332 -121.5t125 -308.5q0 -140 -49 -223.5t-144 -143.5q-23 -14 -61 -36.5t-56.5 -34t-44 -32.5t-37.5 -41t-21 -51t-9 -69h-230q0 78 20 140.5t57.5 107t75 73.5t89.5 58q102 57 142 107.5t40 138.5q0 100 -63.5 159.5t-167.5 59.5 q-93 0 -159.5 -55.5t-102.5 -149.5zM274 141q0 63 44.5 108.5t107.5 45.5t107.5 -45.5t44.5 -108.5t-44.5 -108t-107.5 -45t-107.5 45t-44.5 108z" />
<glyph unicode="@" horiz-adv-x="1544" d="M78 717q0 197 88.5 363t250.5 266t363 100q156 0 285.5 -50t217 -138t135.5 -207.5t48 -257.5q0 -182 -86 -287t-217 -105q-132 0 -200 103q-43 -51 -92 -77t-126 -26q-130 0 -220.5 90.5t-90.5 225.5t85 224t210 89q43 0 80 -12t53 -24l15 -13v43h196v-299 q0 -52 21.5 -87.5t64.5 -35.5q94 0 94 176q0 98 -28.5 181t-84.5 148t-148.5 101.5t-211.5 36.5q-142 0 -255 -72.5t-173.5 -193t-60.5 -262.5q0 -235 140.5 -382t369.5 -147q201 0 309 111h260q-170 -311 -577 -311q-206 0 -370 95t-254.5 261.5t-90.5 372.5zM639 715 q0 -53 33 -88t84 -35t86 35.5t35 87.5t-35 87.5t-86 35.5t-84 -35t-33 -88z" />
<glyph unicode="A" horiz-adv-x="1331" d="M20 0l531 1434h229l531 -1434h-240l-86 236h-639l-86 -236h-240zM422 453h487l-243 673z" />
<glyph unicode="B" horiz-adv-x="1206" d="M172 0v1434h467q176 0 278.5 -102t102.5 -269q0 -82 -39 -148t-94 -98q91 -45 156 -142t65 -220q0 -194 -134 -324.5t-325 -130.5h-477zM401 217h238q111 0 175.5 65.5t64.5 172.5t-64.5 172t-175.5 65h-238v-475zM401 909h238q73 0 114.5 41.5t41.5 112.5t-41.5 112.5 t-114.5 41.5h-238v-308z" />
<glyph unicode="C" horiz-adv-x="1597" d="M94 717q0 199 91.5 366t255 265t362.5 98q168 0 306 -69.5t239 -192.5l-160 -160q-141 205 -385 205q-137 0 -246 -68t-169 -185t-60 -259t60 -259t169 -185t246 -68q208 0 341.5 145t133.5 367h233q0 -199 -91.5 -366t-254.5 -265t-362 -98t-362.5 98t-255 265 t-91.5 366z" />
<glyph unicode="D" horiz-adv-x="1392" d="M172 0v1434h420q153 0 283 -50.5t223.5 -142t146.5 -226.5t53 -298t-53 -298t-146.5 -226.5t-223.5 -142t-283 -50.5h-420zM401 217h197q98 0 182.5 33.5t148 95.5t100 157.5t36.5 213.5t-36.5 213.5t-100 157.5t-148 95.5t-182.5 33.5h-197v-1000z" />
<glyph unicode="E" horiz-adv-x="1189" d="M172 0v1434h899v-217h-670v-386h326v-217h-326v-397h682v-217h-911z" />
<glyph unicode="F" horiz-adv-x="1173" d="M172 0v1434h911v-217h-682v-386h351v-217h-351v-614h-229z" />
<glyph unicode="G" horiz-adv-x="1599" d="M94 717q0 199 91.5 366t255 265t362.5 98q168 0 306 -69.5t239 -192.5l-160 -160q-141 205 -385 205q-137 0 -246 -68t-169 -185t-60 -259t60 -259t169 -185t246 -68q186 0 309 110.5t156 298.5h-473v217h686v-831h-213v195q-83 -102 -204 -154.5t-261 -52.5 q-199 0 -362.5 98t-255 265t-91.5 366z" />
<glyph unicode="H" horiz-adv-x="1288" d="M172 0v1434h229v-603h486v603h229v-1434h-229v614h-486v-614h-229z" />
<glyph unicode="I" horiz-adv-x="864" d="M100 0v217h217v1000h-217v217h664v-217h-217v-1000h217v-217h-664z" />
<glyph unicode="J" horiz-adv-x="1105" d="M51 449h230q0 -104 64 -174t167 -70q114 0 172.5 71.5t58.5 202.5v738h-155v217h385v-949q0 -221 -123.5 -359t-337.5 -138q-198 0 -329.5 132t-131.5 329z" />
<glyph unicode="K" horiz-adv-x="1212" d="M172 0v1434h229v-500l349 500h270l-344 -484l520 -950h-268l-402 739l-125 -174v-565h-229z" />
<glyph unicode="L" horiz-adv-x="1114" d="M172 0v1434h229v-1217h682v-217h-911z" />
<glyph unicode="M" horiz-adv-x="1761" d="M172 0v1434h254l455 -1106l454 1106h254v-1434h-229v909l-377 -909h-205l-377 909v-909h-229z" />
<glyph unicode="N" horiz-adv-x="1288" d="M172 0v1434h254l461 -988v988h229v-1434h-254l-461 987v-987h-229z" />
<glyph unicode="O" horiz-adv-x="1605" d="M94 717q0 199 91.5 366t255 265t362.5 98t362 -98t254.5 -265t91.5 -366t-91.5 -366t-254.5 -265t-362 -98t-362.5 98t-255 265t-91.5 366zM328 717q0 -142 60 -259t169 -185t246 -68t246 68t169 185t60 259t-60 259t-169 185t-246 68t-246 -68t-169 -185t-60 -259z" />
<glyph unicode="P" horiz-adv-x="1165" d="M172 0v1434h477q198 0 326.5 -126.5t128.5 -328.5t-128.5 -328.5t-326.5 -126.5h-248v-524h-229zM401 741h248q106 0 170 65.5t64 172.5t-64 172.5t-170 65.5h-248v-476z" />
<glyph unicode="Q" horiz-adv-x="1605" d="M94 717q0 199 91.5 366t255 265t362.5 98t362 -98t254.5 -265t91.5 -366q0 -135 -45 -259t-127 -222l105 -107l-154 -154l-119 117q-167 -104 -368 -104q-199 0 -362.5 98t-255 265t-91.5 366zM328 717q0 -142 60 -259t169 -185t246 -68q117 0 209 49l-209 207l153 153 l222 -219q100 136 100 322q0 142 -60 259t-169 185t-246 68t-246 -68t-169 -185t-60 -259z" />
<glyph unicode="R" horiz-adv-x="1077" d="M172 0v1434h420q177 0 294.5 -110t117.5 -300q0 -164 -92.5 -268.5t-233.5 -132.5l326 -623h-263l-307 614h-33v-614h-229zM401 831h193q89 0 136.5 53t47.5 140t-47.5 140t-136.5 53h-193v-386z" />
<glyph unicode="S" horiz-adv-x="1101" d="M82 449h229q0 -103 63 -173.5t169 -70.5q107 0 169 67.5t62 176.5q0 52 -16 91t-39 62.5t-65 44t-78 31.5t-93.5 29.5t-97.5 33.5q-102 40 -163.5 124.5t-61.5 199.5q0 166 108 273.5t269 107.5q232 0 340 -184l-154 -154q-26 57 -74.5 89t-105.5 32q-70 0 -114 -43 t-44 -109q0 -32 12 -57.5t29.5 -41.5t52 -32.5t63.5 -26.5t81 -27.5t88 -31.5q142 -54 217.5 -151t75.5 -254q0 -199 -133.5 -333t-327.5 -134q-195 0 -328 134.5t-133 326.5z" />
<glyph unicode="T" horiz-adv-x="946" d="M33 1217v217h880v-217h-325v-1217h-230v1217h-325z" />
<glyph unicode="U" horiz-adv-x="1200" d="M133 461v973h229v-985q0 -109 65 -176.5t173 -67.5t173 67.5t65 176.5v985h229v-973q0 -209 -132 -341t-335 -132t-335 132t-132 341z" />
<glyph unicode="V" horiz-adv-x="1327" d="M16 1434h242l406 -1121l405 1121h242l-533 -1434h-229z" />
<glyph unicode="W" horiz-adv-x="1843" d="M37 1434h242l405 -1127l125 365l-262 762h229l146 -437l145 437h229l-262 -762l125 -365l406 1127h241l-532 -1434h-230l-122 354l-123 -354h-230z" />
<glyph unicode="X" horiz-adv-x="1228" d="M18 0l476 877l-301 557h258l163 -322l164 322h258l-301 -557l475 -877h-258l-338 643l-338 -643h-258z" />
<glyph unicode="Y" horiz-adv-x="1032" d="M10 1434h242l264 -586l264 586h242l-391 -820v-614h-230v614z" />
<glyph unicode="Z" horiz-adv-x="1275" d="M72 0v193l305 421h-119v205h266l289 398h-661v217h944v-193l-305 -422h110v-205h-260l-287 -397h834v-217h-1116z" />
<glyph unicode="[" horiz-adv-x="653" d="M172 -205v1843h422v-192h-217v-1458h217v-193h-422z" />
<glyph unicode="\" horiz-adv-x="970" d="M16 1559l187 79l747 -1763l-186 -80z" />
<glyph unicode="]" horiz-adv-x="653" d="M59 -12h217v1458h-217v192h422v-1843h-422v193z" />
<glyph unicode="^" d="M35 965l573 571l574 -571l-144 -146l-430 432l-430 -432z" />
<glyph unicode="_" horiz-adv-x="1224" d="M51 -12h1123v-205h-1123v205z" />
<glyph unicode="`" horiz-adv-x="684" d="M51 1288l55 199l494 -133l-55 -199z" />
<glyph unicode="a" horiz-adv-x="1277" d="M84 512q0 229 146.5 376.5t367.5 147.5q94 0 175.5 -36t117.5 -82v106h229v-1024h-229v106q-36 -46 -116.5 -82t-176.5 -36q-221 0 -367.5 147.5t-146.5 376.5zM305 512q0 -127 87 -217t214 -90q124 0 208.5 90t84.5 217t-84.5 217t-208.5 90q-127 0 -214 -90t-87 -217z " />
<glyph unicode="b" horiz-adv-x="1275" d="M158 0v1434l225 24v-540q48 54 128 86t173 32q230 0 369 -143t139 -381t-139 -381t-369 -143q-177 0 -301 118v-106h-225zM379 512q0 -134 81.5 -220.5t213.5 -86.5t214.5 87t82.5 220t-82.5 220t-214.5 87t-213.5 -86.5t-81.5 -220.5z" />
<glyph unicode="c" horiz-adv-x="1210" d="M84 512q0 226 149 375t375 149q223 0 375 -155l-166 -150q-85 92 -209 92q-132 0 -213.5 -86.5t-81.5 -224.5t81.5 -224.5t213.5 -86.5q131 0 214 86.5t83 224.5h225q0 -224 -149.5 -374t-372.5 -150q-226 0 -375 149t-149 375z" />
<glyph unicode="d" horiz-adv-x="1275" d="M84 512q0 238 139 381t369 143q93 0 173 -32t128 -86v516l225 24v-1458h-225v106q-124 -118 -301 -118q-230 0 -369 143t-139 381zM305 512q0 -133 82.5 -220t214.5 -87t213.5 86.5t81.5 220.5t-81.5 220.5t-213.5 86.5t-214.5 -87t-82.5 -220z" />
<glyph unicode="e" horiz-adv-x="1210" d="M84 512q0 143 69 263.5t188.5 190.5t262.5 70t262.5 -70t188.5 -190.5t69 -263.5q0 -40 -6 -78h-796q19 -99 99.5 -166t188.5 -67q168 0 232 98h268q-53 -140 -190 -225.5t-310 -85.5q-146 0 -267 70t-190 190t-69 264zM332 635h545q-25 81 -101.5 136.5t-171.5 55.5 t-171 -55.5t-101 -136.5z" />
<glyph unicode="f" horiz-adv-x="847" d="M72 811v213h207v156q0 90 40 151.5t100.5 88t135.5 26.5q146 0 221 -94l-151 -150q-19 31 -60 31q-28 0 -44.5 -18.5t-16.5 -49.5v-141h327v-213h-327v-811h-225v811h-207z" />
<glyph unicode="g" horiz-adv-x="1097" d="M63 -133h234q25 -81 85 -129.5t157 -48.5q113 0 181 72t68 188t-68 187t-181 71q-72 0 -133 -37.5t-91 -97.5l-163 161q44 58 100 89q-137 118 -137 299q0 176 116 295.5t295 119.5q130 0 209 -59v47h226v-403q0 -186 -138 -299q93 -65 144 -162t51 -211 q0 -211 -137 -342t-342 -131q-187 0 -316 108t-160 283zM340 621q0 -90 56 -145.5t143 -55.5q86 0 141 55.5t55 145.5q0 91 -55 146.5t-141 55.5q-87 0 -143 -55.5t-56 -146.5z" />
<glyph unicode="h" horiz-adv-x="1208" d="M158 0v1434l225 24v-551q106 129 293 129q185 0 289 -110t104 -312v-614h-225v565q0 258 -223 258q-108 0 -173 -72t-65 -186v-565h-225z" />
<glyph unicode="i" horiz-adv-x="540" d="M119 1292q0 64 44 109t107 45t107.5 -45t44.5 -109t-44.5 -108.5t-107.5 -44.5t-107 44.5t-44 108.5zM158 0v1024h225v-1024h-225z" />
<glyph unicode="j" horiz-adv-x="540" d="M119 1292q0 64 44 109t107 45t107.5 -45t44.5 -109t-44.5 -108.5t-107.5 -44.5t-107 44.5t-44 108.5zM158 -537v1561h225v-1536z" />
<glyph unicode="k" horiz-adv-x="1099" d="M158 0v1434l225 24v-780l233 346h258l-215 -307l426 -717h-256l-309 522l-137 -198v-324h-225z" />
<glyph unicode="l" horiz-adv-x="540" d="M158 0v1434l225 24v-1458h-225z" />
<glyph unicode="m" horiz-adv-x="1701" d="M158 0v1024h225v-117q42 59 112.5 94t153.5 35q183 0 269 -141q66 69 136.5 105t172.5 36q161 0 248.5 -90t87.5 -274v-672h-226v614q0 101 -46 155t-136 54q-80 0 -131 -56t-51 -153v-614h-225v614q0 100 -47 154.5t-136 54.5q-80 0 -131 -56t-51 -153v-614h-225z" />
<glyph unicode="n" horiz-adv-x="1196" d="M158 0v1024h225v-117q41 54 112.5 91.5t168.5 37.5q190 0 291.5 -109t101.5 -313v-614h-226v565q0 133 -55.5 195.5t-167.5 62.5q-108 0 -166.5 -70.5t-58.5 -187.5v-565h-225z" />
<glyph unicode="o" d="M84 512q0 148 67.5 267.5t187.5 188t269 68.5t269.5 -68.5t188 -188t67.5 -267.5t-67.5 -267.5t-188 -188t-269.5 -68.5t-269 68.5t-187.5 188t-67.5 267.5zM313 512q0 -134 82 -220.5t213 -86.5t213 86.5t82 220.5t-82 220.5t-213 86.5t-213 -86.5t-82 -220.5z" />
<glyph unicode="p" horiz-adv-x="1275" d="M158 -537v1561h225v-106q124 118 301 118q230 0 369 -143t139 -381t-139 -381t-369 -143q-93 0 -173 32t-128 86v-618zM379 512q0 -134 81.5 -220.5t213.5 -86.5t214.5 87t82.5 220t-82.5 220t-214.5 87t-213.5 -86.5t-81.5 -220.5z" />
<glyph unicode="q" horiz-adv-x="1275" d="M84 512q0 238 139 381t369 143q177 0 301 -118v106h225v-1536l-225 -25v643q-48 -54 -128 -86t-173 -32q-230 0 -369 143t-139 381zM305 512q0 -133 82.5 -220t214.5 -87t213.5 86.5t81.5 220.5t-81.5 220.5t-213.5 86.5t-214.5 -87t-82.5 -220z" />
<glyph unicode="r" horiz-adv-x="706" d="M158 0v1024h225v-106q41 56 102.5 87t161.5 31v-217h-20q-108 0 -176 -70.5t-68 -183.5v-565h-225z" />
<glyph unicode="s" horiz-adv-x="862" d="M78 338h215q0 -62 40.5 -99.5t94.5 -37.5q60 0 95.5 33.5t35.5 93.5q0 28 -9 49.5t-19.5 34t-35.5 24.5t-39 16.5t-49.5 13.5t-48.5 13q-89 25 -151 93t-62 182q0 122 82 202t201 80q155 0 244 -131l-140 -137q-27 68 -90 68q-38 0 -60 -24.5t-22 -57.5q0 -26 12 -44 t36.5 -29t49 -18.5t63 -17.5t65.5 -20q198 -74 198 -293q0 -153 -100 -248.5t-256 -95.5q-155 0 -252.5 100.5t-97.5 249.5z" />
<glyph unicode="t" horiz-adv-x="841" d="M39 811v213h207v410l225 24v-434h307v-213h-307v-811h-225v811h-207z" />
<glyph unicode="u" horiz-adv-x="1196" d="M139 410v614h226v-565q0 -133 55.5 -195.5t167.5 -62.5q108 0 166.5 70.5t58.5 187.5v565h225v-1024h-225v117q-41 -54 -112.5 -91.5t-168.5 -37.5q-190 0 -291.5 109t-101.5 313z" />
<glyph unicode="v" horiz-adv-x="995" d="M10 1024h242l246 -705l245 705h242l-377 -1024h-221z" />
<glyph unicode="w" horiz-adv-x="1511" d="M57 1024h230l270 -735l88 262l-178 473h221l68 -213l67 213h221l-178 -473l88 -262l271 735h229l-403 -1024h-205l-90 268l-90 -268h-205z" />
<glyph unicode="x" horiz-adv-x="1044" d="M14 0l383 606l-266 418h262l129 -213l129 213h262l-266 -418l383 -606h-262l-246 401l-246 -401h-262z" />
<glyph unicode="y" horiz-adv-x="1001" d="M12 1024h234l254 -596l254 596h233l-375 -844v-692l-225 -25v717z" />
<glyph unicode="z" horiz-adv-x="1099" d="M82 0v193l594 618h-557v213h858v-193l-594 -618h631v-213h-932z" />
<glyph unicode="{" horiz-adv-x="655" d="M63 621v192q54 0 82.5 31t28.5 88v285q0 193 116.5 307t305.5 114v-192q-101 0 -159 -65t-58 -164v-295q0 -77 -23 -121.5t-71 -83.5q48 -39 71 -83.5t23 -121.5v-295q0 -99 58 -164t159 -65v-193q-188 0 -305 114.5t-117 307.5v285q0 57 -28.5 88t-82.5 31z" />
<glyph unicode="|" horiz-adv-x="548" d="M172 -205v1843h205v-1843h-205z" />
<glyph unicode="}" horiz-adv-x="655" d="M59 -12q101 0 159 65t58 164v295q0 77 23 121.5t72 83.5q-49 39 -72 83.5t-23 121.5v295q0 99 -58 164t-159 65v192q189 0 305.5 -114t116.5 -307v-285q0 -57 28.5 -88t82.5 -31v-192q-54 0 -82.5 -31t-28.5 -88v-285q0 -193 -117 -307.5t-305 -114.5v193z" />
<glyph unicode="~" horiz-adv-x="1136" d="M102 614q0 107 66.5 168.5t179.5 61.5q49 0 217.5 -29t200.5 -29q25 0 41 12t16 33h211q0 -107 -66.5 -168t-179.5 -61q-49 0 -217 28.5t-200 28.5q-26 0 -42 -12t-16 -33h-211z" />
<glyph unicode="&#xa1;" horiz-adv-x="606" d="M160 780q0 63 44 108.5t107 45.5t107.5 -45.5t44.5 -108.5t-44.5 -108t-107.5 -45t-107 45t-44 108zM197 -512v1049h229v-1049h-229z" />
<glyph unicode="&#xa2;" horiz-adv-x="1210" d="M84 512q0 198 117.5 340t304.5 174v203h205v-203q152 -25 272 -145l-166 -150q-85 92 -209 92q-132 0 -213.5 -86.5t-81.5 -224.5t81.5 -224.5t213.5 -86.5q131 0 214 86.5t83 224.5h225q0 -197 -117.5 -339.5t-301.5 -174.5v-203h-205v203q-187 32 -304.5 174 t-117.5 340z" />
<glyph unicode="&#xa3;" horiz-adv-x="1191" d="M80 614v205h192v250q0 158 107 267.5t270 109.5q122 0 207 -58t135 -155l-155 -139q-69 135 -187 135q-75 0 -115 -44.5t-40 -123.5v-242h321v-205h-321v-274q0 -99 -31 -135h346q111 0 111 110h204q0 -134 -83 -224.5t-220 -90.5h-661v205q50 3 81 35.5t31 81.5v292 h-192z" />
<glyph unicode="&#xa4;" horiz-adv-x="1380" d="M90 281l176 178q-71 125 -71 262t71 262l-176 178l160 160l178 -178q115 74 262 74t262 -74l178 178l160 -160l-176 -178q72 -127 72 -262t-72 -262l176 -178l-160 -160l-178 178q-110 -74 -262 -74t-262 74l-178 -178zM424 721q0 -121 74 -200t192 -79t192 79t74 200 t-74 199.5t-192 78.5t-192 -78.5t-74 -199.5z" />
<glyph unicode="&#xa5;" horiz-adv-x="999" d="M12 1434h242l246 -572l245 572h242l-262 -574h231v-205h-323l-17 -41v-41h340v-204h-342v-369h-229v369h-342v204h340v41l-16 41h-324v205h231z" />
<glyph unicode="&#xa6;" horiz-adv-x="548" d="M172 -205v807h205v-807h-205zM172 831v807h205v-807h-205z" />
<glyph unicode="&#xa7;" horiz-adv-x="1101" d="M82 -51h229q0 -107 61.5 -181.5t170.5 -74.5q108 0 169.5 69t61.5 187q0 52 -15.5 91.5t-37.5 63.5t-63.5 45t-75.5 32t-93.5 30t-97.5 33q-102 38 -163.5 122t-61.5 199q0 158 108 252q-49 44 -80.5 111t-31.5 145q0 164 110.5 268.5t270.5 104.5q114 0 200.5 -47 t139.5 -137l-154 -154q-26 59 -71.5 90t-102.5 31q-70 0 -117 -42.5t-47 -109.5q0 -28 7.5 -50t25 -39t36 -29.5t51 -25.5t59 -22t71 -24t76.5 -27q282 -102 282 -405q0 -140 -67 -252q72 -106 72 -248q0 -217 -129.5 -348t-331.5 -131q-131 0 -237.5 65t-165 173.5 t-58.5 234.5zM391 578q0 -28 7.5 -50t25 -39.5t36 -30t51 -25.5t59 -22t71 -24t76.5 -27l37 -16q24 57 24 109q0 94 -46.5 142t-139.5 81q-117 38 -121 39q-36 -19 -58 -55.5t-22 -81.5z" />
<glyph unicode="&#xa8;" horiz-adv-x="841" d="M33 1333q0 64 44 109t107 45t107.5 -45t44.5 -109t-44.5 -108.5t-107.5 -44.5t-107 44.5t-44 108.5zM506 1333q0 64 44 109t107 45t107.5 -45t44.5 -109t-44.5 -108.5t-107.5 -44.5t-107 44.5t-44 108.5z" />
<glyph unicode="&#xa9;" horiz-adv-x="1597" d="M90 717q0 149 54 283.5t147 232.5t225.5 155.5t282.5 57.5q200 0 363 -98t254 -264.5t91 -366.5t-91 -366.5t-254 -264.5t-363 -98q-150 0 -282.5 57.5t-225.5 155.5t-147 232.5t-54 283.5zM244 717q0 -161 72 -295.5t199.5 -212.5t283.5 -78t283.5 78t199.5 212.5 t72 295.5t-72 295.5t-199.5 212.5t-283.5 78t-283.5 -78t-199.5 -212.5t-72 -295.5zM342 717q0 203 130.5 341t330.5 138q213 0 350 -174l-104 -107q-43 64 -106.5 101t-139.5 37q-146 0 -226.5 -94t-80.5 -242t80.5 -242t226.5 -94q114 0 199 76.5t104 191.5h154 q-24 -174 -152.5 -292.5t-304.5 -118.5q-200 0 -330.5 138t-130.5 341z" />
<glyph unicode="&#xaa;" horiz-adv-x="817" d="M90 1126q0 139 86.5 229.5t222.5 90.5q60 0 107 -23.5t69 -52.5v64h138v-615h-138v64q-64 -72 -176 -72q-136 0 -222.5 88.5t-86.5 226.5zM127 614v119h586v-119h-586zM223 1126q0 -76 51 -130t129 -54q76 0 125.5 53.5t49.5 130.5q0 78 -49.5 133.5t-125.5 55.5 q-78 0 -129 -56t-51 -133z" />
<glyph unicode="&#xab;" horiz-adv-x="1241" d="M80 614l510 512l145 -143l-368 -369l368 -368l-145 -144zM522 614l510 512l146 -143l-369 -369l369 -368l-146 -144z" />
<glyph unicode="&#xac;" horiz-adv-x="1175" d="M117 410v204h936v-409h-213v205h-723z" />
<glyph unicode="&#xad;" horiz-adv-x="942" d="M117 573v205h702v-205h-702z" />
<glyph unicode="&#xae;" horiz-adv-x="1597" d="M90 717q0 149 54 283.5t147 232.5t225.5 155.5t282.5 57.5q200 0 363 -98t254 -264.5t91 -366.5t-91 -366.5t-254 -264.5t-363 -98q-150 0 -282.5 57.5t-225.5 155.5t-147 232.5t-54 283.5zM244 717q0 -161 72 -295.5t199.5 -212.5t283.5 -78t283.5 78t199.5 212.5 t72 295.5t-72 295.5t-199.5 212.5t-283.5 78t-283.5 -78t-199.5 -212.5t-72 -295.5zM563 262v903h266q108 0 184.5 -72t76.5 -192q0 -103 -59.5 -171.5t-147.5 -86.5l207 -381h-166l-195 375h-12v-375h-154zM717 780h100q58 0 88.5 32.5t30.5 88.5t-30.5 88.5t-88.5 32.5 h-100v-242z" />
<glyph unicode="&#xaf;" horiz-adv-x="813" d="M84 1536v205h645v-205h-645z" />
<glyph unicode="&#xb0;" horiz-adv-x="749" d="M119 1190q0 108 74 182t182 74t182 -74t74 -182t-74 -182t-182 -74t-182 74t-74 182zM287 1190q0 -37 25 -62.5t63 -25.5t63 25.5t25 62.5t-25 62.5t-63 25.5t-63 -25.5t-25 -62.5z" />
<glyph unicode="&#xb1;" horiz-adv-x="1171" d="M117 0v205h932v-205h-932zM117 668v204h358v365h215v-365h359v-204h-359v-365h-215v365h-358z" />
<glyph unicode="&#xb2;" horiz-adv-x="655" d="M111 819v121q0 152 127 207q16 7 40 15t37.5 13.5t28 14t21 21.5t6.5 32q0 27 -19.5 46.5t-50.5 19.5q-29 0 -51 -19.5t-33 -50.5l-94 92q28 53 77.5 84t108.5 31q87 0 144 -59t57 -136q0 -78 -40 -123.5t-116 -70.5q-55 -17 -79.5 -36t-24.5 -56v-11h260v-135h-399z" />
<glyph unicode="&#xb3;" horiz-adv-x="665" d="M111 1024h137q1 -36 23 -59t53 -23q35 0 55 22.5t20 55.5q0 34 -21 56t-54 22h-37v127h32q19 0 30 12.5t11 30.5q0 19 -11 31t-30 12q-31 0 -45 -29l-92 90q22 32 63.5 53t84.5 21q81 0 125.5 -44t44.5 -120q0 -30 -13 -61t-34 -50q86 -52 86 -151t-61 -156t-154 -57 q-98 0 -154 61t-59 156z" />
<glyph unicode="&#xb4;" horiz-adv-x="684" d="M84 1354l494 133l55 -199l-494 -133z" />
<glyph unicode="&#xb5;" horiz-adv-x="1214" d="M158 -537v1561h225v-565q0 -133 55.5 -195.5t167.5 -62.5q108 0 166.5 70.5t58.5 187.5v565h226v-1024h-226v117q-42 -54 -112.5 -91.5t-167.5 -37.5q-92 0 -168 26v-526z" />
<glyph unicode="&#xb6;" horiz-adv-x="1406" d="M106 979q0 130 61.5 234.5t167 162.5t234.5 58h717v-217h-156v-1729l-229 -25v1061h-102v-1036l-230 -25v1061q-129 0 -234.5 58t-167 162.5t-61.5 234.5zM336 979q0 -106 66.5 -172t166.5 -66v476q-100 0 -166.5 -66t-66.5 -172zM799 741h102v476h-102v-476z" />
<glyph unicode="&#xb7;" horiz-adv-x="598" d="M147 717q0 63 44.5 108t107.5 45t107.5 -45t44.5 -108t-44.5 -108.5t-107.5 -45.5t-107.5 45.5t-44.5 108.5z" />
<glyph unicode="&#xb8;" horiz-adv-x="503" d="M20 -293h168q0 -28 18 -45.5t46 -17.5q26 0 43.5 17.5t17.5 45.5q0 34 -19 55t-56 21h-154l129 217h164l-47 -82q65 -13 109 -67t44 -144q0 -95 -68 -163t-163 -68t-163.5 68t-68.5 163z" />
<glyph unicode="&#xb9;" horiz-adv-x="362" d="M102 819v615l140 12v-627h-140z" />
<glyph unicode="&#xba;" horiz-adv-x="811" d="M90 1130q0 135 90 225.5t226 90.5t225.5 -90.5t89.5 -225.5q0 -134 -89.5 -224.5t-225.5 -90.5t-226 90.5t-90 224.5zM131 614v119h557v-119h-557zM227 1130q0 -80 50 -132t129 -52q78 0 127 52t49 132q0 82 -49 134.5t-127 52.5q-79 0 -129 -52.5t-50 -134.5z" />
<glyph unicode="&#xbb;" horiz-adv-x="1241" d="M63 246l369 368l-369 369l146 143l510 -512l-510 -512zM506 246l368 368l-368 369l145 143l510 -512l-510 -512z" />
<glyph unicode="&#xbc;" horiz-adv-x="1746" d="M137 86l1360 1360l98 -98l-1359 -1360zM385 819v615l139 12v-627h-139zM1116 207v407l139 13v-285h113v195h139v-195h62v-135h-62v-207h-139v207h-252z" />
<glyph unicode="&#xbd;" horiz-adv-x="1746" d="M137 86l1360 1360l98 -98l-1359 -1360zM385 819v615l139 12v-627h-139zM1077 0h400v135h-260v10q0 37 24.5 56.5t79.5 36.5q76 25 116 70.5t40 123.5q0 77 -57 136t-144 59q-59 0 -108.5 -31t-77.5 -84l94 -92q25 69 84 69q31 0 50 -19t19 -46q0 -19 -6.5 -32t-21 -21.5 t-28 -14t-37.5 -13.5t-40 -15q-127 -55 -127 -207v-121z" />
<glyph unicode="&#xbe;" horiz-adv-x="1746" d="M137 86l1360 1360l98 -98l-1359 -1360zM248 1024h137q1 -36 23 -59t53 -23q35 0 55.5 23t20.5 55q0 34 -21 56t-55 22h-37v127h33q19 0 30 12.5t11 30.5q0 19 -11 31t-30 12q-31 0 -45 -29l-93 90q22 32 63.5 53t84.5 21q81 0 125.5 -44t44.5 -120q0 -30 -13 -61t-34 -50 q86 -52 86 -151t-61 -156t-154 -57q-98 0 -154 61t-59 156zM1116 207v407l139 13v-285h113v195h139v-195h62v-135h-62v-207h-139v207h-252z" />
<glyph unicode="&#xbf;" horiz-adv-x="1046" d="M84 -94q0 -187 124.5 -308.5t332.5 -121.5q127 0 233 56t170 162.5t64 242.5h-230q0 -110 -66.5 -177t-168.5 -67q-105 0 -168.5 60t-63.5 159q0 88 40 138.5t143 107.5q51 29 89 58t75 73.5t57 107t20 140.5h-229q0 -38 -9 -69t-21 -51t-37.5 -41.5t-44.5 -33t-57 -34 t-61 -36.5q-46 -29 -78.5 -60t-59.5 -74t-40.5 -101t-13.5 -131zM469 780q0 64 44.5 109t107.5 45t107 -45t44 -109t-44 -108.5t-107 -44.5t-107.5 44.5t-44.5 108.5z" />
<glyph unicode="&#xc0;" horiz-adv-x="1331" d="M20 0l531 1434h229l531 -1434h-240l-86 236h-639l-86 -236h-240zM381 1710l55 199l494 -133l-56 -199zM422 453h487l-243 673z" />
<glyph unicode="&#xc1;" horiz-adv-x="1331" d="M20 0l531 1434h229l531 -1434h-240l-86 236h-639l-86 -236h-240zM373 1776l493 133l56 -199l-494 -133zM422 453h487l-243 673z" />
<glyph unicode="&#xc2;" horiz-adv-x="1331" d="M20 0l531 1434h229l531 -1434h-240l-86 236h-639l-86 -236h-240zM291 1642l375 375l374 -375l-135 -137l-239 240l-240 -240zM422 453h487l-243 673z" />
<glyph unicode="&#xc3;" horiz-adv-x="1331" d="M20 0l531 1434h229l531 -1434h-240l-86 236h-639l-86 -236h-240zM272 1585q15 107 83.5 167t181.5 60q50 0 96 -18t82 -35.5t63 -17.5q60 0 76 53h205q-15 -107 -83 -167t-181 -60q-50 0 -96 17.5t-82.5 35.5t-63.5 18q-60 0 -76 -53h-205zM422 453h487l-243 673z" />
<glyph unicode="&#xc4;" horiz-adv-x="1331" d="M20 0l531 1434h229l531 -1434h-240l-86 236h-639l-86 -236h-240zM279 1731q0 64 44 108.5t107 44.5t107.5 -44.5t44.5 -108.5t-44.5 -109t-107.5 -45t-107 45t-44 109zM422 453h487l-243 673zM752 1731q0 64 44 108.5t107 44.5t107.5 -44.5t44.5 -108.5t-44.5 -109 t-107.5 -45t-107 45t-44 109z" />
<glyph unicode="&#xc5;" horiz-adv-x="1331" d="M20 0l531 1434h229l531 -1434h-240l-86 236h-639l-86 -236h-240zM422 453h487l-243 673zM461 1741q0 85 59 145t146 60t145.5 -59.5t58.5 -145.5t-58.5 -145.5t-145.5 -59.5t-146 60t-59 145zM608 1741q0 -25 16.5 -41.5t41.5 -16.5t41 16.5t16 41.5t-16 41t-41 16 t-41.5 -16t-16.5 -41z" />
<glyph unicode="&#xc6;" horiz-adv-x="1683" d="M20 0l531 1434h1026v-217h-682v-386h338v-217h-338v-397h694v-217h-923v236h-320l-86 -236h-240zM422 453h244v673z" />
<glyph unicode="&#xc7;" horiz-adv-x="1597" d="M94 717q0 199 91.5 366t255 265t362.5 98q168 0 306 -69.5t239 -192.5l-160 -160q-141 205 -385 205q-137 0 -246 -68t-169 -185t-60 -259t60 -259t169 -185t246 -68q208 0 341.5 145t133.5 367h233q0 -184 -79.5 -342t-221 -259t-317.5 -122l-43 -76q66 -13 110 -67 t44 -144q0 -95 -68.5 -163t-163.5 -68t-163 68t-68 163h168q0 -28 17.5 -45.5t45.5 -17.5q26 0 44 18t18 45q0 34 -19.5 55t-56.5 21h-154l123 209q-181 18 -326 118.5t-226 260t-81 346.5z" />
<glyph unicode="&#xc8;" horiz-adv-x="1189" d="M172 0v1434h899v-217h-670v-386h326v-217h-326v-397h682v-217h-911zM373 1710l55 199l494 -133l-56 -199z" />
<glyph unicode="&#xc9;" horiz-adv-x="1189" d="M172 0v1434h899v-217h-670v-386h326v-217h-326v-397h682v-217h-911zM379 1776l493 133l56 -199l-494 -133z" />
<glyph unicode="&#xca;" horiz-adv-x="1189" d="M172 0v1434h899v-217h-670v-386h326v-217h-326v-397h682v-217h-911zM242 1663l374 375l375 -375l-135 -137l-240 239l-239 -239z" />
<glyph unicode="&#xcb;" horiz-adv-x="1189" d="M172 0v1434h899v-217h-670v-386h326v-217h-326v-397h682v-217h-911zM240 1731q0 64 44 108.5t107 44.5t107.5 -44.5t44.5 -108.5t-44.5 -109t-107.5 -45t-107 45t-44 109zM713 1731q0 64 44 108.5t107 44.5t107.5 -44.5t44.5 -108.5t-44.5 -109t-107.5 -45t-107 45 t-44 109z" />
<glyph unicode="&#xcc;" horiz-adv-x="864" d="M100 0v217h217v1000h-217v217h664v-217h-217v-1000h217v-217h-664zM160 1710l55 199l494 -133l-56 -199z" />
<glyph unicode="&#xcd;" horiz-adv-x="864" d="M100 0h664v217h-217v1000h217v217h-664v-217h217v-1000h-217v-217zM141 1776l494 133l55 -199l-493 -133z" />
<glyph unicode="&#xce;" horiz-adv-x="864" d="M59 1663l375 375l375 -375l-135 -137l-240 239l-239 -239zM100 0h664v217h-217v1000h217v217h-664v-217h217v-1000h-217v-217z" />
<glyph unicode="&#xcf;" horiz-adv-x="864" d="M43 1731q0 64 44.5 108.5t107.5 44.5t107 -44.5t44 -108.5t-44 -109t-107 -45t-107.5 45t-44.5 109zM100 0h664v217h-217v1000h217v217h-664v-217h217v-1000h-217v-217zM516 1731q0 64 44.5 108.5t107.5 44.5t107 -44.5t44 -108.5t-44 -109t-107 -45t-107.5 45t-44.5 109 z" />
<glyph unicode="&#xd0;" horiz-adv-x="1501" d="M45 614v217h236v603h419q205 0 364.5 -86t251 -250t91.5 -381t-91.5 -381t-251 -250t-364.5 -86h-419v614h-236zM510 217h197q98 0 182.5 33.5t148 95.5t100 157.5t36.5 213.5t-36.5 213.5t-100 157.5t-148 95.5t-182.5 33.5h-197v-386h235v-217h-235v-397z" />
<glyph unicode="&#xd1;" horiz-adv-x="1288" d="M172 0v1434h254l461 -988v988h229v-1434h-254l-461 987v-987h-229zM250 1585q15 107 83 167t181 60q50 0 96 -18t82.5 -35.5t63.5 -17.5q59 0 75 53h205q-15 -107 -83 -167t-181 -60q-50 0 -96 17.5t-82.5 35.5t-63.5 18q-59 0 -75 -53h-205z" />
<glyph unicode="&#xd2;" horiz-adv-x="1605" d="M94 717q0 199 91.5 366t255 265t362.5 98t362 -98t254.5 -265t91.5 -366t-91.5 -366t-254.5 -265t-362 -98t-362.5 98t-255 265t-91.5 366zM328 717q0 -142 60 -259t169 -185t246 -68t246 68t169 185t60 259t-60 259t-169 185t-246 68t-246 -68t-169 -185t-60 -259z M532 1698l56 198l493 -133l-55 -198z" />
<glyph unicode="&#xd3;" horiz-adv-x="1605" d="M94 717q0 -199 91.5 -366t255 -265t362.5 -98t362 98t254.5 265t91.5 366t-91.5 366t-254.5 265t-362 98t-362.5 -98t-255 -265t-91.5 -366zM328 717q0 142 60 259t169 185t246 68t246 -68t169 -185t60 -259t-60 -259t-169 -185t-246 -68t-246 68t-169 185t-60 259z M498 1776l493 133l56 -199l-494 -133z" />
<glyph unicode="&#xd4;" horiz-adv-x="1605" d="M94 717q0 -199 91.5 -366t255 -265t362.5 -98t362 98t254.5 265t91.5 366t-91.5 366t-254.5 265t-362 98t-362.5 -98t-255 -265t-91.5 -366zM328 717q0 142 60 259t169 185t246 68t246 -68t169 -185t60 -259t-60 -259t-169 -185t-246 -68t-246 68t-169 185t-60 259z M428 1653l375 375l375 -375l-136 -137l-239 239l-240 -239z" />
<glyph unicode="&#xd5;" horiz-adv-x="1605" d="M94 717q0 -199 91.5 -366t255 -265t362.5 -98t362 98t254.5 265t91.5 366t-91.5 366t-254.5 265t-362 98t-362.5 -98t-255 -265t-91.5 -366zM328 717q0 142 60 259t169 185t246 68t246 -68t169 -185t60 -259t-60 -259t-169 -185t-246 -68t-246 68t-169 185t-60 259z M410 1585q15 107 83 167t181 60q50 0 96 -18t82 -35.5t63 -17.5q60 0 76 53h205q-15 -107 -83 -167t-181 -60q-50 0 -96 17.5t-82.5 35.5t-63.5 18q-60 0 -76 -53h-204z" />
<glyph unicode="&#xd6;" horiz-adv-x="1605" d="M94 717q0 -199 91.5 -366t255 -265t362.5 -98t362 98t254.5 265t91.5 366t-91.5 366t-254.5 265t-362 98t-362.5 -98t-255 -265t-91.5 -366zM328 717q0 142 60 259t169 185t246 68t246 -68t169 -185t60 -259t-60 -259t-169 -185t-246 -68t-246 68t-169 185t-60 259z M416 1731q0 64 44 108.5t107 44.5t107.5 -44.5t44.5 -108.5t-44.5 -109t-107.5 -45t-107 45t-44 109zM889 1731q0 64 44 108.5t107 44.5t107.5 -44.5t44.5 -108.5t-44.5 -109t-107.5 -45t-107 45t-44 109z" />
<glyph unicode="&#xd7;" horiz-adv-x="1384" d="M119 143l430 430l-430 431l145 143l428 -428l428 428l146 -143l-430 -431l430 -430l-146 -143l-428 428l-428 -428z" />
<glyph unicode="&#xd8;" horiz-adv-x="1605" d="M94 717q0 199 91.5 366t255 265t362.5 98q96 0 188 -25l45 105l187 -80l-45 -105q155 -98 244 -263t89 -361q0 -199 -91.5 -366t-254.5 -265t-362 -98q-101 0 -189 24l-45 -104l-186 80l45 104q-155 98 -244.5 263.5t-89.5 361.5zM328 717q0 -130 49 -238.5t139 -177.5 l389 918q-41 10 -102 10q-137 0 -246 -68t-169 -185t-60 -259zM700 215q41 -10 103 -10q137 0 246 68t169 185t60 259q0 129 -49.5 238t-138.5 178z" />
<glyph unicode="&#xd9;" horiz-adv-x="1200" d="M133 461v973h229v-985q0 -109 65 -176.5t173 -67.5t173 67.5t65 176.5v985h229v-973q0 -209 -132 -341t-335 -132t-335 132t-132 341zM338 1710l55 199l494 -133l-56 -199z" />
<glyph unicode="&#xda;" horiz-adv-x="1200" d="M133 461v973h229v-985q0 -109 65 -176.5t173 -67.5t173 67.5t65 176.5v985h229v-973q0 -209 -132 -341t-335 -132t-335 132t-132 341zM313 1776l494 133l55 -199l-493 -133z" />
<glyph unicode="&#xdb;" horiz-adv-x="1200" d="M133 461v973h229v-985q0 -109 65 -176.5t173 -67.5t173 67.5t65 176.5v985h229v-973q0 -209 -132 -341t-335 -132t-335 132t-132 341zM225 1663l375 375l375 -375l-135 -137l-240 239l-240 -239z" />
<glyph unicode="&#xdc;" horiz-adv-x="1200" d="M133 461v973h229v-985q0 -109 65 -176.5t173 -67.5t173 67.5t65 176.5v985h229v-973q0 -209 -132 -341t-335 -132t-335 132t-132 341zM213 1731q0 64 44.5 108.5t107.5 44.5t107 -44.5t44 -108.5t-44 -109t-107 -45t-107.5 45t-44.5 109zM686 1731q0 64 44.5 108.5 t107.5 44.5t107 -44.5t44 -108.5t-44 -109t-107 -45t-107.5 45t-44.5 109z" />
<glyph unicode="&#xdd;" horiz-adv-x="1032" d="M10 1434h242l264 -586l264 586h242l-391 -820v-614h-230v614zM233 1776l494 133l55 -199l-493 -133z" />
<glyph unicode="&#xde;" horiz-adv-x="1173" d="M172 0v1434h229v-263h248q208 0 335.5 -122.5t127.5 -331.5t-127.5 -332t-335.5 -123h-248v-262h-229zM401 479h238q116 0 180 63.5t64 174.5t-64 174t-180 63h-238v-475z" />
<glyph unicode="&#xdf;" horiz-adv-x="1089" d="M158 -537v1606q0 158 109.5 267.5t275.5 109.5q180 0 280.5 -104t100.5 -273q0 -149 -115 -252q89 -55 143 -149.5t54 -212.5q0 -217 -126.5 -336t-336.5 -119h-90v213h75q116 0 186 67t70 175t-70 173.5t-186 65.5h-75v213h90q70 0 114.5 43t44.5 119q0 77 -44.5 120.5 t-114.5 43.5q-69 0 -114.5 -45.5t-45.5 -118.5v-1581z" />
<glyph unicode="&#xe0;" horiz-adv-x="1277" d="M84 512q0 229 146.5 376.5t367.5 147.5q94 0 175.5 -36t117.5 -82v106h229v-1024h-229v106q-36 -46 -116.5 -82t-176.5 -36q-221 0 -367.5 147.5t-146.5 376.5zM305 512q0 -127 87 -217t214 -90q124 0 208.5 90t84.5 217t-84.5 217t-208.5 90q-127 0 -214 -90t-87 -217z M387 1288l55 199l494 -133l-55 -199z" />
<glyph unicode="&#xe1;" horiz-adv-x="1277" d="M84 512q0 229 146.5 376.5t367.5 147.5q94 0 175.5 -36t117.5 -82v106h229v-1024h-229v106q-36 -46 -116.5 -82t-176.5 -36q-221 0 -367.5 147.5t-146.5 376.5zM305 512q0 -127 87 -217t214 -90q124 0 208.5 90t84.5 217t-84.5 217t-208.5 90q-127 0 -214 -90t-87 -217z M360 1356l494 133l55 -199l-493 -133z" />
<glyph unicode="&#xe2;" horiz-adv-x="1277" d="M84 512q0 229 146.5 376.5t367.5 147.5q94 0 175.5 -36t117.5 -82v106h229v-1024h-229v106q-36 -46 -116.5 -82t-176.5 -36q-221 0 -367.5 147.5t-146.5 376.5zM305 512q0 -127 87 -217t214 -90q124 0 208.5 90t84.5 217t-84.5 217t-208.5 90q-127 0 -214 -90t-87 -217z M309 1233l375 375l375 -375l-135 -137l-240 239l-240 -239z" />
<glyph unicode="&#xe3;" horiz-adv-x="1277" d="M84 512q0 229 146.5 376.5t367.5 147.5q94 0 175.5 -36t117.5 -82v106h229v-1024h-229v106q-36 -46 -116.5 -82t-176.5 -36q-221 0 -367.5 147.5t-146.5 376.5zM240 1176q15 107 83 167t181 60q50 0 96 -18t82 -36t63 -18q60 0 76 53h205q-15 -107 -83 -167t-181 -60 q-50 0 -96 18t-82.5 36t-63.5 18q-60 0 -76 -53h-204zM305 512q0 -127 87 -217t214 -90q124 0 208.5 90t84.5 217t-84.5 217t-208.5 90q-127 0 -214 -90t-87 -217z" />
<glyph unicode="&#xe4;" horiz-adv-x="1277" d="M84 512q0 229 146.5 376.5t367.5 147.5q94 0 175.5 -36t117.5 -82v106h229v-1024h-229v106q-36 -46 -116.5 -82t-176.5 -36q-221 0 -367.5 147.5t-146.5 376.5zM260 1333q0 64 44.5 109t107.5 45t107 -45t44 -109t-44 -108.5t-107 -44.5t-107.5 44.5t-44.5 108.5z M305 512q0 -127 87 -217t214 -90q124 0 208.5 90t84.5 217t-84.5 217t-208.5 90q-127 0 -214 -90t-87 -217zM733 1333q0 64 44.5 109t107.5 45t107 -45t44 -109t-44 -108.5t-107 -44.5t-107.5 44.5t-44.5 108.5z" />
<glyph unicode="&#xe5;" horiz-adv-x="1277" d="M84 512q0 229 146.5 376.5t367.5 147.5q94 0 175.5 -36t117.5 -82v106h229v-1024h-229v106q-36 -46 -116.5 -82t-176.5 -36q-221 0 -367.5 147.5t-146.5 376.5zM305 512q0 -127 87 -217t214 -90q124 0 208.5 90t84.5 217t-84.5 217t-208.5 90q-127 0 -214 -90t-87 -217z M401 1331q0 85 59 145t146 60t146 -60t59 -145t-59 -145t-146 -60t-146 60t-59 145zM549 1331q0 -25 16 -41t41 -16t41.5 16t16.5 41t-16.5 41.5t-41.5 16.5t-41 -16.5t-16 -41.5z" />
<glyph unicode="&#xe6;" horiz-adv-x="1746" d="M82 340q0 158 103.5 259t258.5 101q112 0 181 -65v53q0 67 -35.5 101t-102.5 34q-83 0 -137 -88l-145 146q47 72 124 113.5t169 41.5q200 0 290 -133q149 133 357 133q179 0 311 -98.5t186 -259.5l-692 -399q85 -78 195 -78q125 0 199.5 69.5t93.5 192.5h229 q-22 -213 -168 -344t-354 -131q-167 0 -295 86v-74h-225v63q-63 -75 -189 -75q-150 0 -252 98t-102 254zM307 346q0 -70 46.5 -111.5t117.5 -41.5t117.5 41.5t46.5 111.5t-46.5 112t-117.5 42t-117.5 -42t-46.5 -112zM850 512q0 -35 4 -51l487 280q-76 82 -196 82 q-131 0 -213 -90.5t-82 -220.5z" />
<glyph unicode="&#xe7;" horiz-adv-x="1210" d="M84 512q0 226 149 375t375 149q223 0 375 -155l-166 -150q-85 92 -209 92q-132 0 -213.5 -86.5t-81.5 -224.5t81.5 -224.5t213.5 -86.5q131 0 214 86.5t83 224.5h225q0 -190 -110 -330t-285 -180l-49 -84q66 -13 110 -67t44 -144q0 -95 -68.5 -163t-163.5 -68t-163 68 t-68 163h168q0 -28 17.5 -45.5t45.5 -17.5q26 0 44 18t18 45q0 34 -19.5 55t-56.5 21h-154l123 207q-210 15 -344.5 161t-134.5 361z" />
<glyph unicode="&#xe8;" horiz-adv-x="1210" d="M84 512q0 143 69 263.5t188.5 190.5t262.5 70t262.5 -70t188.5 -190.5t69 -263.5q0 -40 -6 -78h-796q19 -99 99.5 -166t188.5 -67q168 0 232 98h268q-53 -140 -190 -225.5t-310 -85.5q-146 0 -267 70t-190 190t-69 264zM332 635h545q-25 81 -101.5 136.5t-171.5 55.5 t-171 -55.5t-101 -136.5zM332 1288l55 199l494 -133l-56 -199z" />
<glyph unicode="&#xe9;" horiz-adv-x="1210" d="M84 512q0 143 69 263.5t188.5 190.5t262.5 70t262.5 -70t188.5 -190.5t69 -263.5q0 -40 -6 -78h-796q19 -99 99.5 -166t188.5 -67q168 0 232 98h268q-53 -140 -190 -225.5t-310 -85.5q-146 0 -267 70t-190 190t-69 264zM291 1354l493 133l56 -199l-494 -133zM332 635h545 q-25 81 -101.5 136.5t-171.5 55.5t-171 -55.5t-101 -136.5z" />
<glyph unicode="&#xea;" horiz-adv-x="1210" d="M84 512q0 143 69 263.5t188.5 190.5t262.5 70t262.5 -70t188.5 -190.5t69 -263.5q0 -40 -6 -78h-796q19 -99 99.5 -166t188.5 -67q168 0 232 98h268q-53 -140 -190 -225.5t-310 -85.5q-146 0 -267 70t-190 190t-69 264zM231 1233l375 375l375 -375l-135 -137l-240 239 l-239 -239zM332 635h545q-25 81 -101.5 136.5t-171.5 55.5t-171 -55.5t-101 -136.5z" />
<glyph unicode="&#xeb;" horiz-adv-x="1210" d="M84 512q0 143 69 263.5t188.5 190.5t262.5 70t262.5 -70t188.5 -190.5t69 -263.5q0 -40 -6 -78h-796q19 -99 99.5 -166t188.5 -67q168 0 232 98h268q-53 -140 -190 -225.5t-310 -85.5q-146 0 -267 70t-190 190t-69 264zM221 1333q0 64 44.5 109t107.5 45t107 -45t44 -109 t-44 -108.5t-107 -44.5t-107.5 44.5t-44.5 108.5zM332 635h545q-25 81 -101.5 136.5t-171.5 55.5t-171 -55.5t-101 -136.5zM694 1333q0 64 44.5 109t107.5 45t107 -45t44 -109t-44 -108.5t-107 -44.5t-107.5 44.5t-44.5 108.5z" />
<glyph unicode="&#xec;" horiz-adv-x="540" d="M-4 1288l55 199l494 -133l-56 -199zM158 0v1024h225v-1024h-225z" />
<glyph unicode="&#xed;" horiz-adv-x="540" d="M-4 1350l493 133l56 -199l-494 -133zM158 0v1024h225v-1024h-225z" />
<glyph unicode="&#xee;" horiz-adv-x="540" d="M-104 1233l374 375l375 -375l-135 -137l-240 239l-239 -239zM158 0v1024h225v-1024h-225z" />
<glyph unicode="&#xef;" horiz-adv-x="540" d="M-117 1333l152 154l151 -154l-151 -153zM158 0v1024h225v-1024h-225zM354 1333l152 154l151 -154l-151 -153z" />
<glyph unicode="&#xf0;" d="M84 512q0 143 68.5 263.5t187.5 190.5t260 70q42 0 96 -8l-57 107l-84 -45l-92 170l86 47l-119 229h229q27 -53 68 -129l82 45l92 -170l-82 -45l211 -397q30 -58 47 -95.5t36.5 -106t19.5 -126.5q0 -148 -70.5 -269t-190.5 -188t-264 -67q-220 0 -372 149.5t-152 374.5z M309 512q0 -138 83.5 -224.5t215.5 -86.5t215.5 86.5t83.5 224.5t-83.5 224.5t-215.5 86.5t-215.5 -86.5t-83.5 -224.5z" />
<glyph unicode="&#xf1;" horiz-adv-x="1196" d="M158 0v1024h225v-117q41 54 112.5 91.5t168.5 37.5q190 0 291.5 -109t101.5 -313v-614h-226v565q0 133 -55.5 195.5t-167.5 62.5q-108 0 -166.5 -70.5t-58.5 -187.5v-565h-225zM205 1176q15 107 83 167t181 60q50 0 96 -18t82.5 -36t63.5 -18q59 0 75 53h205 q-15 -107 -83 -167t-181 -60q-50 0 -96 18t-82.5 36t-63.5 18q-59 0 -75 -53h-205z" />
<glyph unicode="&#xf2;" d="M84 512q0 148 67.5 267.5t187.5 188t269 68.5t269.5 -68.5t188 -188t67.5 -267.5t-67.5 -267.5t-188 -188t-269.5 -68.5t-269 68.5t-187.5 188t-67.5 267.5zM313 512q0 -134 82 -220.5t213 -86.5t213 86.5t82 220.5t-82 220.5t-213 86.5t-213 -86.5t-82 -220.5zM352 1288 l56 199l493 -133l-55 -199z" />
<glyph unicode="&#xf3;" d="M84 512q0 148 67.5 267.5t187.5 188t269 68.5t269.5 -68.5t188 -188t67.5 -267.5t-67.5 -267.5t-188 -188t-269.5 -68.5t-269 68.5t-187.5 188t-67.5 267.5zM303 1354l494 133l55 -199l-494 -133zM313 512q0 -134 82 -220.5t213 -86.5t213 86.5t82 220.5t-82 220.5 t-213 86.5t-213 -86.5t-82 -220.5z" />
<glyph unicode="&#xf4;" d="M84 512q0 148 67.5 267.5t187.5 188t269 68.5t269.5 -68.5t188 -188t67.5 -267.5t-67.5 -267.5t-188 -188t-269.5 -68.5t-269 68.5t-187.5 188t-67.5 267.5zM233 1233l375 375l375 -375l-135 -137l-240 239l-239 -239zM313 512q0 -134 82 -220.5t213 -86.5t213 86.5 t82 220.5t-82 220.5t-213 86.5t-213 -86.5t-82 -220.5z" />
<glyph unicode="&#xf5;" d="M84 512q0 148 67.5 267.5t187.5 188t269 68.5t269.5 -68.5t188 -188t67.5 -267.5t-67.5 -267.5t-188 -188t-269.5 -68.5t-269 68.5t-187.5 188t-67.5 267.5zM199 1176q15 107 83 167t181 60q50 0 96 -18t82.5 -36t63.5 -18q59 0 75 53h205q-15 -107 -83 -167t-181 -60 q-50 0 -96 18t-82.5 36t-63.5 18q-60 0 -76 -53h-204zM313 512q0 -134 82 -220.5t213 -86.5t213 86.5t82 220.5t-82 220.5t-213 86.5t-213 -86.5t-82 -220.5z" />
<glyph unicode="&#xf6;" d="M84 512q0 148 67.5 267.5t187.5 188t269 68.5t269.5 -68.5t188 -188t67.5 -267.5t-67.5 -267.5t-188 -188t-269.5 -68.5t-269 68.5t-187.5 188t-67.5 267.5zM221 1333q0 64 44.5 109t107.5 45t107 -45t44 -109t-44 -108.5t-107 -44.5t-107.5 44.5t-44.5 108.5zM313 512 q0 -134 82 -220.5t213 -86.5t213 86.5t82 220.5t-82 220.5t-213 86.5t-213 -86.5t-82 -220.5zM694 1333q0 64 44.5 109t107.5 45t107 -45t44 -109t-44 -108.5t-107 -44.5t-107.5 44.5t-44.5 108.5z" />
<glyph unicode="&#xf7;" horiz-adv-x="1173" d="M117 614h934v205h-934v-205zM432 379q0 63 44.5 108t107.5 45t107 -45t44 -108t-44 -108.5t-107 -45.5t-107.5 45.5t-44.5 108.5zM432 1055q0 63 44.5 108t107.5 45t107 -45t44 -108t-44 -108.5t-107 -45.5t-107.5 45.5t-44.5 108.5z" />
<glyph unicode="&#xf8;" d="M84 512q0 148 67.5 267.5t187.5 188t269 68.5q51 0 109 -10l37 90l186 -80l-35 -84q106 -70 167 -185.5t61 -254.5q0 -148 -67.5 -267.5t-188 -188t-269.5 -68.5q-50 0 -108 10l-37 -90l-187 80l35 84q-106 70 -166.5 185.5t-60.5 254.5zM313 512q0 -142 88 -227l228 534 h-21q-131 0 -213 -86.5t-82 -220.5zM588 205h20q131 0 213 86.5t82 220.5q0 142 -88 227z" />
<glyph unicode="&#xf9;" horiz-adv-x="1196" d="M139 410v614h226v-565q0 -133 55.5 -195.5t167.5 -62.5q108 0 166.5 70.5t58.5 187.5v565h225v-1024h-225v117q-41 -54 -112.5 -91.5t-168.5 -37.5q-190 0 -291.5 109t-101.5 313zM317 1288l56 199l493 -133l-55 -199z" />
<glyph unicode="&#xfa;" horiz-adv-x="1196" d="M139 410v614h226v-565q0 -133 55.5 -195.5t167.5 -62.5q108 0 166.5 70.5t58.5 187.5v565h225v-1024h-225v117q-41 -54 -112.5 -91.5t-168.5 -37.5q-190 0 -291.5 109t-101.5 313zM307 1354l494 133l55 -199l-494 -133z" />
<glyph unicode="&#xfb;" horiz-adv-x="1196" d="M139 410v614h226v-565q0 -133 55.5 -195.5t167.5 -62.5q108 0 166.5 70.5t58.5 187.5v565h225v-1024h-225v117q-41 -54 -112.5 -91.5t-168.5 -37.5q-190 0 -291.5 109t-101.5 313zM211 1243l375 375l375 -375l-136 -137l-239 240l-240 -240z" />
<glyph unicode="&#xfc;" horiz-adv-x="1196" d="M139 410v614h226v-565q0 -133 55.5 -195.5t167.5 -62.5q108 0 166.5 70.5t58.5 187.5v565h225v-1024h-225v117q-41 -54 -112.5 -91.5t-168.5 -37.5q-190 0 -291.5 109t-101.5 313zM197 1333q0 64 44 109t107 45t107.5 -45t44.5 -109t-44.5 -108.5t-107.5 -44.5t-107 44.5 t-44 108.5zM670 1333q0 64 44 109t107 45t107.5 -45t44.5 -109t-44.5 -108.5t-107.5 -44.5t-107 44.5t-44 108.5z" />
<glyph unicode="&#xfd;" horiz-adv-x="1001" d="M12 1024h234l254 -596l254 596h233l-375 -844v-692l-225 -25v717zM217 1356l494 133l55 -199l-494 -133z" />
<glyph unicode="&#xfe;" horiz-adv-x="1257" d="M158 -537v1971l229 24v-540q43 52 122 85t171 33q221 0 367.5 -147.5t146.5 -376.5t-146.5 -376.5t-367.5 -147.5q-95 0 -171 33.5t-122 84.5v-618zM379 512q0 -126 85 -216.5t208 -90.5q126 0 213.5 90.5t87.5 216.5t-87.5 216.5t-213.5 90.5q-123 0 -208 -90.5 t-85 -216.5z" />
<glyph unicode="&#xff;" horiz-adv-x="1001" d="M12 1024h234l254 -596l254 596h233l-375 -844v-692l-225 -25v717zM113 1333q0 64 44 109t107 45t107.5 -45t44.5 -109t-44.5 -108.5t-107.5 -44.5t-107 44.5t-44 108.5zM586 1333q0 64 44 109t107 45t107.5 -45t44.5 -109t-44.5 -108.5t-107.5 -44.5t-107 44.5t-44 108.5 z" />
<glyph unicode="&#x152;" horiz-adv-x="2299" d="M94 717q0 199 91.5 366t255 265t362.5 98q277 0 479 -186v174h899v-217h-670v-386h326v-217h-326v-397h682v-217h-911v174q-199 -186 -479 -186q-199 0 -362.5 98t-255 265t-91.5 366zM328 717q0 -142 60 -259t169 -185t246 -68t246 68t169 185t60 259t-60 259t-169 185 t-246 68t-246 -68t-169 -185t-60 -259z" />
<glyph unicode="&#x153;" horiz-adv-x="2029" d="M84 512q0 148 67.5 267.5t187.5 188t269 68.5q127 0 232.5 -50t177.5 -140q72 89 178 139.5t231 50.5q179 0 311.5 -98.5t186.5 -259.5l-692 -399q85 -78 194 -78q125 0 199.5 69.5t93.5 192.5h230q-22 -213 -168.5 -344t-354.5 -131q-125 0 -231 50t-178 138 q-72 -89 -177.5 -138.5t-232.5 -49.5q-149 0 -269 68.5t-187.5 188t-67.5 267.5zM313 512q0 -134 82 -220.5t213 -86.5t213 86.5t82 220.5t-82 220.5t-213 86.5t-213 -86.5t-82 -220.5zM1133 512q0 -35 4 -51l487 280q-76 82 -197 82q-131 0 -212.5 -88t-81.5 -223z" />
<glyph unicode="&#x178;" horiz-adv-x="1032" d="M10 1434h242l264 -586l264 586h242l-391 -820v-614h-230v614zM129 1731q0 64 44.5 108.5t107.5 44.5t107 -44.5t44 -108.5t-44 -109t-107 -45t-107.5 45t-44.5 109zM602 1731q0 64 44.5 108.5t107.5 44.5t107 -44.5t44 -108.5t-44 -109t-107 -45t-107.5 45t-44.5 109z " />
<glyph unicode="&#x2c6;" horiz-adv-x="851" d="M51 1233l375 375l375 -375l-135 -137l-240 239l-240 -239z" />
<glyph unicode="&#x2dc;" horiz-adv-x="917" d="M84 1176q15 107 83 167t181 60q50 0 96 -18t82.5 -36t63.5 -18q60 0 76 53h204q-15 -107 -83 -167t-181 -60q-50 0 -96 18t-82 36t-63 18q-60 0 -76 -53h-205z" />
<glyph unicode="&#x2000;" horiz-adv-x="1019" />
<glyph unicode="&#x2001;" horiz-adv-x="2038" />
<glyph unicode="&#x2002;" horiz-adv-x="1019" />
<glyph unicode="&#x2003;" horiz-adv-x="2038" />
<glyph unicode="&#x2004;" horiz-adv-x="679" />
<glyph unicode="&#x2005;" horiz-adv-x="509" />
<glyph unicode="&#x2006;" horiz-adv-x="339" />
<glyph unicode="&#x2007;" horiz-adv-x="339" />
<glyph unicode="&#x2008;" horiz-adv-x="254" />
<glyph unicode="&#x2009;" horiz-adv-x="407" />
<glyph unicode="&#x200a;" horiz-adv-x="113" />
<glyph unicode="&#x2010;" horiz-adv-x="942" d="M117 573v205h702v-205h-702z" />
<glyph unicode="&#x2011;" horiz-adv-x="942" d="M117 573v205h702v-205h-702z" />
<glyph unicode="&#x2012;" horiz-adv-x="942" d="M117 573v205h702v-205h-702z" />
<glyph unicode="&#x2013;" horiz-adv-x="1183" d="M117 573v205h944v-205h-944z" />
<glyph unicode="&#x2014;" horiz-adv-x="1656" d="M117 573v205h1417v-205h-1417z" />
<glyph unicode="&#x2018;" horiz-adv-x="581" d="M33 1434h246l258 -437l-189 -108z" />
<glyph unicode="&#x2019;" horiz-adv-x="581" d="M45 997l258 437h246l-316 -545z" />
<glyph unicode="&#x201a;" horiz-adv-x="581" d="M45 0l315 545l189 -109l-258 -436h-246z" />
<glyph unicode="&#x201c;" horiz-adv-x="937" d="M33 1434h246l258 -437l-189 -108zM389 1434h246l258 -437l-188 -108z" />
<glyph unicode="&#x201d;" horiz-adv-x="937" d="M45 997l258 437h246l-316 -545zM401 997l258 437h246l-315 -545z" />
<glyph unicode="&#x201e;" horiz-adv-x="937" d="M45 0l315 545l189 -109l-258 -436h-246zM401 0l316 545l188 -109l-258 -436h-246z" />
<glyph unicode="&#x2022;" horiz-adv-x="507" d="M102 717q0 64 44.5 108.5t107.5 44.5t107.5 -44.5t44.5 -108.5t-44.5 -109t-107.5 -45t-107.5 45t-44.5 109z" />
<glyph unicode="&#x2026;" horiz-adv-x="1458" d="M147 141q0 64 44.5 109t107.5 45t107.5 -45t44.5 -109t-44.5 -108.5t-107.5 -44.5t-107.5 44.5t-44.5 108.5zM578 141q0 64 44 109t107 45t107.5 -45t44.5 -109t-44.5 -108.5t-107.5 -44.5t-107 44.5t-44 108.5zM1008 141q0 64 44 109t107 45t107.5 -45t44.5 -109 t-44.5 -108.5t-107.5 -44.5t-107 44.5t-44 108.5z" />
<glyph unicode="&#x202f;" horiz-adv-x="407" />
<glyph unicode="&#x2039;" horiz-adv-x="798" d="M80 614l510 512l145 -143l-368 -369l368 -368l-145 -144z" />
<glyph unicode="&#x203a;" horiz-adv-x="798" d="M63 246l369 368l-369 369l146 143l510 -512l-510 -512z" />
<glyph unicode="&#x205f;" horiz-adv-x="509" />
<glyph unicode="&#x20ac;" horiz-adv-x="1705" d="M51 410v204h187q-3 17 -7 82h-180v205h203q30 117 91.5 216t148 172.5t201.5 115t245 41.5q340 0 545 -262l-162 -160q-68 93 -165.5 149t-217.5 56q-159 0 -276 -90.5t-170 -237.5h471v-205h-500q0 -42 6 -82h494v-204h-408q132 -205 383 -205q180 0 308 109t161 300 h229q-34 -276 -230.5 -451t-467.5 -175q-227 0 -391.5 114t-251.5 308h-246z" />
<glyph unicode="&#x2122;" horiz-adv-x="1425" d="M43 1296v138h434v-138h-147v-477h-140v477h-147zM551 819v615h162l200 -424l201 424h162v-615h-139v359l-170 -359h-107l-170 359v-359h-139z" />
<glyph unicode="&#x25fc;" horiz-adv-x="1024" d="M0 0v1024h1024v-1024h-1024z" />
<glyph unicode="&#xfb01;" horiz-adv-x="1378" d="M72 811v213h207v156q0 90 40 151.5t100.5 88t135.5 26.5q146 0 221 -94l-151 -150q-19 31 -60 31q-28 0 -44.5 -18.5t-16.5 -49.5v-141h272v-213h-272v-811h-225v811h-207zM956 1292q0 64 44.5 109t107.5 45t107.5 -45t44.5 -109t-44.5 -108.5t-107.5 -44.5t-107.5 44.5 t-44.5 108.5zM995 0v1024h226v-1024h-226z" />
<glyph unicode="&#xfb02;" horiz-adv-x="1259" d="M72 811v213h207v156q0 90 40 151.5t100.5 88t135.5 26.5q146 0 221 -94l-151 -150q-19 31 -60 31q-28 0 -44.5 -18.5t-16.5 -49.5v-141h272v-213h-272v-811h-225v811h-207zM877 0v1434l225 24v-1458h-225z" />
</font>
</defs>
</svg>
