<?xml version="1.0" encoding="utf-8"?>
<!-- Generator: Adobe Illustrator 18.1.1, SVG Export Plug-In . SVG Version: 6.00 Build 0)  -->
<svg version="1.1" id="Layer_1" xmlns="http://www.w3.org/2000/svg" xmlns:xlink="http://www.w3.org/1999/xlink" x="0px" y="0px"
	 viewBox="0 0 50.5 53.5" enable-background="new 0 0 50.5 53.5" xml:space="preserve">
<g id="jBL6BY_1_">
	<g>
		
			<path fill="none" stroke="#FFFFFF" stroke-width="0.75" stroke-linecap="round" stroke-linejoin="round" stroke-miterlimit="10" d="
			M3.6,20.7c3.1,0,7,0,10.1,0c0.3,0,0.6,0,0.9,0c0,10.5,0,20.9,0,31.3c7,0,13.9,0,20.9,0c0-10.4,0-20.8,0-31.3c0.5,0,1,0,1.5,0
			c3,0,6,0,9,0c0.3,0,0.6-0.1,0.9-0.1"/>
		
			<path fill="none" stroke="#FFFFFF" stroke-width="0.75" stroke-linecap="round" stroke-linejoin="round" stroke-miterlimit="10" d="
			M3.6,20.5C10.7,14,17.9,7.5,25.1,1c1.5,1.4,3,2.7,4.5,4c3.6,3.2,7.1,6.3,10.7,9.5c2.2,2,4.4,4,6.6,6"/>
	</g>
</g>
</svg>
