<?xml version="1.0" encoding="utf-8"?>
<!-- Generator: Adobe Illustrator 18.1.1, SVG Export Plug-In . SVG Version: 6.00 Build 0)  -->
<svg version="1.1" id="Layer_1" xmlns="http://www.w3.org/2000/svg" xmlns:xlink="http://www.w3.org/1999/xlink" x="0px" y="0px"
	 width="891px" height="959px" viewBox="-161 -460 891 959" enable-background="new -161 -460 891 959" xml:space="preserve">
<circle fill="#FFFFFF" stroke="#000000" stroke-width="6" stroke-miterlimit="10" cx="-1130.1" cy="-297" r="355"/>
<g>
	<g>
		<defs>
			
				<rect id="SVGID_1_" x="-287.4" y="-506.6" transform="matrix(-0.9449 -0.3273 0.3273 -0.9449 491.8326 163.7831)" width="1094.2" height="1094.2"/>
		</defs>
		<clipPath id="SVGID_2_">
			<use xlink:href="#SVGID_1_"  overflow="visible"/>
		</clipPath>
		<g clip-path="url(#SVGID_2_)">
			<defs>
				
					<rect id="SVGID_3_" x="-287.4" y="-506.6" transform="matrix(-0.9449 -0.3273 0.3273 -0.9449 491.8326 163.7831)" width="1094.2" height="1094.2"/>
			</defs>
			<clipPath id="SVGID_4_">
				<use xlink:href="#SVGID_3_"  overflow="visible"/>
			</clipPath>
			<path clip-path="url(#SVGID_4_)" fill="#FFFFFF" stroke="#000000" stroke-width="6" stroke-miterlimit="10" d="M416-434.9
				c-11.1-1.5-22.2-6.5-34-9.4c-28.1-6.2-57.6-8.3-86.1-6.6C251-449,208.9-438,168.3-418.3c-47.6,23.1-87.9,55.6-119,98.4
				C24.9-286.5,7.1-248.5-1.4-207.2C-17.9-136.1-10-68.3,20.5-1.8c15.9,34.6,29.1,70.6,30.7,109.5c0.8,17.7-2.5,34-5.1,51.7
				c-2.6,17.7-5.3,35.4-4.8,54.2c0.4,22.3,8.6,39,25.5,50.7c5.5,4.2,11.4,7.4,18.7,10l168.3,58.3c27,9.4,52.1,0.6,70.5-22.1
				c14.8-19.3,26.9-40.7,38.6-61.1c13.2-24.5,32.1-42.4,52.8-58.5c17.5-13.7,37.8-25.3,57.8-35.8c43.4-21,79.5-51.6,108.8-89.1
				c29.3-37.6,50-80.4,59.2-127.2c13.7-73.2,4.1-142.8-30.9-209.7c-28.2-52.8-66.7-96.4-119.5-128.6
				C466.9-413.8,442.7-424.5,416-434.9"/>
			<path clip-path="url(#SVGID_4_)" fill="#FFFFFF" stroke="#000000" stroke-width="6" stroke-miterlimit="10" d="M397.1-360
				c13.5,4.7,20.3,18.7,17,31.5c-2.9,11.8-17.6,20.7-33.6,16.3c-27.4-8.3-55.1-12.1-83.7-10.4c-46.6,3.6-86.8,22.3-120.9,53.5
				c-6.7,5.8-11.3,12.4-18.6,16.8c-14,6.8-23.3,3.6-33.3-8c-8.2-9.8-7-23.4,2.5-34c38.7-41.3,86.3-67.8,142.1-77.6
				c27.2-4.5,53.9-4.6,81.4,0.3C366.6-369.4,381.5-365.4,397.1-360"/>
			<path clip-path="url(#SVGID_4_)" fill="#FFFFFF" stroke="#000000" stroke-width="6" stroke-miterlimit="10" d="M55,261.4
				L14,379.8l38.6,29.7c0,0,27.4,38.6,58.2,50.4"/>
			<path clip-path="url(#SVGID_4_)" fill="#FFFFFF" stroke="#000000" stroke-width="6" stroke-miterlimit="10" d="M278.3,338.8
				l-41,118.4l-48.7-0.6c0,0-42.6,15.5-76.9,3.6"/>
			
				<line clip-path="url(#SVGID_4_)" fill="#FFFFFF" stroke="#000000" stroke-width="6" stroke-miterlimit="10" x1="37" y1="313.3" x2="260.3" y2="390.7"/>
			
				<line clip-path="url(#SVGID_4_)" fill="#FFFFFF" stroke="#000000" stroke-width="6" stroke-miterlimit="10" x1="21.5" y1="358" x2="244.9" y2="435.4"/>
		</g>
	</g>
</g>
<g>
	<path d="M210.1-212.9l45.2,15.1l-3.6,10.9L218-198.1l-6.5,19.3l16.4,5.5l-3.6,10.9l-16.4-5.5l-6.7,20l34.3,11.4l-3.6,10.9
		l-45.8-15.3L210.1-212.9z"/>
	<path d="M260.3-173.3l0.5,39.5L285-165l12.1,4.1L261-115.8l-11.1-3.7l-1.7-57.8L260.3-173.3z"/>
	<path d="M301.4-126.6c-0.9,6.9,3.2,14.1,10.6,16.6c5.2,1.8,10,1.5,13.3-1.1l13.5,4.5c-6.6,8.2-18.7,11.1-30.3,7.3
		c-14.9-5-22.5-20.6-17.6-35.2c4.9-14.6,20.3-22.5,34.9-17.6c14.6,4.9,22.2,20.5,17.3,35.1c-0.4,1.3-1,2.6-1.6,3.8L301.4-126.6z
		 M305.3-136.5l27.4,9.1c0.1-5.9-4-12.1-10.5-14.2C315.7-143.7,308.7-141.3,305.3-136.5z"/>
	<path d="M361.5-139.4l11.3,3.8l-2,5.9c3.4-2.3,9.2-4.1,16.3-1.8c12.8,4.3,17.2,14.1,12.7,27.8l-10.3,30.9l-11.3-3.8l9.5-28.4
		c3-9.1,0.5-14.2-6.9-16.7c-7.4-2.5-13.1,1.6-15.7,9.2l-9.5,28.4L344.3-88L361.5-139.4z"/>
	<path d="M431.1-139.1l11.7,2.5l-7.3,21.8l15.4,5.2l-3.6,10.7l-15.4-5.2l-13.6,40.8L407-67l13.6-40.8l-10.4-3.5l3.6-10.7l10.4,3.5
		L431.1-139.1z"/>
	<path d="M142.1-98.3l0,24.4l14.6-19.5l11.5,3.9l-26,33.9l0.2,20.4l39.3-49.8l12.1,4.1l-50.8,63.1l-11.5-3.9l-0.2-19.9l-12.1,15.7
		l-11.5-3.9l-2.7-81l12.1,4.1l1.5,63.4L131-59.5l-0.4-42.7L142.1-98.3z"/>
	<path d="M186.9-27.5c-0.9,6.9,3.2,14.1,10.6,16.6c5.2,1.8,10,1.5,13.3-1.1l13.5,4.5c-6.6,8.2-18.7,11.1-30.3,7.3
		c-14.9-5-22.5-20.6-17.6-35.2c4.9-14.6,20.3-22.5,34.9-17.6c14.6,4.9,22.2,20.5,17.3,35.1c-0.4,1.3-1,2.6-1.6,3.8L186.9-27.5z
		 M190.8-37.5l27.4,9.1c0.1-5.9-4-12.1-10.5-14.2C201.2-44.7,194.2-42.3,190.8-37.5z"/>
	<path d="M230.9,11.4l24.1-72l11.7,2.5l-9.1,27.2c4.4-2.4,10.7-3,17.1-0.9c15.3,5.1,22.1,18.8,16.7,34.9
		c-5.4,16.1-19,22.9-34.3,17.8c-6.8-2.3-10.9-6.7-13.1-11l-1.8,5.4L230.9,11.4z M260.3,9.8c9,3,17.1-1.6,20.1-10.5
		c3-8.9-0.8-17.4-9.8-20.4s-17,1.6-20,10.5C247.7-1.7,251.4,6.8,260.3,9.8z"/>
	<path d="M306.9,17.9c-1.4,4.3,1.1,8,4.5,9.2c3.9,1.3,7.3-0.1,8.7-4.2c1.9-5.8-3-7.9-7.5-11c-4.7-3.2-8.9-9-6.1-17.4
		c2.8-8.2,11.1-12.1,18.9-9.5c5.4,1.8,8.6,5.5,10,10.7l-9.3,4.6c-0.1-2.3-1.3-4.2-3.4-4.9c-2.7-0.9-4.8,0.7-5.5,2.7
		c-1.5,4.5,4.3,6.4,9.2,10.3c4.6,3.7,8,9.3,5.1,18.1c-3.4,10.3-13.3,14.8-23.7,11.3c-10.6-3.5-15-13.7-11.7-23.5L306.9,17.9z"/>
	<path d="M365.3-24.5c4.2,1.4,6.5,5.9,5,10.3c-1.4,4.3-6,6.6-10.2,5.2c-4.2-1.4-6.5-5.9-5-10.3C356.6-23.6,361.1-25.9,365.3-24.5z
		 M352.6-5.1l11.3,3.8l-17.2,51.5l-11.3-3.8L352.6-5.1z"/>
	<path d="M389.7-15.6l11.7,2.5l-7.3,21.8l15.4,5.2L406,24.6l-15.4-5.2L377,60.2l-11.3-3.8l13.6-40.8l-10.4-3.5l3.6-10.7L382.8,5
		L389.7-15.6z"/>
	<path d="M415.5,48.8c-0.9,6.9,3.2,14.1,10.6,16.6c5.2,1.8,10,1.5,13.3-1.1l13.5,4.5c-6.6,8.2-18.7,11.1-30.3,7.3
		c-14.9-5-22.5-20.6-17.6-35.2c4.9-14.6,20.3-22.5,34.9-17.6s22.2,20.5,17.3,35.1c-0.4,1.3-1,2.6-1.6,3.8L415.5,48.8z M419.3,38.9
		l27.4,9.1c0.1-5.9-4-12.1-10.5-14.2C429.8,31.6,422.8,34.1,419.3,38.9z"/>
</g>
</svg>
