<?xml version="1.0" encoding="utf-8"?>
<!-- Generator: Adobe Illustrator 18.1.1, SVG Export Plug-In . SVG Version: 6.00 Build 0)  -->
<svg version="1.0" id="Layer_1" xmlns="http://www.w3.org/2000/svg" xmlns:xlink="http://www.w3.org/1999/xlink" x="0px" y="0px"
	 width="682.938px" height="682.938px" viewBox="0 0 682.938 682.938" enable-background="new 0 0 682.938 682.938"
	 xml:space="preserve">
<g id="TSch3W_2_">
	<g>
		<path fill="#FFFFFF" stroke="#000000" d="M434.322,479.92c-2.875,4.925-1.903,10.551-2.329,15.769
			c-1.577,19.325-4.564,38.34-9.155,57.185c-3.37,13.83-7.593,27.313-13.65,40.161c-9.406,19.953-22.111,37.001-42.804,46.671
			c-12.271,5.734-25.216,7.341-38.563,6.193c-22.903-1.969-40.21-13.632-53.68-31.59c-13.3-17.732-20.848-38.118-26.672-59.239
			c-3.742-13.568-6.348-27.387-8.489-41.281c-1.685-10.933-2.337-22.004-3.668-32.973c-2.318-19.106-2.289-38.304-2.551-57.439
			c-0.274-20.06,0.54-40.164,1.834-60.232c0.708-10.976,1.792-21.909,2.654-32.865c0.09-1.15-0.236-2.065-0.897-2.931"/>
		<path fill="#FFFFFF" stroke="#000000" d="M404.007,265.495c0.67,0.58,1.253,1.486,2.023,1.69
			c9.52,2.519,13.83,9.061,15.362,18.439c1.991,12.189,3.637,24.434,5.745,36.59c0.988,5.697,0.927,11.413,1.865,17.069
			c0.836,5.043,1.851,10.229,1.961,15.188c0.174,7.831,1.253,15.553,1.548,23.343c0.654,17.241,1.697,34.474,1.956,51.72
			c0.221,14.752-0.335,29.52-0.78,44.273c-0.084,2.782,0.769,4.318,2.44,6.624c6.772,9.344,12.927,19.211,12.251,31.557
			c-0.139,2.539,1.692,4.457,2.054,6.834c4.221,27.728,8.455,55.465,9.307,83.551c0.121,4.004,0.566,8.247-0.981,12.308
			c-0.72,1.888-1.727,3.294-3.196,4.513"/>
		<path fill="#FFFFFF" stroke="#000000" d="M221.857,513.585c-2.577,7.596-3.06,15.552-3.558,23.429
			c-1.42,22.495-2.345,45.016-2.718,67.561c-0.059,3.588-0.847,7.269-2.242,10.697c-1.32,3.244-3.508,5.74-7.095,6.095
			c-3.878,0.384-6.918,2.411-9.969,4.374c-10.951,7.046-20.97,15.258-29.772,24.872c-2.015,2.201-5.929,2.822-5.867,6.808"/>
		<path fill="#FFFFFF" stroke="#000000" d="M218.017,506.437c-3.912,2.014-4.578,6.128-5.761,9.648
			c-4.53,13.482-6.46,27.513-8.316,41.564c-2.359,17.859-4.003,35.769-4.762,53.766c-0.067,1.598-0.668,2.697-2.38,3.858
			c-11.4,7.733-23.389,14.903-31.124,26.856c-2.193,3.39-5.091,6.77-3.433,11.407"/>
		<path fill="#FFFFFF" stroke="#000000" d="M444.22,517.275c1.592,12.849,1.432,25.776,1.517,38.677
			c0.12,18.181-0.224,36.365-0.168,54.546c0.017,5.56,0.864,6.369,6.036,7.51c4.766,1.051,7.639,4.859,11.092,7.639
			c11.337,9.127,19.999,20.249,25.88,33.841c2.274,5.255,1.209,9.828,1.32,14.749"/>
		<path fill="#FFFFFF" stroke="#000000" d="M404.164,264.597c0.703-0.494,1.351-1.297,2.118-1.434
			c6.585-1.176,8.273-3.406,10.079-9.374c3.041-10.048,3.601-20.454,2.61-30.483c-2.255-22.81-6.21-45.437-20.921-64.296
			c-4.431-5.681-9.689-10.468-17.391-11.459c-2.099-0.27-4.088-0.312-6.077,0.375c-12.881,4.445-26.102,3.701-39.178,1.761
			c-6.709-0.995-12.834,0.841-19.218,1.457c-10.486,1.012-20.897,0.988-31.076-2.208c-3.479-1.092-6.694-0.538-9.912,1.037
			c-10.056,4.923-15.616,13.822-20.184,23.347c-6.563,13.684-9.207,28.418-10.989,43.405c-1.476,12.412-0.624,24.639,1.634,36.792
			c0.768,4.133,2.689,8.565,5.98,10.982c2.523,1.853,6.779,2.249,10.13,1.922c19.154-1.87,38.28-0.273,57.41,0.036
			c15.515,0.25,30.984-0.766,46.462-1.318c12.527-0.447,25.021-1.376,37.548-0.251"/>
		<path fill="#FFFFFF" stroke="#000000" d="M203.053,159.131c-11.086,0.689-14.551,6.111-16.387,20.735
			c-1.747,13.914,0.359,27.161,6.021,39.915c3.865,8.704,9.331,16.182,17.001,21.919c2.156,1.613,4.514,2.926,7.305,3.148"/>
		<path fill="#FFFFFF" stroke="#000000" d="M211.613,357.725c-4.529,2.181-5.575,6.953-6.806,10.864
			c-6.835,21.713-10.076,43.933-7.158,66.721c0.541,4.228,0.929,8.853,5.929,10.769"/>
		<path fill="#FFFFFF" stroke="#000000" d="M216.373,362.259c-5.625,17.206-5.818,35.127-6.913,52.922
			c-0.348,5.66-0.483,11.334-0.672,17.003c-0.245,7.393-3.629,13.574-7.595,19.485c-6.574,9.797-10.961,20.305-11.189,32.294
			c-0.088,4.615,0.262,9.173,2.392,13.312c0.652,1.267,0.362,2.221,0.264,3.343"/>
		<path fill="#FFFFFF" stroke="#000000" d="M449.73,239.478c15.338-11.666,32.406-39.502,22.682-68.908
			c8.782-4.3,16.75,0.209,17.51,10.485c0.884,11.946-2.323,23.091-7.589,33.838c-5.535,11.295-13.299,20.767-23.213,28.148
			c-5.367,3.996-10.98,8.231-17.439,10.432c-7.752,2.641-16.017,2.601-24.12,3.252c-0.402,0.032-0.843-0.423-1.266-0.651"/>
		<path fill="#FFFFFF" stroke="#000000" d="M499.006,487.058c3.363-1.832,2.663-5.319,3.258-8.222
			c2.047-9.996-0.949-19.357-4.361-28.457c-2.423-6.464-5.531-12.772-9.751-18.311c-0.974-1.278-1.043-2.489-1.039-3.548
			c0.066-15.926-4.576-30.805-9.631-45.655c-2.776-8.155-6.129-15.989-10.27-23.525c-1.905-3.466-4.142-6.573-7.18-9.159
			c-1.174-1-1.888-0.267-2.815,0.028"/>
		<path fill="#FFFFFF" stroke="#000000" d="M456.939,357.099c9.101,13.024,10.173,28.337,12.307,43.334
			c1.293,9.09,2.075,18.257,4.499,27.165c0.706,2.595,1.908,4.855,3.362,7.099c1.469,2.268,3.554,3.548,5.927,3.171
			c2.193-0.348,3.383-2.437,3.679-4.778c0.037-0.294,0.381-0.549,0.583-0.822"/>
		<path fill="#FFFFFF" stroke="#000000" d="M188.844,117.322c0.544,4.188-1.857,8.04-1.256,12.284
			c1.403,9.905,7.166,17.559,12.722,25.348c2.327,3.262,4.933,6.182,9.077,7.637c-2.163,4.863-4.72,9.578-6.399,14.587
			c-4.67,13.93-3.444,27.651,3.051,40.723c3.697,7.44,8.39,14.332,14.453,20.158"/>
		<path fill="#FFFFFF" stroke="#000000" d="M360.797,99.711c-5.603,0.318-9.71-3.775-14.854-4.99
			c-16.433-3.882-32.046-3.398-45.762,7.841c-10.079,8.259-10.768,19.265-8.152,30.915c0.969,4.316,2.323,8.556,4.631,12.464
			c0.809,1.37,1.981,3.06,1.058,4.978"/>
		<path fill="#FFFFFF" stroke="#000000" d="M258.931,266.981c-1.012,1.549-2.341,2.354-4.17,3.088
			c-6.471,2.599-10.708,7.348-11.854,14.47c-1.935,12.023-3.636,24.068-4.578,36.223c-0.186,2.4-0.735,4.441-3.56,6.555
			c-8.894,6.654-16.8,14.486-21.431,25.128c-2.714,6.237,0.37,9.491,6.505,8.673c4.757-0.634,8.885-3.134,13.577-3.746"/>
		<path fill="#FFFFFF" stroke="#000000" d="M197.842,441.839c-8.917,12.52-15.469,25.981-15.072,41.765
			c0.19,7.553,2.369,14.278,10.106,18.145c3.1,1.549,5.221,4.973,8.642,6.432"/>
		<path fill="#FFFFFF" stroke="#000000" d="M460.643,611.291c14.698,10.24,25.931,23.131,30.16,40.964
			c0.687,2.897,2.22,6.551-0.584,9.546"/>
		<path fill="#FFFFFF" stroke="#000000" d="M522.302,133.945c-4.314,1.049-8.623-0.584-13.066,0.386
			c-12.785,2.791-19.208,12.401-25.113,22.581c-2.096,3.613-3.865,7.485-4.877,11.614"/>
		<path fill="#FFFFFF" stroke="#000000" d="M483.426,438.531c3.116,7.069,7.471,13.499,10.323,20.733
			c3.59,9.105,4.847,18.527,4.652,28.163c-0.096,4.756-3.688,7.933-6.53,11.339"/>
		<path fill="#FFFFFF" stroke="#000000" d="M195.779,112.056c-3.464,2.171-7.353,3.881-10.304,6.607
			c-6.359,5.876-6.401,12.574-2.2,22.661c2.615,6.281,7.064,11.316,11.49,16.34c0.684,0.777,1.486,1.41,1.386,2.574"/>
		<path fill="#FFFFFF" stroke="#000000" d="M515.176,135.013c-4.811,4.163-10.306,7.465-14.669,12.215
			c-6.452,7.025-11.217,15.027-14.761,23.82"/>
		<path fill="#FFFFFF" stroke="#000000" d="M260.392,22.946c1.948-4.239,2.823-8.398,0.492-12.932
			c-1.079-2.1-2.408-3.515-4.555-3.414c-2.143,0.1-3.552,1.444-4.471,3.73c-1.98,4.923-1.108,8.863,3.731,13.627"/>
		<path fill="#FFFFFF" stroke="#000000" d="M392.24,36.267c-1.359-4.535-2.915-9.043,0.9-13.28c1.282-1.424,2.546-2.287,4.459-1.511
			c2.541,1.031,3.972-0.534,5.003-2.382c1.761-3.158,1.711-6.728,0.725-9.971c-0.637-2.095-2.153-4.301-5.147-4.227
			c-3.142,0.078-4.113,2.548-4.904,4.731c-1.436,3.962-0.643,7.829,1.632,11.375"/>
		<path fill="#FFFFFF" stroke="#000000" d="M233.328,474.412c-1.081,0.891-2.587,1.563-3.175,2.707
			c-4.212,8.206-9.021,16.167-10.989,25.354c-1.144,5.338-0.915,6.334,2.529,10.379c5.897,1.038,10.749-2.124,16.078-2.964"/>
		<path fill="#FFFFFF" stroke="#000000" d="M451.287,246.458c-0.176-7.491-5.568-11.387-10.775-15.254
			c-5.139-3.816-10.972-6.424-17.003-8.52c-1.11-0.386-2.431-0.166-3.654-0.225"/>
		<path fill="#FFFFFF" stroke="#000000" d="M431.854,355.03c5.299-0.539,10.076,2.387,15.345,2.3
			c1.553-0.026,3.109,0.064,4.644-0.204c5.056-0.885,6.594-4.29,3.804-8.571c-4.658-7.147-11.293-12.173-18.4-16.581
			c-2.513-1.559-4.718-4.012-8.104-3.79"/>
		<path fill="#FFFFFF" stroke="#000000" d="M242.274,221.968c-9.43,4.525-17.824,10.333-23.273,19.544
			c-2.57,4.345-1.814,8.038,2.397,10.035c7.55,3.582,15.611,4.598,23.915,3.339"/>
		<path fill="#FFFFFF" stroke="#000000" d="M361.908,101.293c0.707,2.214,1.128,4.477,2.533,6.491
			c5.612,8.048,5.232,17.056,3.239,25.973c-1.234,5.521-3.614,10.787-5.479,16.167"/>
		<path fill="#FFFFFF" stroke="#000000" d="M287.515,90.146c-0.369-3.417-1.573-6.295-5.197-7.35
			c-1.226-0.357-1.807-0.892-1.462-2.14c0.328-1.189-0.483-2.023-0.921-2.915c-1.157-2.355-2.912-4.131-5.774-3.762
			c-1.896,0.245-3.284,1.402-3.397,3.523c-0.142,2.692,0.838,5.958,3.05,6.278c3.379,0.49,2.988,2.803,3.815,4.644
			c2.21,4.926,4.123,5.577,8.753,2.912c3.073-1.769,5.6-0.801,7.701,3.243c0.433,0.833,1.285,1.728,0.945,2.896
			c-1.108,1.039-2.217,2.078-3.32,3.116c0.006,2.555,1.866,4.166,3.096,6.097"/>
		<path fill="#FFFFFF" stroke="#000000" d="M291.831,113.108c-3.291-0.364-6.507,1.896-6.856,4.817
			c-0.396,3.308,1.349,5.592,4.895,6.407"/>
		<path fill="#FFFFFF" stroke="#000000" d="M369.602,123.458c3.703-1.83,5.684-4.876,4.5-7.508c-1.139-2.53-2.206-5.704-6.209-3.895
			"/>
		<path fill="#FFFFFF" stroke="#000000" d="M399.767,22.314c1.869,3.286,2.568,6.783,1.386,10.416
			c-1.29,3.965-4.095,5.167-8.015,3.694c-4.979,3.671-5.943,6.763-3.977,11.833c0.366,0.943,0.696,1.246,1.588,1.706
			c5.581,2.873,6.003,8.029,1.142,12.157c-0.578,0.491-1.111,1.036-1.664,1.557"/>
		<path fill="#FFFFFF" stroke="#000000" d="M258.466,39.265c-3.879-2.872-5.346-6.667-4.498-11.427
			c0.472-2.649,1.976-4.377,4.558-4.694c2.515-0.309,3.903,1.265,4.969,3.545c1.859,3.977,0.401,7.728-0.225,11.566"/>
		<path fill="#FFFFFF" stroke="#000000" d="M397.47,38.106c1.915,4.274,1.318,9.95-3.251,13.312"/>
		<path fill="#FFFFFF" stroke="#000000" d="M266.618,50.868c0.754-3.331,1.43-6.664-0.601-9.818
			c-1.321-2.052-3.031-3.083-5.605-2.394c-2.85,0.763-3.524,3.276-3.57,5.394c-0.075,3.428,1.8,6.32,4.367,8.649
			c1.913,0.47,3.271-0.915,4.943-1.594c1.921,1.09,3.265,2.707,4.227,4.6c1.25,2.462,0.999,5.19-0.522,7.186
			c-0.539,0.707-2.263,2.826-4.682,1.257c-2.674-1.735-4.322-3.719-4.266-6.88c0.024-1.351,0.435-2.694,0.671-4.041"/>
		<path fill="#FFFFFF" stroke="#000000" d="M373.062,93.063c-0.036,2.32-1.226,4.028-3.207,4.951
			c-2.598,1.211-5.343,2.107-8.51,3.324c2.827-10.677,2.911-10.439,6.248-11.61c3.056-1.073,3.808,1.152,5.098,2.807"/>
		<path fill="#FFFFFF" stroke="#000000" d="M447.991,514.232c-3.89,3.234-6.348,3.412-10.804,0.902
			c-1.799-1.013-3.675-1.889-5.516-2.828"/>
		<path fill="#FFFFFF" stroke="#000000" d="M265.982,65.1c-1.655,5.243-0.208,7.643,5.087,10.605"/>
		<path fill="#FFFFFF" stroke="#000000" d="M388.91,50.028c-3.921,3.088-4.993,6.903-2.938,11.516"/>
		<path fill="#FFFFFF" stroke="#000000" d="M270.493,63.112c4.563,2.213,5.732,5.787,4.189,10.448"/>
		<path fill="#FFFFFF" stroke="#000000" d="M380.869,72.219c-2.422,1.623-5.262,3.236-5.155,6.473
			c0.069,2.07,1.178,4.484,3.872,4.833c3.05,0.395,4.708-2.073,5.874-4.086c1.062-1.834,1.045-4.153-1.542-5.867
			c-2.926-1.939-3.723-6.274-2.242-8.615c1.694-2.678,4.461-3.505,6.835-2.045c2.48,1.526,3.291,5.638,1.306,8.059
			c-1.134,1.383-2.811,2.32-4.244,3.457"/>
		<path fill="#FFFFFF" stroke="#000000" d="M379.727,84.049c0.808,5.165-2.728,6.989-6.586,8.565"/>
		<path fill="#FFFFFF" stroke="#000000" d="M376,81.547c-4.437,0.587-6.427,3.39-6.878,7.589"/>
		<path fill="#FFFFFF" stroke="#000000" d="M283.666,93.637c0.91,4.08,3.134,6.71,7.589,6.878"/>
		<path fill="#FFFFFF" stroke="#000000" d="M198.505,615.457c0.894,2.441,2.811,4.195,4.222,6.29"/>
		<path fill="#FFFFFF" stroke="#000000" d="M295.475,97.551c2.194,0.016,4.297,0.245,5.601,2.367"/>
	</g>
</g>
<g id="jBL6BY_1_">
	<g>
		<path fill="#FFFFFF" stroke="#FFFFFF" d="M374.428,105.168c10.389,0,23.459,0,33.849,0c1.005,0,2.011,0,3.016,0
			c0,35.189,0,70.043,0,104.897c23.459,0,46.584,0,70.043,0c0-34.854,0-69.708,0-104.897c1.676,0,3.351,0,5.027,0
			c10.054,0,20.108,0,30.162,0c1.005,0,2.011-0.335,3.016-0.335"/>
		<path fill="#FFFFFF" stroke="#FFFFFF" d="M374.428,104.498c23.795-21.784,47.924-43.567,72.054-65.351
			c5.027,4.692,10.054,9.049,15.081,13.405c12.065,10.724,23.794,21.113,35.859,31.838c7.373,6.703,14.746,13.405,22.119,20.108"/>
	</g>
</g>
</svg>
