<?xml version="1.0" encoding="utf-8"?>
<!-- Generator: Adobe Illustrator 18.1.1, SVG Export Plug-In . SVG Version: 6.00 Build 0)  -->
<svg version="1.1" id="Layer_1" xmlns="http://www.w3.org/2000/svg" xmlns:xlink="http://www.w3.org/1999/xlink" x="0px" y="0px"
	 width="270px" height="270px" viewBox="0 0 270 270" enable-background="new 0 0 270 270" xml:space="preserve">
<g>
	<g id="VpqjzD_2_">
		<g>
			<path fill="none" stroke="#FFFFFF" stroke-width="1.75" d="M134.7,45.4c3.3,0,5.9,2.6,6.2,5.7c0.3,2.8-2.3,5.9-6.2,6.2
				c-6.7,0.3-13.1,1.5-19.3,4.1C105.3,65.8,97.8,73,92.7,82.5c-1,1.8-1.5,3.6-2.8,5.2c-2.6,2.6-4.9,2.6-8,0.8
				c-2.6-1.5-3.3-4.6-2.1-7.7c5.4-12.1,13.9-21.6,25.5-28.1c5.7-3.1,11.6-5.2,18-6.2C127.2,45.7,130.8,45.4,134.7,45.4"/>
			<path fill="none" stroke="#FFFFFF" stroke-width="1.75" d="M133.1,27.4c-2.6,0.5-5.4,0.3-8.2,0.5c-6.7,0.8-13.4,2.6-19.6,5.2
				c-9.8,3.9-18.3,9.5-25.8,17C70.8,58.8,64.3,69.1,60.7,81c-2.8,9.3-3.9,19.1-2.6,28.9c1.8,17,8.8,31.4,20.6,43.8
				C85,160.1,90.6,167,94,175.5c1.5,3.9,2.1,7.7,2.8,11.9c0.8,4.1,1.5,8.2,3.1,12.4c1.8,4.9,4.9,8,9.5,9.3c1.5,0.5,3.1,0.8,4.9,0.8
				c13.9,0,27.8,0,41.7,0c6.7,0,11.6-3.9,13.9-10.3c1.8-5.4,2.8-11.1,3.9-16.5c1-6.4,3.9-11.9,7.2-17c2.8-4.4,6.4-8.5,10.1-12.4
				c8-8,13.7-17.5,17.3-28.1c3.6-10.6,4.9-21.6,3.3-32.7c-2.6-17.3-10.1-32-22.9-44.1c-10.3-9.5-22.2-16.2-36.3-19.3
				C146,28.1,139.8,27.6,133.1,27.4"/>
		</g>
	</g>
	<path fill="none" stroke="#FFFFFF" stroke-width="1.75" d="M106.6,209.3v29.4l10.8,3.6c0,0,9,6.4,16.7,6.7"/>
	<path fill="none" stroke="#FFFFFF" stroke-width="1.75" d="M162,209.3v29.4l-10.8,3.6c0,0-8.2,6.7-16.7,6.7"/>
	<path fill="none" stroke="#FFFFFF" stroke-width="1.75" d="M162,217.3"/>
	<path fill="none" stroke="#FFFFFF" stroke-width="1.75" d="M106.6,217.3"/>
	<line fill="none" stroke="#FFFFFF" stroke-width="1.75" x1="106.6" y1="222.2" x2="162" y2="222.2"/>
	<line fill="none" stroke="#FFFFFF" stroke-width="1.75" x1="106.6" y1="233.3" x2="162" y2="233.3"/>
</g>
</svg>
