<?xml version="1.0" encoding="utf-8"?>
<!-- Generator: Adobe Illustrator 18.1.1, SVG Export Plug-In . SVG Version: 6.00 Build 0)  -->
<svg version="1.0" id="Layer_1" xmlns="http://www.w3.org/2000/svg" xmlns:xlink="http://www.w3.org/1999/xlink" x="0px" y="0px"
	 width="270px" height="270px" viewBox="0 0 270 270" enable-background="new 0 0 270 270" xml:space="preserve">
<g>
	<g>
		
			<circle vector-effect="non-scaling-stroke" fill="none" stroke="#000000" stroke-width="1.75" cx="136.901" cy="133.663" r="115.461"/>
	</g>
	<g>
		<g>
			<path fill="none" stroke="#000000" stroke-width="1.75" stroke-miterlimit="10" d="M112.735,103.053
				c5.102,0,9.13-4.028,9.13-9.129s-4.028-9.129-9.13-9.129s-9.13,4.028-9.13,9.129C103.605,99.025,107.633,103.053,112.735,103.053
				"/>
		</g>
		<g>
			<path fill="none" stroke="#000000" stroke-width="1.75" stroke-miterlimit="10" d="M161.068,103.053
				c5.102,0,9.13-4.028,9.13-9.129s-4.028-9.129-9.13-9.129c-5.102,0-9.13,4.028-9.13,9.129S155.966,103.053,161.068,103.053"/>
		</g>
	</g>
	<g>
		<path vector-effect="non-scaling-stroke" fill="none" stroke="#000000" stroke-width="1.75" d="M74.069,145.21
			c0,0,14.5,53.703,62.832,53.703"/>
	</g>
	<g>
		<path vector-effect="non-scaling-stroke" fill="none" stroke="#000000" stroke-width="1.75" d="M200.002,145.21
			c0,0-14.5,53.703-63.101,53.703"/>
	</g>
</g>
</svg>
