<?xml version="1.0" encoding="utf-8"?>
<!-- Generator: Adobe Illustrator 18.1.1, SVG Export Plug-In . SVG Version: 6.00 Build 0)  -->
<svg version="1.0" id="Layer_1" xmlns="http://www.w3.org/2000/svg" xmlns:xlink="http://www.w3.org/1999/xlink" x="0px" y="0px"
	 width="270px" height="270px" viewBox="0 0 270 270" enable-background="new 0 0 270 270" xml:space="preserve">
<g>
	<g id="VpqjzD_1_">
		<g>
			<path fill="none" stroke="#000000" stroke-width="1.75" d="M134.679,30.516c3.526,0,6.239,2.713,6.51,5.968
				c0.271,2.984-2.441,6.239-6.51,6.51c-7.053,0.271-13.834,1.628-20.344,4.34c-10.579,4.611-18.445,12.206-23.87,22.243
				c-1.085,1.899-1.628,3.798-2.984,5.425c-2.713,2.713-5.154,2.713-8.409,0.814c-2.713-1.628-3.526-4.883-2.17-8.138
				c5.696-12.749,14.648-22.785,26.854-29.566c5.968-3.255,12.206-5.425,18.988-6.51C126.812,30.788,130.61,30.516,134.679,30.516"
				/>
			<path fill="none" stroke="#000000" stroke-width="1.75" d="M133.051,11.529c-2.713,0.543-5.696,0.271-8.68,0.543
				c-7.053,0.814-14.105,2.713-20.615,5.425c-10.308,4.069-19.259,10.036-27.125,17.903c-9.223,9.223-16.004,20.073-19.801,32.55
				c-2.984,9.765-4.069,20.073-2.713,30.38c1.899,17.903,9.223,33.093,21.7,46.113c6.51,6.781,12.478,14.105,16.004,23.056
				c1.628,4.069,2.17,8.138,2.984,12.478c0.814,4.34,1.628,8.68,3.255,13.02c1.899,5.154,5.154,8.409,10.036,9.765
				c1.628,0.542,3.255,0.814,5.154,0.814c14.648,0,29.295,0,43.943,0c7.053,0,12.206-4.069,14.648-10.85
				c1.899-5.696,2.984-11.664,4.069-17.36c1.085-6.781,4.069-12.478,7.595-17.903c2.984-4.611,6.781-8.951,10.579-13.02
				c8.409-8.409,14.376-18.445,18.174-29.566c3.798-11.121,5.154-22.785,3.526-34.449c-2.713-18.174-10.579-33.635-24.141-46.384
				c-10.85-10.036-23.328-17.089-38.246-20.344C146.614,12.342,140.104,11.8,133.051,11.529"/>
		</g>
	</g>
	<path fill="none" stroke="#000000" stroke-width="1.75" d="M105.112,203.032v30.923l11.393,3.798c0,0,9.494,6.781,17.631,7.053"/>
	<path fill="none" stroke="#000000" stroke-width="1.75" d="M163.431,203.032v30.923l-11.393,3.798c0,0-8.68,7.053-17.631,7.053"/>
	<path fill="none" stroke="#000000" stroke-width="1.75" d="M163.431,211.441"/>
	<path fill="none" stroke="#000000" stroke-width="1.75" d="M105.112,211.441"/>
	<line fill="none" stroke="#000000" stroke-width="1.75" x1="105.112" y1="216.595" x2="163.431" y2="216.595"/>
	<line fill="none" stroke="#000000" stroke-width="1.75" x1="105.112" y1="228.259" x2="163.431" y2="228.259"/>
</g>
</svg>
