<?xml version="1.0" encoding="utf-8"?>
<!-- Generator: Adobe Illustrator 18.1.1, SVG Export Plug-In . SVG Version: 6.00 Build 0)  -->
<svg version="1.0" id="Layer_1" xmlns="http://www.w3.org/2000/svg" xmlns:xlink="http://www.w3.org/1999/xlink" x="0px" y="0px"
	 width="270px" height="270px" viewBox="0 0 270 270" enable-background="new 0 0 270 270" xml:space="preserve">
<g id="TSch3W_1_">
	<g>
		<path fill="none" stroke="#FFFFFF" stroke-width="1.75" d="M175.466,180.8c-1.065,1.824-0.705,3.907-0.862,5.839
			c-0.584,7.156-1.69,14.198-3.39,21.176c-1.248,5.121-2.812,10.114-5.055,14.872c-3.483,7.389-8.188,13.702-15.851,17.283
			c-4.544,2.123-9.338,2.718-14.28,2.293c-8.481-0.729-14.89-5.048-19.878-11.698c-4.925-6.566-7.72-14.116-9.877-21.937
			c-1.386-5.025-2.351-10.142-3.144-15.287c-0.624-4.049-0.865-8.148-1.358-12.21c-0.858-7.075-0.848-14.184-0.945-21.27
			c-0.102-7.428,0.2-14.873,0.679-22.304c0.262-4.065,0.664-8.113,0.983-12.17c0.033-0.426-0.088-0.765-0.332-1.085"/>
		<path fill="none" stroke="#FFFFFF" stroke-width="1.75" d="M164.24,101.397c0.248,0.215,0.464,0.55,0.749,0.626
			c3.525,0.933,5.121,3.355,5.689,6.828c0.737,4.514,1.347,9.048,2.128,13.549c0.366,2.109,0.343,4.226,0.69,6.321
			c0.31,1.868,0.685,3.788,0.726,5.624c0.064,2.9,0.464,5.759,0.573,8.644c0.242,6.384,0.629,12.766,0.724,19.152
			c0.082,5.463-0.124,10.931-0.289,16.395c-0.031,1.03,0.285,1.599,0.904,2.453c2.508,3.46,4.787,7.114,4.536,11.686
			c-0.051,0.94,0.627,1.65,0.761,2.531c1.563,10.268,3.131,20.539,3.446,30.94c0.045,1.483,0.21,3.054-0.363,4.558
			c-0.266,0.699-0.639,1.22-1.183,1.671"/>
		<path fill="none" stroke="#FFFFFF" stroke-width="1.75" d="M96.788,193.267c-0.954,2.813-1.133,5.759-1.317,8.676
			c-0.526,8.33-0.868,16.67-1.007,25.018c-0.022,1.329-0.314,2.692-0.83,3.961c-0.489,1.201-1.299,2.125-2.627,2.257
			c-1.436,0.142-2.562,0.893-3.692,1.62c-4.055,2.609-7.765,5.65-11.025,9.21c-0.746,0.815-2.196,1.045-2.173,2.521"/>
		<path fill="none" stroke="#FFFFFF" stroke-width="1.75" d="M95.366,190.62c-1.448,0.746-1.695,2.269-2.133,3.573
			c-1.678,4.993-2.392,10.188-3.08,15.391c-0.874,6.614-1.482,13.246-1.763,19.91c-0.025,0.592-0.247,0.999-0.881,1.429
			c-4.221,2.863-8.661,5.519-11.525,9.945c-0.812,1.255-1.885,2.507-1.271,4.224"/>
		<path fill="none" stroke="#FFFFFF" stroke-width="1.75" d="M179.131,194.633c0.59,4.758,0.53,9.545,0.562,14.322
			c0.044,6.733-0.083,13.466-0.062,20.199c0.006,2.059,0.32,2.359,2.235,2.781c1.765,0.389,2.829,1.799,4.107,2.829
			c4.198,3.38,7.406,7.499,9.584,12.532c0.842,1.946,0.448,3.639,0.489,5.462"/>
		<path fill="none" stroke="#FFFFFF" stroke-width="1.75" d="M164.298,101.064c0.26-0.183,0.5-0.48,0.784-0.531
			c2.438-0.436,3.064-1.261,3.732-3.471c1.126-3.721,1.333-7.574,0.966-11.288c-0.835-8.447-2.3-16.826-7.747-23.809
			c-1.641-2.104-3.588-3.876-6.44-4.243c-0.777-0.1-1.514-0.115-2.25,0.139c-4.77,1.646-9.666,1.371-14.508,0.652
			c-2.484-0.369-4.753,0.311-7.117,0.54c-3.883,0.375-7.738,0.366-11.508-0.817c-1.288-0.404-2.479-0.199-3.67,0.384
			c-3.724,1.823-5.783,5.118-7.474,8.646c-2.43,5.067-3.41,10.523-4.069,16.073c-0.546,4.596-0.231,9.124,0.605,13.624
			c0.284,1.531,0.996,3.172,2.214,4.067c0.934,0.686,2.51,0.833,3.751,0.712c7.093-0.693,14.176-0.101,21.259,0.013
			c5.745,0.093,11.473-0.284,17.205-0.488c4.639-0.165,9.265-0.51,13.904-0.093"/>
		<path fill="none" stroke="#FFFFFF" stroke-width="1.75" d="M89.825,62.01c-4.105,0.255-5.388,2.263-6.068,7.678
			c-0.647,5.153,0.133,10.058,2.23,14.781c1.431,3.223,3.455,5.992,6.296,8.117c0.799,0.597,1.672,1.083,2.705,1.166"/>
		<path fill="none" stroke="#FFFFFF" stroke-width="1.75" d="M92.995,135.551c-1.677,0.808-2.065,2.575-2.52,4.023
			c-2.531,8.04-3.731,16.269-2.651,24.707c0.2,1.566,0.344,3.278,2.196,3.988"/>
		<path fill="none" stroke="#FFFFFF" stroke-width="1.75" d="M94.758,137.229c-2.083,6.372-2.154,13.008-2.56,19.598
			c-0.129,2.096-0.179,4.197-0.249,6.296c-0.091,2.738-1.344,5.027-2.813,7.215c-2.434,3.628-4.059,7.519-4.143,11.959
			c-0.032,1.709,0.097,3.397,0.886,4.93c0.242,0.469,0.134,0.822,0.098,1.238"/>
		<path fill="none" stroke="#FFFFFF" stroke-width="1.75" d="M181.172,91.763c5.68-4.32,12-14.628,8.399-25.517
			c3.252-1.592,6.203,0.077,6.484,3.883c0.327,4.424-0.86,8.551-2.81,12.531c-2.05,4.183-4.925,7.69-8.596,10.424
			c-1.988,1.48-4.066,3.048-6.458,3.863c-2.87,0.978-5.931,0.963-8.932,1.204c-0.149,0.012-0.312-0.157-0.469-0.241"/>
		<path fill="none" stroke="#FFFFFF" stroke-width="1.75" d="M199.419,183.444c1.245-0.678,0.986-1.97,1.206-3.045
			c0.758-3.702-0.351-7.168-1.615-10.538c-0.897-2.394-2.048-4.73-3.611-6.781c-0.361-0.473-0.386-0.922-0.385-1.314
			c0.024-5.898-1.694-11.407-3.566-16.906c-1.028-3.02-2.269-5.921-3.803-8.712c-0.705-1.284-1.534-2.434-2.659-3.392
			c-0.435-0.37-0.699-0.099-1.042,0.01"/>
		<path fill="none" stroke="#FFFFFF" stroke-width="1.75" d="M183.841,135.319c3.37,4.823,3.767,10.494,4.557,16.047
			c0.479,3.366,0.768,6.761,1.666,10.059c0.262,0.961,0.707,1.798,1.245,2.629c0.544,0.84,1.316,1.314,2.195,1.174
			c0.812-0.129,1.253-0.903,1.362-1.769c0.014-0.109,0.141-0.203,0.216-0.305"/>
		<path fill="none" stroke="#FFFFFF" stroke-width="1.75" d="M84.563,46.527c0.202,1.551-0.688,2.977-0.465,4.549
			c0.519,3.668,2.654,6.502,4.711,9.386c0.862,1.208,1.827,2.289,3.361,2.828c-0.801,1.801-1.748,3.547-2.37,5.402
			c-1.729,5.159-1.275,10.239,1.13,15.08c1.369,2.755,3.107,5.307,5.352,7.465"/>
		<path fill="none" stroke="#FFFFFF" stroke-width="1.75" d="M148.239,40.006c-2.075,0.118-3.596-1.398-5.501-1.848
			c-6.085-1.437-11.867-1.258-16.946,2.904c-3.732,3.058-3.988,7.134-3.019,11.448c0.359,1.598,0.86,3.168,1.715,4.616
			c0.3,0.507,0.733,1.133,0.392,1.843"/>
		<path fill="none" stroke="#FFFFFF" stroke-width="1.75" d="M110.517,101.947c-0.375,0.574-0.867,0.872-1.544,1.143
			c-2.396,0.962-3.965,2.721-4.389,5.358c-0.716,4.452-1.346,8.913-1.695,13.414c-0.069,0.889-0.272,1.645-1.318,2.427
			c-3.294,2.464-6.221,5.364-7.936,9.305c-1.005,2.31,0.137,3.515,2.409,3.212c1.761-0.235,3.29-1.161,5.028-1.387"/>
		<path fill="none" stroke="#FFFFFF" stroke-width="1.75" d="M87.895,166.699c-3.302,4.636-5.728,9.621-5.581,15.466
			c0.07,2.797,0.877,5.287,3.742,6.719c1.148,0.574,1.934,1.841,3.2,2.382"/>
		<path fill="none" stroke="#FFFFFF" stroke-width="1.75" d="M185.213,229.448c5.443,3.792,9.603,8.566,11.169,15.169
			c0.254,1.073,0.822,2.426-0.216,3.535"/>
		<path fill="none" stroke="#FFFFFF" stroke-width="1.75" d="M208.046,52.683c-1.597,0.389-3.193-0.216-4.839,0.143
			c-4.734,1.033-7.113,4.592-9.3,8.362c-0.776,1.338-1.431,2.772-1.806,4.301"/>
		<path fill="none" stroke="#FFFFFF" stroke-width="1.75" d="M193.65,165.474c1.154,2.618,2.767,4.999,3.823,7.678
			c1.329,3.372,1.795,6.861,1.723,10.429c-0.036,1.761-1.366,2.938-2.418,4.199"/>
		<path fill="none" stroke="#FFFFFF" stroke-width="1.75" d="M87.131,44.577c-1.283,0.804-2.723,1.437-3.816,2.447
			c-2.355,2.176-2.37,4.656-0.815,8.392c0.968,2.326,2.616,4.19,4.255,6.051c0.253,0.288,0.55,0.522,0.513,0.953"/>
		<path fill="none" stroke="#FFFFFF" stroke-width="1.75" d="M205.407,53.078c-1.781,1.542-3.816,2.764-5.432,4.523
			c-2.389,2.602-4.154,5.565-5.466,8.821"/>
		<path fill="none" stroke="#FFFFFF" stroke-width="1.75" d="M111.058,11.579c0.721-1.57,1.045-3.11,0.182-4.789
			c-0.4-0.777-0.892-1.302-1.687-1.264c-0.794,0.037-1.315,0.535-1.656,1.381c-0.733,1.823-0.41,3.282,1.382,5.046"/>
		<path fill="none" stroke="#FFFFFF" stroke-width="1.75" d="M159.883,16.512c-0.503-1.679-1.079-3.349,0.333-4.918
			c0.475-0.527,0.943-0.847,1.651-0.559c0.941,0.382,1.471-0.198,1.853-0.882c0.652-1.169,0.634-2.491,0.268-3.692
			c-0.236-0.776-0.797-1.593-1.906-1.565c-1.163,0.029-1.523,0.943-1.816,1.752c-0.532,1.467-0.238,2.899,0.604,4.212"/>
		<path fill="none" stroke="#FFFFFF" stroke-width="1.75" d="M101.036,178.761c-0.4,0.33-0.958,0.579-1.176,1.002
			c-1.56,3.039-3.341,5.987-4.069,9.389c-0.423,1.977-0.339,2.345,0.936,3.843c2.184,0.385,3.981-0.786,5.954-1.097"/>
		<path fill="none" stroke="#FFFFFF" stroke-width="1.75" d="M181.748,94.348c-0.065-2.774-2.062-4.217-3.99-5.649
			c-1.903-1.413-4.063-2.379-6.296-3.155c-0.411-0.143-0.9-0.061-1.353-0.083"/>
		<path fill="none" stroke="#FFFFFF" stroke-width="1.75" d="M174.552,134.552c1.962-0.2,3.731,0.884,5.682,0.852
			c0.575-0.009,1.151,0.024,1.72-0.076c1.872-0.328,2.442-1.588,1.409-3.174c-1.725-2.647-4.182-4.508-6.814-6.14
			c-0.931-0.577-1.747-1.486-3.001-1.404"/>
		<path fill="none" stroke="#FFFFFF" stroke-width="1.75" d="M104.349,85.278c-3.492,1.676-6.6,3.826-8.618,7.237
			c-0.952,1.609-0.672,2.976,0.888,3.716c2.796,1.326,5.781,1.703,8.856,1.236"/>
		<path fill="none" stroke="#FFFFFF" stroke-width="1.75" d="M148.651,40.592c0.262,0.82,0.418,1.658,0.938,2.404
			c2.078,2.98,1.937,6.316,1.2,9.618c-0.457,2.045-1.338,3.994-2.029,5.987"/>
		<path fill="none" stroke="#FFFFFF" stroke-width="1.75" d="M121.102,36.464c-0.137-1.265-0.582-2.331-1.924-2.722
			c-0.454-0.132-0.669-0.33-0.541-0.793c0.122-0.44-0.179-0.749-0.341-1.079c-0.428-0.872-1.078-1.53-2.138-1.393
			c-0.702,0.091-1.216,0.519-1.258,1.305c-0.053,0.997,0.31,2.206,1.129,2.325c1.251,0.181,1.107,1.038,1.413,1.72
			c0.819,1.824,1.527,2.065,3.241,1.078c1.138-0.655,2.074-0.297,2.852,1.201c0.16,0.308,0.476,0.64,0.35,1.073
			c-0.41,0.385-0.821,0.77-1.229,1.154c0.002,0.946,0.691,1.543,1.146,2.258"/>
		<path fill="none" stroke="#FFFFFF" stroke-width="1.75" d="M122.7,44.967c-1.219-0.135-2.409,0.702-2.539,1.784
			c-0.147,1.225,0.499,2.071,1.813,2.373"/>
		<path fill="none" stroke="#FFFFFF" stroke-width="1.75" d="M151.5,48.799c1.371-0.678,2.105-1.806,1.666-2.78
			c-0.422-0.937-0.817-2.112-2.299-1.442"/>
		<path fill="none" stroke="#FFFFFF" stroke-width="1.75" d="M162.67,11.345c0.692,1.217,0.951,2.512,0.513,3.857
			c-0.478,1.468-1.516,1.913-2.968,1.368c-1.844,1.359-2.201,2.505-1.473,4.382c0.135,0.349,0.258,0.461,0.588,0.632
			c2.067,1.064,2.223,2.973,0.423,4.502c-0.214,0.182-0.411,0.384-0.616,0.576"/>
		<path fill="none" stroke="#FFFFFF" stroke-width="1.75" d="M110.345,17.622c-1.437-1.064-1.98-2.469-1.666-4.232
			c0.175-0.981,0.732-1.621,1.688-1.738c0.931-0.115,1.445,0.468,1.84,1.313c0.688,1.473,0.148,2.862-0.083,4.283"/>
		<path fill="none" stroke="#FFFFFF" stroke-width="1.75" d="M161.82,17.193c0.709,1.583,0.488,3.684-1.204,4.93"/>
		<path fill="none" stroke="#FFFFFF" stroke-width="1.75" d="M113.364,21.919c0.279-1.234,0.53-2.468-0.222-3.636
			c-0.489-0.76-1.122-1.142-2.075-0.887c-1.055,0.282-1.305,1.213-1.322,1.997c-0.028,1.269,0.666,2.34,1.617,3.203
			c0.708,0.174,1.211-0.339,1.83-0.59c0.711,0.404,1.209,1.002,1.565,1.703c0.463,0.912,0.37,1.922-0.193,2.661
			c-0.199,0.262-0.838,1.046-1.734,0.465c-0.99-0.642-1.601-1.377-1.58-2.548c0.009-0.5,0.161-0.998,0.248-1.497"/>
		<path fill="none" stroke="#FFFFFF" stroke-width="1.75" d="M152.781,37.544c-0.013,0.859-0.454,1.492-1.187,1.833
			c-0.962,0.448-1.979,0.78-3.151,1.231c1.047-3.954,1.078-3.866,2.314-4.299c1.132-0.397,1.41,0.427,1.888,1.04"/>
		<path fill="none" stroke="#FFFFFF" stroke-width="1.75" d="M180.528,193.507c-1.441,1.197-2.351,1.263-4.001,0.334
			c-0.666-0.375-1.361-0.7-2.043-1.047"/>
		<path fill="none" stroke="#FFFFFF" stroke-width="1.75" d="M113.128,27.189c-0.613,1.942-0.077,2.83,1.884,3.927"/>
		<path fill="none" stroke="#FFFFFF" stroke-width="1.75" d="M158.65,21.608c-1.452,1.144-1.849,2.556-1.088,4.265"/>
		<path fill="none" stroke="#FFFFFF" stroke-width="1.75" d="M114.799,26.453c1.69,0.819,2.123,2.143,1.551,3.869"/>
		<path fill="none" stroke="#FFFFFF" stroke-width="1.75" d="M155.672,29.825c-0.897,0.601-1.949,1.198-1.909,2.397
			c0.025,0.767,0.436,1.66,1.434,1.79c1.129,0.146,1.743-0.768,2.175-1.513c0.393-0.679,0.387-1.538-0.571-2.173
			c-1.083-0.718-1.379-2.323-0.83-3.19c0.627-0.992,1.652-1.298,2.531-0.757c0.918,0.565,1.219,2.088,0.484,2.984
			c-0.42,0.512-1.041,0.859-1.571,1.28"/>
		<path fill="none" stroke="#FFFFFF" stroke-width="1.75" d="M155.249,34.206c0.299,1.912-1.01,2.588-2.439,3.172"/>
		<path fill="none" stroke="#FFFFFF" stroke-width="1.75" d="M153.869,33.28c-1.643,0.217-2.38,1.255-2.547,2.81"/>
		<path fill="none" stroke="#FFFFFF" stroke-width="1.75" d="M119.677,37.756c0.337,1.511,1.161,2.485,2.81,2.547"/>
		<path fill="none" stroke="#FFFFFF" stroke-width="1.75" d="M88.141,230.991c0.331,0.904,1.041,1.554,1.563,2.329"/>
		<path fill="none" stroke="#FFFFFF" stroke-width="1.75" d="M124.05,39.206c0.812,0.006,1.591,0.091,2.074,0.876"/>
	</g>
</g>
</svg>
