<?xml version="1.0" encoding="utf-8"?>
<!-- Generator: Adobe Illustrator 18.1.1, SVG Export Plug-In . SVG Version: 6.00 Build 0)  -->
<svg version="1.1" xmlns="http://www.w3.org/2000/svg" xmlns:xlink="http://www.w3.org/1999/xlink" x="0px" y="0px"
	 width="1430.9px" height="1443.3px" viewBox="580 -586.3 1430.9 1443.3" enable-background="new 580 -586.3 1430.9 1443.3"
	 xml:space="preserve">
<g id="Layer_10">
</g>
<g id="Layer_11">
</g>
<g id="Layer_9">
	<rect x="731" y="-840.3" stroke="#FFFFFF" stroke-width="3" width="8" height="0"/>
</g>
<g id="Layer_2_1_">
</g>
<g id="Layer_3_1_">
</g>
<g id="Layer_1">
	<g id="Layer_3_copy">
	</g>
	<g id="Layer_2">
	</g>
	<g id="Layer_3">
		<path fill="none" stroke="#FFFFFF" stroke-width="3" d="M905.9,788.9c0,0,17.4-43.5,64-65.9c19.5-14.2,20.3-17.8,20.3-17.8
			s5-196.2,41.2-219.5c16.5-60.9,36.3-67,36.3-67s-11.1-148.1,2.3-246.9c-22.8,7.3-38.6,10.4-38.6,10.4s-16.5,4.2-20.2,148.3
			c1.3,12-13.3,35.7-13.3,35.7s-45.1,50.4-21.6,103.4c2.8,16-22-10.5-22-10.5s-11-59.2,34.4-111.7
			c-13.9-130.5,28.6-172.6,28.6-172.6s7.1-31.1,55.3-68c13.2-85,18.5-99.2,18.5-99.2s14-20.6,29.8-22.5C1096.1-17.8,1091-40,1091-40
			s-48.2,7.7-61.9-21c-40.3,3.3-103-139.7-45.6-176.8c-68.4-75.1-15.9-89.7-15.9-89.7s-14,23.1,27.7,82.1
			c12.1,10.3,17.2,12.6,17.2,12.6s-60.7,83.8,24.3,157.7c23.9-28.6,47.6-33.7,47.6-33.7s18.4-148.5,82.4-153.6
			c19.8,3.2,38.7,5.1,38.7,5.1v-6.3c0,0-12.9-27.6-17.2-49.3c-9.7-1.8-10.7-13.4-10.7-13.4l5.4-10.1l9.5,0.1l6.5-13.4l-7.6-12.9
			l-16.5-3.8V-377l-11.1-7l-7.1-13.1l-8.6-5.3l-0.7-12.2l-8.7-5.9l-5.9-9.5l1.7-8.7l-9.3-14.4l0.6-9.5l-10.2-10.9l0.6-7.2l-0.6-10
			l-6-12.9l0.5-11l-0.5-9.8l-10.4-16.3l10.4-21.7l11.7,5.6l7,16.1l-4.1,16l6.8,7.8l1.2,16.2l-1.6,7.9l6,5.9l1.7,18.8l9.3,16.2
			l-1.3,11.1l10.6,11v9.5l7.2,5.9l4.9,10.3l14.4,9.8l0.1,10l16.5-1.4l-2.2,10.8l16.9,14.1l23.3-12.4l22.6-6l20,0.2l35.2,5.8l27.9,9
			l10.2-19l8-3.1l4.1-10.7l10.9-5.3v-12.2l10.6-7.3l-2.2-8.1l13.4-14.2l-2.2-12.1l9.2-15.7l-4.9-11l11.6-14.1l-2.9-18.9l4.8-8.9v-12
			l0.3-15.9l10.7-9.8l11.2,8.8v12.9l-7.7,14.7l4.3,11.3l-7.1,14.1l-2.2,7.7l-0.2,10.2v9.8l-6.9,7.7v9.1l-8.7,16.5l-0.8,15.2
			l-9.2,7.2l-0.2,10.4l-12.5,9.6l-1.3,8.9l-13.2,8.9l-7.2,11.3l-9.7,4l-5.7,9.2l11,16.1l7.1,2.1l6.4,6l-9.9,15.7l-4.2,21.5l-12,33.8
			l31.2-5.4l27.2,8.1l28,18.8l20.7,48.6l17,83.2l36.3,9.8l27.7,21c0,0,58.3-17.2,57.3-140.1c-7.8-4.4,10.4-5.3,10.4-5.3
			s20.4-56.4,46.4-64.2c26-7.9,36.6-8,36.6-8l-51.3,46.1l-17.3,31.4l9.4,31.4l-9.4,43.7l-25.9,44.8l-37.6,34.1l-11.8,3.3L1529-46.7
			l-24.8,7.5l-27.4,2.1l-12.1-0.7l-8.5,10l-18,7.8l26.5,18.3l10.3,21.5l10.6,91.3l7.2,1.7l37,20.9l24.3,25.2l6.2-0.1l26.4,35.2
			l24.7,63.7l8.1,64.8l27.9,57.3l6.7,39.9l-8.6,25.2l-8.6-50.3l-19.2-38.9l-7.2-13.3l-10.3-3.6l-14.3-37.2L1579,255l-9.8-49.6
			l-15.8-31.6l-21.3,0.5l-35.4-6l3.4,48.8l3.9,93.7l-1.4,106.7l-3.8,10.1l24.3,26.1l11.6,43.6l6.9,29.1l10.6,72.4l6.8,73.5l2.5,32.5
			l34,28.3l18.5,24.4l13.4,32.9l-1.3,20L1607,778l-20.5-24.9l-36.2-31.6l-24.8-7.8c0,0,6.7-184.7,0-205.2
			c-15.4-4.5-30.7-8.8-30.7-8.8l-8.3,49.5l-10.7,50.8l-38.1,87.7l-41.3,52.7l-51,29.6l-61.8,7.9l-64.5-13.9l-65.1-43.9l-51.7-102.7
			l-28-124.6l-34.7,7.7l-8.4,31.4l-5.3,158.8l-4.9,22.3l-9.1,10.8l-14.1,2.7l-36.4,23.2l-38.3,32.6l-13.8,10.5L905.9,788.9z"/>
		<path fill="none" stroke="#FFFFFF" stroke-width="3" stroke-miterlimit="10" d="M905.9,788.9c0,0,17.4-43.5,64-65.9
			c19.5-14.2,20.3-17.8,20.3-17.8s5-196.2,41.2-219.5c16.5-60.9,36.3-67,36.3-67s-11.1-148.1,2.3-246.9
			c-22.8,7.3-38.6,10.4-38.6,10.4s-16.5,4.2-20.2,148.3c1.3,12-13.3,35.7-13.3,35.7s-45.1,50.4-21.6,103.4c2.8,16-22-10.5-22-10.5
			s-11-59.2,34.4-111.7c-13.9-130.5,28.6-172.6,28.6-172.6s7.1-31.1,55.3-68c13.2-85,18.5-99.2,18.5-99.2s14-20.6,29.8-22.5
			C1096.1-17.8,1091-40,1091-40s-48.2,7.7-61.9-21c-40.3,3.3-103-139.7-45.6-176.8c-68.4-75.1-15.9-89.7-15.9-89.7
			s-14,23.1,27.7,82.1c12.1,10.3,17.2,12.6,17.2,12.6s-60.7,83.8,24.3,157.7c23.9-28.6,47.6-33.7,47.6-33.7s18.4-148.5,82.4-153.6
			c19.8,3.2,38.7,5.1,38.7,5.1v-6.3c0,0-12.9-27.6-17.2-49.3c-9.7-1.8-10.7-13.4-10.7-13.4l5.4-10.1l9.5,0.1l6.5-13.4l-7.6-12.9
			l-16.5-3.8V-377l-11.1-7l-7.1-13.1l-8.6-5.3l-0.7-12.2l-8.7-5.9l-5.9-9.5l1.7-8.7l-9.3-14.4l0.6-9.5l-10.2-10.9l0.6-7.2l-0.6-10
			l-6-12.9l0.5-11l-0.5-9.8l-10.4-16.3l10.4-21.7l11.7,5.6l7,16.1l-4.1,16l6.8,7.8l1.2,16.2l-1.6,7.9l6,5.9l1.7,18.8l9.3,16.2
			l-1.3,11.1l10.6,11v9.5l7.2,5.9l4.9,10.3l14.4,9.8l0.1,10l16.5-1.4l-2.2,10.8l16.9,14.1l23.3-12.4l22.6-6l20,0.2l35.2,5.8l27.9,9
			l10.2-19l8-3.1l4.1-10.7l10.9-5.3v-12.2l10.6-7.3l-2.2-8.1l13.4-14.2l-2.2-12.1l9.2-15.7l-4.9-11l11.6-14.1l-2.9-18.9l4.8-8.9v-12
			l0.3-15.9l10.7-9.8l11.2,8.8v12.9l-7.7,14.7l4.3,11.3l-7.1,14.1l-2.2,7.7l-0.2,10.2v9.8l-6.9,7.7v9.1l-8.7,16.5l-0.8,15.2
			l-9.2,7.2l-0.2,10.4l-12.5,9.6l-1.3,8.9l-13.2,8.9l-7.2,11.3l-9.7,4l-5.7,9.2l11,16.1l7.1,2.1l6.4,6l-9.9,15.7l-4.2,21.5l-12,33.8
			l31.2-5.4l27.2,8.1l28,18.8l20.7,48.6l17,83.2l36.3,9.8l27.7,21c0,0,58.3-17.2,57.3-140.1c-7.8-4.4,10.4-5.3,10.4-5.3
			s20.4-56.4,46.4-64.2c26-7.9,36.6-8,36.6-8l-51.3,46.1l-17.3,31.4l9.4,31.4l-9.4,43.7l-25.9,44.8l-37.6,34.1l-11.8,3.3L1529-46.7
			l-24.8,7.5l-27.4,2.1l-12.1-0.7l-8.5,10l-18,7.8l26.5,18.3l10.3,21.5l10.6,91.3l7.2,1.7l37,20.9l24.3,25.2l6.2-0.1l26.4,35.2
			l24.7,63.7l8.1,64.8l27.9,57.3l6.7,39.9l-8.6,25.2l-8.6-50.3l-19.2-38.9l-7.2-13.3l-10.3-3.6l-14.3-37.2L1579,255l-9.8-49.6
			l-15.8-31.6l-21.3,0.5l-35.4-6l3.4,48.8l3.9,93.7l-1.4,106.7l-3.8,10.1l24.3,26.1l11.6,43.6l6.9,29.1l10.6,72.4l6.8,73.5l2.5,32.5
			l34,28.3l18.5,24.4l13.4,32.9l-1.3,20L1607,778l-20.5-24.9l-36.2-31.6l-24.8-7.8c0,0,6.7-184.7,0-205.2
			c-15.4-4.5-30.7-8.8-30.7-8.8l-8.3,49.5l-10.7,50.8l-38.1,87.7l-41.3,52.7l-51,29.6l-61.8,7.9l-64.5-13.9l-65.1-43.9l-51.7-102.7
			l-28-124.6l-34.7,7.7l-8.4,31.4l-5.3,158.8l-4.9,22.3l-9.1,10.8l-14.1,2.7l-36.4,23.2l-38.3,32.6l-13.8,10.5L905.9,788.9z"/>
	</g>
	<g>
		<path fill="none" stroke="#FFFFFF" stroke-width="8" d="M1498.3,430.3c-6.3,10.2-4.1,22-5.1,33c-3.4,40.4-10,80.1-20,119.5
			c-7.3,28.9-16.5,57.1-29.8,83.9c-20.6,41.7-48.4,77.3-93.6,97.6c-26.8,12-55.2,15.3-84.2,13c-50.1-4.2-87.8-28.5-117.3-66
			c-29.1-37-45.5-79.6-58.3-123.8c-8.2-28.4-13.9-57.2-18.6-86.2c-3.7-22.8-5.1-46-8.1-68.9c-5-40.1-4.9-80.2-5.5-120.2
			c-0.5-41.9,1.2-83.9,4-125.9c1.6-22.9,3.9-45.8,5.8-68.7c0.2-2.4-0.5-4.4-1.9-6.1"/>
		<path fill="none" stroke="#FFFFFF" stroke-width="8" d="M1432-17.8c1.5,1.2,2.8,3.1,4.5,3.6c20.8,5.3,30.2,19,33.6,38.5
			c4.3,25.5,8,51,12.5,76.5c2.1,11.9,2,23.8,4,35.7c1.8,10.5,4,21.4,4.2,31.8c0.4,16.3,2.8,32.5,3.4,48.8c1.4,36,3.7,72,4.2,108.1
			c0.5,30.8-0.7,61.7-1.7,92.5c-0.2,5.8,1.7,9,5.3,13.8c14.9,19.5,28.2,40.2,26.7,65.9c-0.3,5.3,3.7,9.3,4.5,14.3
			c9.2,57.9,18.5,115.9,20.4,174.6c0.3,8.4,1.3,17.2-2.1,25.8c-1.6,4-3.8,6.9-7,9.4"/>
		<path fill="none" stroke="#FFFFFF" stroke-width="8" d="M1034,500.7c-5.6,15.9-6.7,32.5-7.7,49c-3.1,47-5.1,94-5.9,141.2
			c-0.1,7.5-1.8,15.2-4.9,22.3c-2.9,6.8-7.6,12-15.5,12.8c-8.5,0.8-15.2,5.1-21.7,9.1c-24,14.7-45.8,31.9-65,51.9
			c-4.5,4.6-12.9,5.9-12.8,14.2"/>
		<path fill="none" stroke="#FFFFFF" stroke-width="8" d="M1025.5,485.7c-8.6,4.3-10,12.8-12.6,20.2c-9.9,28.2-14,57.5-18.1,86.8
			c-5.2,37.3-8.7,74.8-10.4,112.4c-0.1,3.3-1.5,5.7-5.2,8.1c-24.9,16.1-51.1,31.1-68,56.1c-4.8,7.1-11.1,14.1-7.5,23.8"/>
		<path fill="none" stroke="#FFFFFF" stroke-width="8" d="M1520,508.4c3.5,26.9,3.1,53.9,3.3,80.8c0.2,38-0.5,76-0.3,114
			c0,11.7,1.9,13.3,13.2,15.7c10.4,2.2,16.7,10.1,24.2,15.9c24.8,19.1,43.7,42.3,56.5,70.7c5,11,2.7,20.5,2.9,30.8"/>
		<path fill="none" stroke="#FFFFFF" stroke-width="8" d="M1432.3-19.7c1.5-1,3-2.7,4.7-3c14.4-2.4,18-7.1,22.1-19.6
			c6.7-21,7.8-42.7,5.7-63.7c-4.9-47.7-13.6-94.9-45.7-134.4c-9.7-11.9-21.2-21.9-38-23.9c-4.6-0.6-8.9-0.6-13.3,0.8
			c-28.1,9.3-57.1,7.7-85.6,3.7c-14.6-2.1-28,1.7-42,3c-22.9,2.1-45.7,2-67.9-4.6c-7.6-2.2-14.6-1.1-21.6,2.1
			c-22,10.2-34.2,28.9-44.1,48.8c-14.3,28.6-20.2,59.3-24,90.7c-3.2,26-1.4,51.5,3.6,76.9c1.7,8.6,5.8,17.9,13,22.9
			c5.5,3.9,14.9,4.7,22.2,4.1c41.9-4,83.7-0.6,125.5,0.1c33.9,0.5,67.7-1.6,101.5-2.7c27.4-0.9,54.6-2.8,82.1-0.5"/>
		<path fill="none" stroke="#FFFFFF" stroke-width="8" d="M992.9-240.1c-24.2,1.4-31.8,12.8-35.9,43.3c-3.8,29.1,0.7,56.8,13.2,83.4
			c8.5,18.2,20.4,33.8,37.1,45.9c4.7,3.3,9.9,6.1,15.9,6.6"/>
		<path fill="none" stroke="#FFFFFF" stroke-width="8" d="M1011.7,175c-9.9,4.6-12.2,14.5-14.9,22.7
			c-15.1,45.3-22.1,91.8-15.7,139.4c1.2,8.8,2,18.5,12.9,22.5"/>
		<path fill="none" stroke="#FFFFFF" stroke-width="8" d="M1022,184.4c-12.3,36-12.7,73.4-15.1,110.6c-0.7,11.9-1.1,23.6-1.5,35.5
			c-0.5,15.4-8,28.4-16.7,40.7c-14.3,20.5-24,42.4-24.4,67.5c-0.2,9.6,0.5,19.2,5.2,27.8c1.4,2.6,0.7,4.7,0.5,7"/>
		<path fill="none" stroke="#FFFFFF" stroke-width="8" d="M1531.9-72.1c33.5-24.3,70.9-82.6,49.5-144c19.2-9,36.6,0.4,38.3,21.9
			c1.9,25-5.1,48.3-16.5,70.7c-12.1,23.6-29.1,43.4-50.7,58.8c-11.8,8.3-24,17.2-38.1,21.8c-17,5.5-35,5.5-52.7,6.8
			c-0.8,0.1-1.8-0.9-2.8-1.3"/>
		<path fill="none" stroke="#FFFFFF" stroke-width="8" d="M1639.6,445.2c7.3-3.9,5.8-11.2,7.1-17.1c4.5-20.9-2.1-40.5-9.5-59.4
			c-5.3-13.5-12.1-26.7-21.3-38.2c-2.1-2.6-2.2-5.2-2.2-7.4c0.1-33.3-10-64.4-21-95.5c-6-17-13.4-33.4-22.5-49.2
			c-4.1-7.2-9-13.7-15.7-19.2c-2.5-2.1-4.1-0.6-6.2,0.1"/>
		<path fill="none" stroke="#FFFFFF" stroke-width="8" d="M1547.7,173.7c19.8,27.2,22.3,59.2,26.9,90.6c2.9,19,4.6,38.1,9.9,56.8
			c1.6,5.4,4.1,10.1,7.3,14.8c3.2,4.8,7.7,7.4,12.9,6.6c4.8-0.7,7.4-5.1,8.1-9.9c0.1-0.6,0.8-1.1,1.3-1.7"/>
		<path fill="none" stroke="#FFFFFF" stroke-width="8" d="M961.8-327.5c1.2,8.7-4,16.8-2.8,25.7c3.1,20.7,15.7,36.7,27.8,53
			c5.1,6.8,10.8,12.9,19.8,15.9c-4.8,10.1-10.3,20-14,30.5c-10.2,29.1-7.5,57.8,6.7,85.1c8.1,15.5,18.4,29.9,31.6,42.1"/>
		<path fill="none" stroke="#FFFFFF" stroke-width="8" d="M1337.6-364.3c-12.2,0.7-21.2-7.9-32.5-10.4c-36-8.1-70-7.1-100,16.4
			c-22.1,17.2-23.5,40.3-17.8,64.6c2.1,9,5.1,17.9,10.1,26.1c1.8,2.8,4.3,6.4,2.3,10.4"/>
		<path fill="none" stroke="#FFFFFF" stroke-width="8" d="M1115-14.7c-2.2,3.2-5.1,5-9.1,6.5c-14.1,5.5-23.4,15.3-25.9,30.2
			c-4.2,25.2-8,50.3-10,75.7c-0.4,5-1.6,9.3-7.7,13.7c-19.4,13.9-36.7,30.2-46.9,52.5c-5.9,13.1,0.8,19.9,14.2,18.2
			c10.4-1.3,19.4-6.6,29.7-7.8"/>
		<path fill="none" stroke="#FFFFFF" stroke-width="8" d="M981.5,350.8C962,376.9,947.7,405,948.6,438c0.4,15.8,5.2,29.8,22.1,37.9
			c6.8,3.2,11.5,10.3,18.9,13.5"/>
		<path fill="none" stroke="#FFFFFF" stroke-width="8" d="M1555.8,704.9c32.1,21.4,56.6,48.4,65.9,85.6c1.5,6.1,4.9,13.7-1.3,20"/>
		<path fill="none" stroke="#FFFFFF" stroke-width="8" d="M1690.5-292.8c-9.4,2.2-18.9-1.2-28.5,0.8c-27.9,5.8-42,25.9-54.8,47.2
			c-4.6,7.5-8.5,15.6-10.6,24.2"/>
		<path fill="none" stroke="#FFFFFF" stroke-width="8" d="M1605.6,343.8c6.8,14.8,16.3,28.2,22.6,43.3c7.8,19.1,10.6,38.8,10.2,58.8
			c-0.2,9.9-8.1,16.5-14.3,23.7"/>
		<path fill="none" stroke="#FFFFFF" stroke-width="8" d="M977-338.5c-7.5,4.6-16,8.1-22.5,13.8c-13.9,12.3-14,26.3-4.8,47.4
			c5.7,13.1,15.5,23.6,25.1,34.2c1.5,1.6,3.3,2.9,3.1,5.4"/>
		<path fill="none" stroke="#FFFFFF" stroke-width="8" d="M1675-290.5c-10.5,8.7-22.5,15.6-32,25.6c-14.1,14.7-24.5,31.4-32.2,49.8"
			/>
		<path fill="none" stroke="#FFFFFF" stroke-width="8" d="M1118.1-524.7c4.2-8.8,6.2-17.5,1.1-27c-2.3-4.4-5.3-7.3-10-7.1
			s-7.7,3-9.8,7.8c-4.3,10.2-2.4,18.6,8.2,28.5"/>
		<path fill="none" stroke="#FFFFFF" stroke-width="8" d="M1406.4-496.9c-3-9.4-6.4-18.9,2-27.8c2.8-2.9,5.5-4.8,9.8-3.1
			c5.5,2.1,8.7-1.1,10.9-5c3.8-6.6,3.7-14.1,1.6-20.8c-1.4-4.4-4.7-9-11.2-8.8c-6.9,0.2-9,5.3-10.7,9.8c-3.2,8.3-1.4,16.3,3.6,23.7"
			/>
		<path fill="none" stroke="#FFFFFF" stroke-width="8" d="M1059.1,418.8c-2.3,1.8-5.6,3.2-6.9,5.7c-9.2,17.1-19.7,33.8-24,53
			c-2.5,11.2-2,13.2,5.5,21.7c12.9,2.1,23.4-4.5,35.1-6.2"/>
		<path fill="none" stroke="#FFFFFF" stroke-width="8" d="M1535.3-57.6c-0.4-15.6-12.2-23.8-23.5-31.9c-11.2-8-24-13.4-37.1-17.9
			c-2.4-0.8-5.3-0.3-8-0.5"/>
		<path fill="none" stroke="#FFFFFF" stroke-width="8" d="M1492.9,169.3c11.6-1.1,22.1,5,33.5,4.8c3.4-0.1,6.8,0.1,10.2-0.4
			c11-1.8,14.4-8.9,8.3-18c-10.2-14.9-24.7-25.5-40.2-34.7c-5.5-3.2-10.3-8.4-17.7-7.9"/>
		<path fill="none" stroke="#FFFFFF" stroke-width="8" d="M1078.6-108.8c-20.6,9.4-38.9,21.6-50.8,40.9c-5.6,9.1-3.9,16.8,5.2,21
			c16.5,7.5,34.2,9.6,52.3,7"/>
		<path fill="none" stroke="#FFFFFF" stroke-width="8" d="M1340.1-360.9c1.6,4.7,2.4,9.3,5.5,13.6c12.3,16.8,11.5,35.6,7.1,54.3
			c-2.7,11.6-7.8,22.5-12,33.8"/>
		<path fill="none" stroke="#FFFFFF" stroke-width="8" d="M1177.4-384.3c-0.8-7.1-3.4-13.2-11.3-15.3c-2.7-0.7-3.9-1.8-3.2-4.5
			c0.7-2.4-1.1-4.3-2-6.1c-2.5-5-6.4-8.6-12.6-7.8c-4.1,0.5-7.2,2.9-7.4,7.4c-0.3,5.6,1.8,12.5,6.7,13.1c7.4,1,6.6,5.9,8.4,9.7
			c4.9,10.2,9,11.7,19.1,6.1c6.7-3.7,12.2-1.7,16.9,6.8c1,1.7,2.8,3.7,2,6.1c-2.4,2.1-4.9,4.4-7.2,6.5c0,5.4,4,8.7,6.8,12.8"/>
		<path fill="none" stroke="#FFFFFF" stroke-width="8" d="M1186.9-336.3c-7.2-0.8-14.2,4-15,10c-0.8,6.9,3,11.7,10.7,13.4"/>
		<path fill="none" stroke="#FFFFFF" stroke-width="8" d="M1356.8-314.7c8.1-3.9,12.4-10.1,9.9-15.7c-2.4-5.3-4.8-12-13.6-8.1"/>
		<path fill="none" stroke="#FFFFFF" stroke-width="8" d="M1422.8-526c4,6.9,5.6,14.2,3.1,21.8c-2.9,8.3-8.9,10.8-17.5,7.7
			c-10.9,7.7-12.9,14.1-8.7,24.8c0.8,1.9,1.5,2.6,3.5,3.6c12.2,6,13.2,16.7,2.5,25.4c-1.3,1-2.4,2.1-3.6,3.2"/>
		<path fill="none" stroke="#FFFFFF" stroke-width="8" d="M1114-490.6c-8.5-6-11.7-13.9-9.9-23.8c1.1-5.6,4.3-9.1,10-9.8
			c5.5-0.6,8.5,2.6,10.8,7.4c4,8.3,0.8,16.1-0.5,24.1"/>
		<path fill="none" stroke="#FFFFFF" stroke-width="8" d="M1417.8-493c4.1,8.9,2.9,20.8-7.1,27.8"/>
		<path fill="none" stroke="#FFFFFF" stroke-width="8" d="M1131.8-466.3c1.7-7,3.1-13.9-1.3-20.5c-2.9-4.3-6.6-6.5-12.2-5
			c-6.3,1.6-7.7,6.8-7.8,11.3c-0.2,7.2,3.9,13.2,9.5,18.1c4.1,1,7.1-1.9,10.8-3.3c4.2,2.2,7.1,5.7,9.2,9.6c2.8,5.2,2.2,10.9-1.2,15
			c-1.2,1.5-5,5.9-10.2,2.6c-5.8-3.7-9.4-7.8-9.3-14.4c0.1-2.8,1-5.7,1.5-8.4"/>
		<path fill="none" stroke="#FFFFFF" stroke-width="8" d="M1364.5-378.2c-0.1,4.9-2.7,8.4-7,10.3c-5.7,2.5-11.7,4.4-18.6,6.9
			c6.2-22.3,6.4-21.8,13.7-24.2c6.7-2.2,8.3,2.4,11.1,5.9"/>
		<path fill="none" stroke="#FFFFFF" stroke-width="8" d="M1528.1,502c-8.5,6.8-13.9,7.1-23.7,1.9c-3.9-2.1-8.1-4-12.1-5.9"/>
		<path fill="none" stroke="#FFFFFF" stroke-width="8" d="M1130.5-436.6c-3.6,11-0.4,15.9,11.1,22.1"/>
		<path fill="none" stroke="#FFFFFF" stroke-width="8" d="M1399-468.1c-8.6,6.5-10.9,14.4-6.5,24"/>
		<path fill="none" stroke="#FFFFFF" stroke-width="8" d="M1140.3-440.8c10,4.7,12.5,12.1,9.1,21.8"/>
		<path fill="none" stroke="#FFFFFF" stroke-width="8" d="M1381.5-421.7c-5.3,3.3-11.5,6.8-11.2,13.5c0.1,4.4,2.5,9.3,8.5,10.1
			c6.7,0.8,10.3-4.4,12.8-8.5c2.3-3.9,2.3-8.7-3.4-12.3c-6.4-4.1-8.2-13.1-4.9-18c3.7-5.6,9.8-7.3,15-4.3c5.4,3.1,7.2,11.8,2.9,16.8
			c-2.4,2.8-6.2,4.9-9.2,7.2"/>
		<path fill="none" stroke="#FFFFFF" stroke-width="8" d="M1379-397.1c1.8,10.8-5.9,14.6-14.4,17.9"/>
		<path fill="none" stroke="#FFFFFF" stroke-width="8" d="M1370.8-402.2c-9.7,1.2-14,7.1-15.1,15.8"/>
		<path fill="none" stroke="#FFFFFF" stroke-width="8" d="M1169.1-377c2,8.5,6.9,14,16.5,14.4"/>
		<path fill="none" stroke="#FFFFFF" stroke-width="8" d="M982.9,713.5c1.9,5.1,6.2,8.7,9.2,13.2"/>
		<path fill="none" stroke="#FFFFFF" stroke-width="8" d="M1194.8-368.7c4.8,0,9.4,0.5,12.2,5"/>
	</g>
	<g>
		<g>
			<path fill="#FFFF00" d="M1087.7,512.3h415.5c0,0-8.2,286-199,283.8C1113.4,794,1095,569.4,1087.7,512.3z"/>
			<path fill="none" stroke="#FFFFFF" stroke-width="1.75" d="M1085.5,513.4h419.7c0,0-10.3,286-201.1,283.8
				C1113.4,795,1092.8,570.4,1085.5,513.4z"/>
		</g>
	</g>
</g>
<g id="Layer_6">
</g>
<g id="Layer_4">
</g>
<g id="Layer_8">
</g>
<g id="Layer_5">
</g>
<g id="Layer_7">
</g>
</svg>
