<?xml version="1.0" encoding="utf-8"?>
<!-- Generator: Adobe Illustrator 18.1.1, SVG Export Plug-In . SVG Version: 6.00 Build 0)  -->
<svg version="1.1" id="Layer_1" xmlns="http://www.w3.org/2000/svg" xmlns:xlink="http://www.w3.org/1999/xlink" x="0px" y="0px"
	 viewBox="0 0 100 100" enable-background="new 0 0 100 100" xml:space="preserve">
<g id="VpqjzD_1_">
	<g>
		
			<path fill="none" stroke="#000000" stroke-width="0.75" stroke-linecap="round" stroke-linejoin="round" stroke-miterlimit="10" d="
			M50.1,8c1.3,0,2.3,1,2.4,2.2c0.1,1.1-0.9,2.3-2.4,2.4c-2.6,0.1-5.1,0.6-7.5,1.6c-3.9,1.7-6.8,4.5-8.8,8.2c-0.4,0.7-0.6,1.4-1.1,2
			c-1,1-1.9,1-3.1,0.3c-1-0.6-1.3-1.8-0.8-3c2.1-4.7,5.4-8.4,9.9-10.9c2.2-1.2,4.5-2,7-2.4C47.2,8.1,48.6,8,50.1,8"/>
		
			<path fill="none" stroke="#000000" stroke-width="0.75" stroke-linecap="round" stroke-linejoin="round" stroke-miterlimit="10" d="
			M49.5,1c-1,0.2-2.1,0.1-3.2,0.2c-2.6,0.3-5.2,1-7.6,2c-3.8,1.5-7.1,3.7-10,6.6c-3.4,3.4-5.9,7.4-7.3,12c-1.1,3.6-1.5,7.4-1,11.2
			c0.7,6.6,3.4,12.2,8,17c2.4,2.5,4.6,5.2,5.9,8.5c0.6,1.5,0.8,3,1.1,4.6c0.3,1.6,0.6,3.2,1.2,4.8c0.7,1.9,1.9,3.1,3.7,3.6
			c0.6,0.2,1.2,0.3,1.9,0.3c5.4,0,10.8,0,16.2,0c2.6,0,4.5-1.5,5.4-4c0.7-2.1,1.1-4.3,1.5-6.4c0.4-2.5,1.5-4.6,2.8-6.6
			c1.1-1.7,2.5-3.3,3.9-4.8c3.1-3.1,5.3-6.8,6.7-10.9c1.4-4.1,1.9-8.4,1.3-12.7C79,19.7,76.1,14,71.1,9.3C67.1,5.6,62.5,3,57,1.8
			C54.5,1.3,52.1,1.1,49.5,1"/>
	</g>
</g>
<path fill="none" stroke="#000000" stroke-width="0.75" stroke-linecap="round" stroke-linejoin="round" stroke-miterlimit="10" d="
	M39.2,71.6V83l4.2,1.4c0,0,3.5,2.5,6.5,2.6"/>
<path fill="none" stroke="#000000" stroke-width="0.75" stroke-linecap="round" stroke-linejoin="round" stroke-miterlimit="10" d="
	M60.7,71.6V83l-4.2,1.4c0,0-3.2,2.6-6.5,2.6"/>
<path fill="none" stroke="#000000" stroke-width="0.75" stroke-linecap="round" stroke-linejoin="round" stroke-miterlimit="10" d="
	M60.7,74.7"/>
<path fill="none" stroke="#000000" stroke-width="0.75" stroke-linecap="round" stroke-linejoin="round" stroke-miterlimit="10" d="
	M39.2,74.7"/>
<line fill="none" stroke="#000000" stroke-width="0.75" stroke-linecap="round" stroke-linejoin="round" stroke-miterlimit="10" x1="39.2" y1="76.6" x2="60.7" y2="76.6"/>
<line fill="none" stroke="#000000" stroke-width="0.75" stroke-linecap="round" stroke-linejoin="round" stroke-miterlimit="10" x1="39.2" y1="80.9" x2="60.7" y2="80.9"/>
</svg>
