<?xml version="1.0" encoding="utf-8"?>
<!-- Generator: Adobe Illustrator 18.1.1, SVG Export Plug-In . SVG Version: 6.00 Build 0)  -->
<svg version="1.1" xmlns="http://www.w3.org/2000/svg" xmlns:xlink="http://www.w3.org/1999/xlink" x="0px" y="0px"
	 width="1430.9px" height="1443.3px" viewBox="580 -586.3 1430.9 1443.3" enable-background="new 580 -586.3 1430.9 1443.3"
	 xml:space="preserve">
<g id="Layer_2_1_">
	<path fill="#FFFFFF" stroke="#000000" stroke-width="7" stroke-miterlimit="10" d="M1239.5-274.6l-33.3-77.9
		c0,0-175.1,75.4-167.1,516.5c4.7,262.4,28.7,292.9,28.7,292.9l264-5.3"/>
	<path fill="#FFFFFF" stroke="#000000" stroke-width="7" stroke-miterlimit="10" d="M1412.1-247.7c0,0-104.8,72.7-118.1,505.5"/>
	<path fill="#FFFFFF" stroke="#000000" stroke-width="7" stroke-miterlimit="10" d="M1383.4-273.7l30.3-89.9
		c0,0,203,71.3,174.1,528.5c-16.5,261.9-32.7,292.9-32.7,292.9l-264-5.3"/>
</g>
<g id="Layer_3_1_">
</g>
<g id="Layer_1">
	<g id="Layer_3">
		<path fill="#FFFFFF" stroke="#FFFFFF" stroke-width="3" d="M962.5,719.5c0,0,16.4-41,60.3-62.2c18.4-13.4,19.1-16.7,19.1-16.7
			s4.7-185,38.8-206.9c15.6-57.4,34.2-63.1,34.2-63.1s-10.5-139.6,2.2-232.8c-21.5,6.9-36.4,9.9-36.4,9.9s-15.6,3.9-19,139.8
			c1.2,11.3-12.5,33.7-12.5,33.7s-42.5,47.5-20.4,97.5c2.6,15.1-20.7-9.9-20.7-9.9s-10.4-55.8,32.4-105.3
			c-13.1-123,27-162.7,27-162.7s6.7-29.4,52.1-64.1C1132-3.5,1137-16.9,1137-16.9s13.2-19.4,28.1-21.2
			c-23.3-2.8-28.1-23.7-28.1-23.7s-45.4,7.3-58.4-19.8c-38,3.2-97.1-131.7-43-166.7c-64.5-70.8-15-84.5-15-84.5
			s-13.2,21.8,26.1,77.4c11.4,9.8,16.2,11.9,16.2,11.9s-57.2,79,22.9,148.7c22.5-27,44.9-31.8,44.9-31.8s17.3-140,77.7-144.8
			c18.7,3.1,36.5,4.8,36.5,4.8v-5.9c0,0-12.2-26-16.2-46.5c-9.1-1.7-10.1-12.6-10.1-12.6l5.1-9.6l9,0.1l6.1-12.6l-7.2-12.1
			l-15.6-3.5v-10l-10.5-6.6l-6.7-12.3l-8.1-5L1190-415l-8.2-5.5l-5.6-9l1.6-8.2l-8.8-13.6l0.6-9l-9.6-10.2l0.6-6.8l-0.6-9.5
			l-5.7-12.1l0.5-10.3l-0.5-9.3l-9.8-15.4l9.8-20.5l11,5.3l6.6,15.2l-3.9,15.1l6.4,7.4l1.1,15.3l-1.5,7.5l5.7,5.5l1.6,17.7l8.8,15.3
			l-1.2,10.4l10,10.3v9l6.8,5.5l4.6,9.8l13.6,9.3l0.1,9.5l15.6-1.3l-2.1,10.1l15.9,13.3l22-11.7l21.3-5.6l18.9,0.2l33.2,5.5
			l26.3,8.5l9.6-17.9l7.5-3l3.9-10l10.3-5v-11.5l10-6.9l-2.1-7.7l12.6-13.4l-2.1-11.4l8.7-14.8l-4.6-10.3l10.9-13.3l-2.7-17.8
			l4.5-8.4V-530l0.3-15l10.1-9.3l10.6,8.3v12.1l-7.3,13.9l4.1,10.6l-6.7,13.3l-2.1,7.3l-0.2,9.7v9.3l-6.5,7.3v8.6l-8.2,15.6
			l-0.8,14.3l-8.7,6.8l-0.2,9.9l-11.8,9.1l-1.2,8.4l-12.4,8.4l-6.8,10.6l-9.1,3.7l-5.4,8.7l10.4,15.2l6.7,2l6,5.6l-9.3,14.8l-4,20.3
			l-11.3,31.8l29.4-5.1l25.6,7.7l26.4,17.7l19.5,45.8l16,78.4l34.2,9.3l26.1,19.8c0,0,55-16.3,54-132.1c-7.4-4.1,9.8-5,9.8-5
			s19.2-53.2,43.7-60.5c24.5-7.5,34.5-7.6,34.5-7.6l-48.4,43.4l-16.3,29.6l8.9,29.6l-8.9,41.2l-24.4,42.3l-35.4,32.1l-11.1,3.2
			l-11.5,10.5l-23.4,7.1l-25.8,2l-11.4-0.7l-8,9.5l-17,7.4l25,17.2l9.7,20.3l10,86.1l6.8,1.6l34.9,19.7l22.9,23.7l5.8-0.1l24.9,33.2
			l23.3,60.1l7.6,61.1l26.3,54l6.3,37.6l-8.1,23.7l-8.1-47.4l-18.1-36.6l-6.8-12.5l-9.7-3.3l-13.5-35.1l-6.4-44l-9.2-46.8
			l-14.9-29.8l-20.1,0.5l-33.4-5.6l3.2,46l3.7,88.4l-1.3,100.6l-3.6,9.6l22.9,24.6l10.9,41.1l6.5,27.4l10,68.3l6.4,69.3l2.4,30.6
			l32.1,26.7l17.4,23l12.6,31l-1.2,18.8l-18-30.6l-19.3-23.4l-34.1-29.8l-23.4-7.4c0,0,6.3-174.1,0-193.5
			c-14.5-4.2-28.9-8.3-28.9-8.3l-7.8,46.7l-10.1,47.9l-35.9,82.7l-38.9,49.7l-48.1,27.9l-58.3,7.5l-60.8-13.1l-61.4-41.4l-48.7-96.8
			l-26.4-117.4l-32.7,7.3l-7.9,29.6l-5,149.7l-4.6,21l-8.6,10.1l-13.3,2.6l-34.3,21.9l-36.1,30.7l-13,9.9L962.5,719.5z"/>
		<path fill="none" stroke="#FFFFFF" stroke-width="3" stroke-miterlimit="10" d="M962.5,719.5c0,0,16.4-41,60.3-62.2
			c18.4-13.4,19.1-16.7,19.1-16.7s4.7-185,38.8-206.9c15.6-57.4,34.2-63.1,34.2-63.1s-10.5-139.6,2.2-232.8
			c-21.5,6.9-36.4,9.9-36.4,9.9s-15.6,3.9-19,139.8c1.2,11.3-12.5,33.7-12.5,33.7s-42.5,47.5-20.4,97.5c2.6,15.1-20.7-9.9-20.7-9.9
			s-10.4-55.8,32.4-105.3c-13.1-123,27-162.7,27-162.7s6.7-29.4,52.1-64.1C1132-3.5,1137-16.9,1137-16.9s13.2-19.4,28.1-21.2
			c-23.3-2.8-28.1-23.7-28.1-23.7s-45.4,7.3-58.4-19.8c-38,3.2-97.1-131.7-43-166.7c-64.5-70.8-15-84.5-15-84.5
			s-13.2,21.8,26.1,77.4c11.4,9.8,16.2,11.9,16.2,11.9s-57.2,79,22.9,148.7c22.5-27,44.9-31.8,44.9-31.8s17.3-140,77.7-144.8
			c18.7,3.1,36.5,4.8,36.5,4.8v-5.9c0,0-12.2-26-16.2-46.5c-9.1-1.7-10.1-12.6-10.1-12.6l5.1-9.6l9,0.1l6.1-12.6l-7.2-12.1
			l-15.6-3.5v-10l-10.5-6.6l-6.7-12.3l-8.1-5L1190-415l-8.2-5.5l-5.6-9l1.6-8.2l-8.8-13.6l0.6-9l-9.6-10.2l0.6-6.8l-0.6-9.5
			l-5.7-12.1l0.5-10.3l-0.5-9.3l-9.8-15.4l9.8-20.5l11,5.3l6.6,15.2l-3.9,15.1l6.4,7.4l1.1,15.3l-1.5,7.5l5.7,5.5l1.6,17.7l8.8,15.3
			l-1.2,10.4l10,10.3v9l6.8,5.5l4.6,9.8l13.6,9.3l0.1,9.5l15.6-1.3l-2.1,10.1l15.9,13.3l22-11.7l21.3-5.6l18.9,0.2l33.2,5.5
			l26.3,8.5l9.6-17.9l7.5-3l3.9-10l10.3-5v-11.5l10-6.9l-2.1-7.7l12.6-13.4l-2.1-11.4l8.7-14.8l-4.6-10.3l10.9-13.3l-2.7-17.8
			l4.5-8.4V-530l0.3-15l10.1-9.3l10.6,8.3v12.1l-7.3,13.9l4.1,10.6l-6.7,13.3l-2.1,7.3l-0.2,9.7v9.3l-6.5,7.3v8.6l-8.2,15.6
			l-0.8,14.3l-8.7,6.8l-0.2,9.9l-11.8,9.1l-1.2,8.4l-12.4,8.4l-6.8,10.6l-9.1,3.7l-5.4,8.7l10.4,15.2l6.7,2l6,5.6l-9.3,14.8l-4,20.3
			l-11.3,31.8l29.4-5.1l25.6,7.7l26.4,17.7l19.5,45.8l16,78.4l34.2,9.3l26.1,19.8c0,0,55-16.3,54-132.1c-7.4-4.1,9.8-5,9.8-5
			s19.2-53.2,43.7-60.5c24.5-7.5,34.5-7.6,34.5-7.6l-48.4,43.4l-16.3,29.6l8.9,29.6l-8.9,41.2l-24.4,42.3l-35.4,32.1l-11.1,3.2
			l-11.5,10.5l-23.4,7.1l-25.8,2l-11.4-0.7l-8,9.5l-17,7.4l25,17.2l9.7,20.3l10,86.1l6.8,1.6l34.9,19.7l22.9,23.7l5.8-0.1l24.9,33.2
			l23.3,60.1l7.6,61.1l26.3,54l6.3,37.6l-8.1,23.7l-8.1-47.4l-18.1-36.6l-6.8-12.5l-9.7-3.3l-13.5-35.1l-6.4-44l-9.2-46.8
			l-14.9-29.8l-20.1,0.5l-33.4-5.6l3.2,46l3.7,88.4l-1.3,100.6l-3.6,9.6l22.9,24.6l10.9,41.1l6.5,27.4l10,68.3l6.4,69.3l2.4,30.6
			l32.1,26.7l17.4,23l12.6,31l-1.2,18.8l-18-30.6l-19.3-23.4l-34.1-29.8l-23.4-7.4c0,0,6.3-174.1,0-193.5
			c-14.5-4.2-28.9-8.3-28.9-8.3l-7.8,46.7l-10.1,47.9l-35.9,82.7l-38.9,49.7l-48.1,27.9l-58.3,7.5l-60.8-13.1l-61.4-41.4l-48.7-96.8
			l-26.4-117.4l-32.7,7.3l-7.9,29.6l-5,149.7l-4.6,21l-8.6,10.1l-13.3,2.6l-34.3,21.9l-36.1,30.7l-13,9.9L962.5,719.5z"/>
	</g>
	<g id="Layer_3_copy">
	</g>
	<g id="Layer_2">
	</g>
	<g id="Layer_1_1_">
		<g id="TSch3W_2_">
			<g>
				<path fill="none" stroke="#000000" stroke-width="8" d="M1526.4,381.5c-5.9,9.7-3.9,20.8-4.8,31.1
					c-3.2,38.1-9.4,75.6-18.9,112.7c-6.9,27.3-15.6,53.8-28.1,79.1c-19.4,39.3-45.6,72.9-88.2,92c-25.3,11.3-52,14.4-79.4,12.2
					c-47.2-3.9-82.8-26.9-110.6-62.3c-27.4-34.9-42.9-75.1-55-116.7c-7.7-26.8-13.1-53.9-17.5-81.3c-3.5-21.5-4.8-43.3-7.6-64.9
					c-4.7-37.8-4.6-75.6-5.2-113.3c-0.5-39.5,1.1-79.1,3.8-118.7c1.5-21.6,3.7-43.1,5.5-64.7c0.2-2.3-0.5-4.1-1.8-5.7"/>
				<path fill="none" stroke="#000000" stroke-width="8" d="M1463.9-40.9c1.4,1.1,2.6,3,4.2,3.3c19.6,5,28.5,17.9,31.7,36.3
					c4.1,24,7.5,48.1,11.8,72.1c2,11.2,1.9,22.5,3.8,33.7c1.7,9.9,3.8,20.2,4,29.9c0.4,15.4,2.6,30.6,3.2,46
					c1.3,33.9,3.5,67.9,4,101.9c0.5,29.1-0.7,58.1-1.6,87.2c-0.2,5.5,1.6,8.5,5,13c14,18.4,26.6,37.9,25.2,62.2
					c-0.3,5,3.5,8.8,4.2,13.5c8.7,54.6,17.4,109.3,19.2,164.6c0.3,7.9,1.2,16.3-2,24.3c-1.5,3.7-3.6,6.5-6.6,8.9"/>
				<path fill="none" stroke="#000000" stroke-width="8" d="M1088.7,447.8c-5.3,15-6.3,30.6-7.3,46.2c-2.9,44.3-4.8,88.7-5.6,133.1
					c-0.1,7.1-1.7,14.3-4.6,21c-2.7,6.4-7.2,11.3-14.6,12c-8,0.8-14.3,4.8-20.5,8.6c-22.6,13.9-43.2,30-61.3,49
					c-4.2,4.3-12.2,5.5-12.1,13.4"/>
				<path fill="none" stroke="#000000" stroke-width="8" d="M1080.7,433.7c-8.1,4-9.4,12-11.9,19c-9.3,26.6-13.2,54.2-17.1,81.9
					c-4.9,35.2-8.2,70.5-9.8,106c-0.1,3.2-1.4,5.4-4.9,7.7c-23.5,15.2-48.2,29.4-64.1,52.9c-4.5,6.7-10.5,13.3-7.1,22.5"/>
				<path fill="none" stroke="#000000" stroke-width="8" d="M1546.8,455.1c3.3,25.3,2.9,50.8,3.1,76.2c0.2,35.9-0.5,71.6-0.3,107.5
					c0,11,1.8,12.5,12.4,14.8c9.8,2.1,15.7,9.6,22.8,15c23.4,18,41.2,39.9,53.3,66.7c4.7,10.3,2.5,19.3,2.7,29.1"/>
				<path fill="none" stroke="#000000" stroke-width="8" d="M1464.2-42.8c1.4-1,2.8-2.6,4.4-2.9c13.6-2.3,17-6.7,20.8-18.5
					c6.3-19.8,7.4-40.3,5.4-60.1c-4.6-44.9-12.8-89.5-43.1-126.7c-9.1-11.2-20-20.7-35.8-22.6c-4.3-0.6-8.4-0.6-12.5,0.8
					c-26.5,8.8-53.8,7.3-80.7,3.4c-13.8-2-26.4,1.6-39.6,2.9c-21.6,2-43.1,1.9-64-4.3c-7.2-2.1-13.8-1.1-20.4,2
					c-20.7,9.7-32.2,27.3-41.6,46c-13.5,27-19,55.9-22.6,85.5c-3,24.5-1.3,48.6,3.4,72.5c1.6,8.1,5.5,16.8,12.3,21.6
					c5.2,3.6,14,4.4,20.9,3.8c39.5-3.7,78.9-0.6,118.3,0.1c32,0.5,63.8-1.5,95.7-2.6c25.8-0.9,51.5-2.7,77.4-0.5"/>
				<path fill="none" stroke="#000000" stroke-width="8" d="M1049.9-250.6c-22.8,1.3-30,12-33.8,40.8c-3.6,27.4,0.7,53.6,12.4,78.6
					c8,17.1,19.2,31.8,35,43.2c4.4,3.2,9.3,5.7,15,6.2"/>
				<path fill="none" stroke="#000000" stroke-width="8" d="M1067.6,140.8c-9.3,4.3-11.5,13.7-14,21.4
					c-14.2,42.7-20.8,86.5-14.8,131.4c1.1,8.3,1.9,17.4,12.2,21.2"/>
				<path fill="none" stroke="#000000" stroke-width="8" d="M1077.4,149.7c-11.6,33.9-12,69.2-14.2,104.2c-0.7,11.2-1,22.3-1.4,33.5
					c-0.5,14.5-7.5,26.8-15.7,38.3c-13.5,19.3-22.6,40-23,63.6c-0.2,9.1,0.5,18.1,4.9,26.2c1.3,2.5,0.7,4.4,0.5,6.6"/>
				<path fill="none" stroke="#000000" stroke-width="8" d="M1558.1-92.2c31.6-23,66.8-77.8,46.7-135.8c18.1-8.5,34.5,0.4,36.1,20.7
					c1.8,23.5-4.8,45.5-15.6,66.7c-11.4,22.3-27.4,40.9-47.8,55.5c-11.1,7.8-22.6,16.3-35.9,20.6c-16,5.2-33,5.2-49.7,6.4
					c-0.8,0.1-1.7-0.9-2.6-1.2"/>
				<path fill="none" stroke="#000000" stroke-width="8" d="M1659.6,395.5c6.9-3.6,5.5-10.5,6.7-16.2c4.2-19.7-2-38.2-9-56
					c-5-12.7-11.4-25.2-20.1-36.1c-2-2.5-2.1-4.9-2.1-7c0.1-31.4-9.4-60.7-19.8-90c-5.7-16.1-12.6-31.5-21.2-46.4
					c-3.9-6.8-8.5-12.9-14.8-18.1c-2.4-2-3.9-0.6-5.8,0.1"/>
				<path fill="none" stroke="#000000" stroke-width="8" d="M1573,139.5c18.7,25.6,21,55.8,25.4,85.4c2.7,17.9,4.3,36,9.3,53.6
					c1.5,5.1,3.9,9.6,6.9,14c3,4.5,7.3,7,12.2,6.2c4.5-0.7,7-4.8,7.6-9.4c0.1-0.6,0.8-1.1,1.2-1.6"/>
				<path fill="none" stroke="#000000" stroke-width="8" d="M1020.6-332.9c1.1,8.2-3.8,15.9-2.6,24.2c2.9,19.5,14.8,34.6,26.2,49.9
					c4.8,6.4,10.2,12.1,18.7,15c-4.5,9.6-9.7,18.8-13.2,28.8c-9.6,27.4-7.1,54.5,6.3,80.2c7.6,14.6,17.3,28.2,29.8,39.7"/>
				<path fill="none" stroke="#000000" stroke-width="8" d="M1374.9-367.6c-11.5,0.7-20-7.5-30.6-9.9c-33.9-7.7-66-6.7-94.3,15.5
					c-20.8,16.3-22.2,38-16.8,60.9c2,8.5,4.8,16.8,9.5,24.6c1.7,2.7,4.1,6,2.2,9.9"/>
				<path fill="none" stroke="#000000" stroke-width="8" d="M1165-38.1c-2.1,3.1-4.8,4.7-8.6,6.1c-13.3,5.2-22.1,14.4-24.4,28.5
					c-4,23.7-7.5,47.4-9.4,71.3c-0.4,4.7-1.5,8.8-7.3,12.9c-18.3,13.1-34.6,28.5-44.2,49.5c-5.6,12.3,0.8,18.7,13.4,17.1
					c9.8-1.2,18.3-6.2,28-7.4"/>
				<path fill="none" stroke="#000000" stroke-width="8" d="M1039.2,306.5c-18.4,24.7-31.9,51.2-31,82.2
					c0.4,14.9,4.9,28.1,20.8,35.8c6.4,3.1,10.8,9.8,17.8,12.7"/>
				<path fill="none" stroke="#000000" stroke-width="8" d="M1580.6,640.3c30.3,20.2,53.4,45.6,62.1,80.7c1.4,5.7,4.6,12.9-1.2,18.8
					"/>
				<path fill="none" stroke="#000000" stroke-width="8" d="M1707.6-300.2c-8.9,2.1-17.8-1.1-26.9,0.8
					c-26.3,5.5-39.6,24.4-51.7,44.5c-4.3,7.1-8,14.7-10,22.9"/>
				<path fill="none" stroke="#000000" stroke-width="8" d="M1627.5,299.9c6.4,14,15.4,26.6,21.3,40.8c7.4,18,10,36.5,9.6,55.5
					c-0.2,9.4-7.6,15.6-13.5,22.4"/>
				<path fill="none" stroke="#000000" stroke-width="8" d="M1034.9-343.3c-7.1,4.3-15.1,7.7-21.2,13c-13.1,11.6-13.2,24.8-4.5,44.7
					c5.4,12.3,14.6,22.3,23.7,32.2c1.4,1.5,3.1,2.8,2.9,5.1"/>
				<path fill="none" stroke="#000000" stroke-width="8" d="M1693-298.1c-9.9,8.2-21.2,14.7-30.2,24.1c-13.3,13.9-23.1,29.6-30.4,47
					"/>
				<path d="M1168-518.8c4-8.3,5.8-16.5,1-25.4c-2.2-4.1-5-6.9-9.4-6.7s-7.3,2.9-9.2,7.4c-4.1,9.7-2.3,17.5,7.7,26.9"/>
				<path d="M1439.7-492.6c-2.8-8.9-6-17.8,1.9-26.2c2.6-2.8,5.2-4.5,9.2-3c5.2,2,8.2-1.1,10.3-4.7c3.6-6.2,3.5-13.3,1.5-19.6
					c-1.3-4.1-4.4-8.5-10.6-8.3c-6.5,0.2-8.5,5-10.1,9.3c-3,7.8-1.3,15.4,3.4,22.4"/>
				<path fill="none" stroke="#000000" stroke-width="8" d="M1112.3,370.7c-2.2,1.7-5.3,3.1-6.5,5.4c-8.7,16.2-18.6,31.8-22.6,49.9
					c-2.4,10.5-1.9,12.4,5.2,20.5c12.2,2,22.1-4.2,33.1-5.8"/>
				<path fill="none" stroke="#000000" stroke-width="8" d="M1561.3-78.5c-0.4-14.7-11.5-22.5-22.2-30c-10.6-7.6-22.6-12.6-35-16.8
					c-2.3-0.8-5-0.3-7.5-0.5"/>
				<path fill="none" stroke="#000000" stroke-width="8" d="M1521.3,135.4c10.9-1.1,20.8,4.7,31.6,4.5c3.2-0.1,6.4,0.1,9.6-0.4
					c10.4-1.7,13.6-8.4,7.8-16.9c-9.6-14.1-23.3-24-37.9-32.7c-5.2-3.1-9.7-7.9-16.7-7.5"/>
				<path fill="none" stroke="#000000" stroke-width="8" d="M1130.7-126.7c-19.4,8.9-36.7,20.4-47.9,38.5
					c-5.3,8.6-3.7,15.9,4.9,19.8c15.6,7.1,32.2,9.1,49.3,6.6"/>
				<path fill="none" stroke="#000000" stroke-width="8" d="M1377.2-364.5c1.5,4.4,2.3,8.8,5.2,12.8c11.6,15.9,10.8,33.6,6.7,51.2
					c-2.5,10.9-7.4,21.2-11.3,31.8"/>
				<path fill="none" stroke="#000000" stroke-width="8" d="M1223.9-386.5c-0.8-6.7-3.2-12.4-10.7-14.4c-2.5-0.7-3.7-1.7-3-4.2
					c0.7-2.3-1-4-1.9-5.7c-2.4-4.7-6-8.1-11.9-7.4c-3.9,0.5-6.8,2.8-7,7c-0.3,5.3,1.7,11.8,6.3,12.3c7,1,6.2,5.5,7.9,9.2
					c4.6,9.7,8.5,11,18,5.7c6.3-3.4,11.5-1.6,15.9,6.4c0.9,1.6,2.6,3.4,1.9,5.7c-2.3,2-4.6,4.1-6.8,6.1c0,5.1,3.8,8.2,6.4,12"/>
				<path fill="none" stroke="#000000" stroke-width="8" d="M1232.8-341.2c-6.8-0.8-13.4,3.7-14.1,9.5c-0.8,6.5,2.8,11,10.1,12.6"/>
				<path fill="none" stroke="#000000" stroke-width="8" d="M1393-320.9c7.6-3.6,11.7-9.6,9.3-14.8c-2.3-5-4.5-11.3-12.8-7.7"/>
				<path fill="none" stroke="#000000" stroke-width="8" d="M1455.2-520.1c3.8,6.5,5.3,13.4,2.9,20.6c-2.7,7.8-8.4,10.1-16.5,7.3
					c-10.3,7.3-12.2,13.3-8.2,23.3c0.8,1.8,1.4,2.5,3.3,3.3c11.5,5.6,12.4,15.8,2.4,23.9c-1.2,1-2.3,2-3.4,3.1"/>
				<path fill="none" stroke="#000000" stroke-width="8" d="M1164.1-486.7c-8-5.6-11-13.1-9.3-22.5c1-5.3,4.1-8.6,9.4-9.3
					c5.2-0.6,8,2.5,10.2,7c3.8,7.8,0.8,15.2-0.5,22.8"/>
				<path fill="none" stroke="#000000" stroke-width="8" d="M1450.5-489c3.9,8.4,2.7,19.6-6.7,26.2"/>
				<path fill="none" stroke="#000000" stroke-width="8" d="M1180.9-463.8c1.6-6.6,2.9-13.1-1.2-19.3c-2.7-4-6.2-6.1-11.5-4.7
					c-5.9,1.5-7.3,6.4-7.4,10.6c-0.2,6.8,3.7,12.4,9,17c3.9,1,6.7-1.8,10.2-3.2c4,2.1,6.7,5.4,8.7,9.1c2.6,4.9,2.1,10.2-1.1,14.2
					c-1.1,1.4-4.7,5.5-9.6,2.5c-5.5-3.4-8.9-7.4-8.8-13.6c0.1-2.7,0.9-5.4,1.4-7.9"/>
				<path fill="none" stroke="#000000" stroke-width="8" d="M1400.2-380.7c-0.1,4.6-2.5,7.9-6.6,9.8c-5.4,2.4-11,4.1-17.5,6.5
					c5.8-21,6-20.6,12.9-22.9c6.3-2.1,7.8,2.3,10.5,5.5"/>
				<path fill="none" stroke="#000000" stroke-width="8" d="M1554.5,449.1c-8,6.4-13.1,6.7-22.3,1.8c-3.7-2-7.6-3.7-11.4-5.5"/>
				<path fill="none" stroke="#000000" stroke-width="8" d="M1179.6-435.8c-3.4,10.3-0.4,15,10.5,20.8"/>
				<path fill="none" stroke="#000000" stroke-width="8" d="M1432.8-465.5c-8.1,6.1-10.3,13.6-6.1,22.7"/>
				<path fill="none" stroke="#000000" stroke-width="8" d="M1188.9-439.7c9.4,4.4,11.8,11.4,8.6,20.6"/>
				<path fill="none" stroke="#000000" stroke-width="8" d="M1416.3-421.8c-5,3.2-10.8,6.4-10.6,12.7c0.1,4.1,2.4,8.8,8,9.6
					c6.3,0.8,9.7-4.1,12.1-8c2.2-3.6,2.2-8.2-3.2-11.6c-6-3.8-7.7-12.3-4.6-16.9c3.5-5.3,9.2-6.9,14.1-4c5.1,3,6.8,11.1,2.7,15.9
					c-2.3,2.7-5.8,4.6-8.7,6.8"/>
				<path fill="none" stroke="#000000" stroke-width="8" d="M1413.9-398.5c1.7,10.1-5.6,13.8-13.6,16.8"/>
				<path fill="none" stroke="#000000" stroke-width="8" d="M1406.2-403.4c-9.1,1.1-13.2,6.7-14.2,14.9"/>
				<path fill="none" stroke="#000000" stroke-width="8" d="M1216-379.6c1.9,8,6.5,13.2,15.6,13.6"/>
				<path fill="none" stroke="#000000" stroke-width="8" d="M1040.5,648.5c1.8,4.8,5.8,8.2,8.7,12.4"/>
				<path fill="none" stroke="#000000" stroke-width="8" d="M1240.3-371.8c4.5,0,8.9,0.5,11.5,4.7"/>
			</g>
		</g>
		<g>
			
				<image overflow="visible" opacity="0.8" enable-background="new    " width="514" height="412" xlink:href="F3D46D6AD66EAF47.png"  transform="matrix(1 0 0 0.9563 1063.5934 396.1982)">
			</image>
			<g>
				<path fill="#FFFF00" d="M1124.7,455.1h391.7c0,0-7.7,278.5-187.6,276.4C1149,729.4,1131.6,510.7,1124.7,455.1z"/>
				<path fill="none" stroke="#FFFFFF" stroke-width="1.75" d="M1124.7,455.1h391.7c0,0-7.7,278.5-187.6,276.4
					C1149,729.4,1131.6,510.7,1124.7,455.1z"/>
			</g>
		</g>
	</g>
</g>
<g id="Layer_6">
	<rect x="1154.3" y="-78.5" width="309.6" height="62.4"/>
</g>
<g id="Layer_4">
	<path d="M1137-16.9c-40,126.1-12.3,472-12.3,472h391.7c0,0,11.6-6.4,7.9-236c-3.7-229.6-35-244.9-35-244.9l-26.8-16.4l-291.4,3
		c0,0-46.7,31.6-38.1-126.9c28.8-96.4,75.4-106.3,75.4-106.3s43.4,17.1,106-1.3c57.7,17.8,92.8,0.1,92.8,0.1s64.4,0.6,78.9,107.6
		c14.6,107,14,107.7-4.8,115.8s-305.7-7.9-305.7-7.9"/>
	<ellipse fill="#FFFFFF" cx="1231.3" cy="-39" rx="32.5" ry="138.1"/>
</g>
<g id="Layer_5">
</g>
<g id="Layer_7">
	<path d="M1309.2-378.6V-415c0,0-116.5,25-64.3,148.2c52.2,123.3,130,4.2,130,4.2s66.2-104.6-53.2-152.4c1.9,35.4-0.1,34.4-0.1,34.4
		"/>
</g>
</svg>
