<?xml version="1.0" encoding="utf-8"?>
<!-- Generator: Adobe Illustrator 18.1.1, SVG Export Plug-In . SVG Version: 6.00 Build 0)  -->
<svg version="1.1" id="Layer_1" xmlns="http://www.w3.org/2000/svg" xmlns:xlink="http://www.w3.org/1999/xlink" x="0px" y="0px"
	 width="525.6px" height="525.6px" viewBox="128 -127.6 525.6 525.6" enable-background="new 128 -127.6 525.6 525.6"
	 xml:space="preserve">
<g id="Layer_1_1_" display="none">
	
		<image display="inline" overflow="visible" enable-background="new    " width="180" height="263" xlink:href="Light_on.jpg"  transform="matrix(0.9917 0 0 0.9917 173.7842 132.1473)">
	</image>
</g>
<g id="Layer_8">
	<rect x="232" y="135.2" width="317.5" height="232.8"/>
	<rect x="232" y="-97.5" fill="#FFFFFF" stroke="#000000" stroke-miterlimit="1" width="317.5" height="465.5"/>
</g>
<g id="Layer_2">
	<g>
		<circle fill="none" stroke="#000000" stroke-miterlimit="1" cx="390.8" cy="-59.5" r="19.6"/>
		<line fill="none" stroke="#000000" stroke-miterlimit="1" x1="401.6" y1="-75.8" x2="379.9" y2="-43.2"/>
	</g>
	<g>
		<circle fill="none" stroke="#000000" stroke-miterlimit="1" cx="390.8" cy="329.5" r="19.6"/>
		<line fill="none" stroke="#000000" stroke-miterlimit="1" x1="401.6" y1="313.2" x2="379.9" y2="345.8"/>
	</g>
	<g id="Layer_3">
	</g>
</g>
<g id="Layer_4">
	<rect x="345.3" y="63.8" fill="#FFFFFF" stroke="#000000" stroke-miterlimit="1" width="87.4" height="145.3"/>
</g>
<g id="Layer_5">
	<rect x="360.9" y="77.2" width="59.7" height="118.6"/>
</g>
<g id="Layer_7">
	<polygon fill="#FFFFFF" points="364.5,80.3 364.5,184.6 364.5,187.7 412.6,187.8 433.2,162.6 435.8,150.2 435.4,141 464.3,70 
		466.1,39.7 428.7,21.9 	"/>
	<rect x="243.7" y="245.4" fill="none" width="294.2" height="188.1"/>
	<text transform="matrix(1 0 0 1 306.8614 281.0391)" font-family="'Raisonne-DemiBold'" font-size="50" letter-spacing="5">*</text>
	<text transform="matrix(1 0 0 1 331.3614 281.0391)" font-family="'Raisonne-DemiBold'" font-size="50">Glo</text>
	<text transform="matrix(1 0 0 1 410.3104 281.0391)" font-family="'Raisonne-DemiBold'" font-size="50" letter-spacing="1">w</text>
	<text transform="matrix(1 0 0 1 451.2094 281.0391)" font-family="'Raisonne-DemiBold'" font-size="50">*</text>
	<rect x="245.5" y="-21.6" fill="none" width="294.2" height="126.5"/>
	<rect x="699" y="135.2" width="317.5" height="232.8"/>
	<rect x="699" y="-97.5" fill="#FFFFFF" stroke="#000000" stroke-miterlimit="1" width="317.5" height="465.5"/>
	<g>
		<circle fill="none" stroke="#000000" stroke-miterlimit="1" cx="857.8" cy="-59.5" r="19.6"/>
		<line fill="none" stroke="#000000" stroke-miterlimit="1" x1="868.7" y1="-75.8" x2="846.9" y2="-43.2"/>
	</g>
	<g>
		<circle fill="none" stroke="#000000" stroke-miterlimit="1" cx="857.8" cy="329.5" r="19.6"/>
		<line fill="none" stroke="#000000" stroke-miterlimit="1" x1="868.7" y1="313.2" x2="846.9" y2="345.8"/>
	</g>
	<rect x="812.3" y="63.8" fill="#FFFFFF" stroke="#000000" stroke-miterlimit="1" width="87.4" height="145.3"/>
	<rect x="827.9" y="77.2" width="59.7" height="118.6"/>
	<polygon fill="#FFFFFF" points="831.5,80.3 831.5,184.6 831.5,187.7 879.6,187.8 900.2,162.6 902.8,150.2 902.4,141 931.3,70 
		933.1,39.7 895.7,21.9 	"/>
	<rect x="710.7" y="225.7" fill="none" width="294.2" height="77"/>
	<text transform="matrix(1 0 0 1 770.1193 270.1582)" fill="#FFFFFF" font-family="'Raisonne-DemiBold'" font-size="62.3964">Signal</text>
	<rect x="712.5" y="232.9" fill="none" width="294.2" height="188.1"/>
	<text transform="matrix(1 0 0 1 789.3195 268.4685)" font-family="'Raisonne-DemiBold'" font-size="50">Signal</text>
	<rect x="712.5" y="-21.6" fill="none" width="294.2" height="126.5"/>
	<polyline fill="#FFFFFF" stroke="#000000" stroke-miterlimit="10" points="895.7,73.6 853.8,140.9 902.4,140.9 947.4,73.6 	"/>
	<rect x="895.7" y="21.9" fill="#FFFFFF" stroke="#000000" stroke-miterlimit="10" width="51.7" height="51.7"/>
	<line fill="none" stroke="#000000" stroke-miterlimit="10" x1="895.7" y1="21.9" x2="831.5" y2="80.7"/>
	<path fill="none" stroke="#000000" stroke-miterlimit="10" d="M853.8,140.9c0,0,3.6,16.5-3.6,24.1c-7.1,7.6-18.7,22.7-18.7,22.7"/>
	<path fill="#FFFFFF" stroke="#000000" stroke-miterlimit="10" d="M901.9,141c0,0,3.6,16.5-3.6,24.1s-18.7,22.7-18.7,22.7"/>
	<text transform="matrix(1 0 0 1 308.812 8.5033)" font-family="'Raisonne-DemiBold'" font-size="50">Search</text>
</g>
<g id="Layer_6">
	<polyline fill="#FFFFFF" stroke="#000000" stroke-miterlimit="10" points="428.7,73.6 386.8,140.9 435.4,140.9 480.4,73.6 	"/>
	<rect x="428.7" y="21.9" fill="#FFFFFF" stroke="#000000" stroke-miterlimit="10" width="51.7" height="51.7"/>
	<line fill="none" stroke="#000000" stroke-miterlimit="10" x1="428.7" y1="21.9" x2="364.5" y2="80.7"/>
	<path fill="none" stroke="#000000" stroke-miterlimit="10" d="M386.8,140.9c0,0,3.6,16.5-3.6,24.1c-7.1,7.6-18.7,22.7-18.7,22.7"/>
	<path fill="#FFFFFF" stroke="#000000" stroke-miterlimit="10" d="M434.9,141c0,0,3.6,16.5-3.6,24.1s-18.7,22.7-18.7,22.7"/>
</g>
</svg>
